<svg width="194" height="185" viewBox="0 0 194 185" fill="none" xmlns="http://www.w3.org/2000/svg">
<circle cx="65" cy="65" r="64" fill="black" stroke="black" stroke-width="1.2373"/>
<path fill-rule="evenodd" clip-rule="evenodd" d="M24.7473 34.6638C24.7698 34.6189 26.9961 32.2352 29.6946 29.4017L34.5744 24.1846L35.5639 25.1515C36.1036 25.6912 38.3749 27.8501 40.6011 29.9639C41.6703 30.9899 42.7447 32.0107 43.6275 32.8494C44.5828 33.7572 45.3138 34.4517 45.5709 34.7088L46.4929 35.6083L47.3025 35.1136C47.7522 34.8437 48.8991 34.2141 49.8886 33.7418C53.3067 32.0328 56.6574 31.0208 60.7501 30.4362C62.4592 30.1888 67.9912 30.2338 69.8352 30.5036C73.3882 31.0208 76.4465 31.9428 79.7297 33.4495C80.8092 33.9442 82.7431 35.0012 83.5077 35.5184C83.7775 35.7208 84.0699 35.8557 84.1148 35.8332C84.1823 35.8107 86.7009 33.2021 89.7368 30.0314C92.7726 26.8381 95.3137 24.252 95.4037 24.252C95.5386 24.252 105.658 33.8093 105.748 34.0342C105.771 34.1016 103.184 36.8676 100.014 40.1733L94.2343 46.2225L94.6616 46.9646C95.5386 48.4488 97.0453 51.687 97.54 53.1262C100.958 62.9534 99.8562 73.6125 94.5716 82.4052L93.942 83.4397L95.3137 84.744C99.4515 88.6343 106.22 95.1333 106.243 95.2007C106.265 95.3357 96.3931 105.658 96.3032 105.613C96.2132 105.568 87.2182 97.0222 84.812 94.6835L83.7101 93.6041L82.6756 94.2338C78.6953 96.64 73.838 98.2816 68.9356 98.8437C66.3945 99.1586 61.852 99.0461 59.4683 98.6189C54.7234 97.7643 50.4283 96.1452 46.7628 93.8065L46.0432 93.3567L45.2786 94.1213C44.8738 94.5486 42.1978 97.3596 39.3418 100.35L34.1472 105.77L33.8099 105.478C32.9328 104.758 23.7354 95.8754 23.7579 95.8079C23.7654 95.8004 23.8469 95.7138 23.9928 95.5589C24.7171 94.7896 27.0293 92.334 29.7621 89.4889C33.0453 86.0482 35.7663 83.1698 35.8113 83.0799C35.8562 82.9899 35.6538 82.4952 35.2041 81.7306C34.2821 80.179 33.2027 77.8177 32.573 75.9738C29.2224 66.2141 30.3243 55.5999 35.6538 46.7847L36.261 45.7728L35.9237 45.4579C35.7842 45.3359 34.1845 43.8077 32.0786 41.7959C31.4686 41.2132 30.8161 40.5899 30.1444 39.9485C27.1535 37.115 24.7248 34.7313 24.7473 34.6638ZM77.1663 47.7741C74.2204 45.7053 71.0272 44.4909 67.4516 44.0637C58.8163 43.0292 50.4284 47.5718 46.5605 55.3525C45.5936 57.3314 45.0764 58.7481 44.6941 60.7271C44.2893 62.7285 44.2893 66.5064 44.6941 68.5303C45.9759 74.8943 49.9787 80.2014 55.6456 83.1023C63.4938 87.1051 72.8262 85.7559 79.2802 79.7292C86.836 72.6455 87.9829 61.0869 81.9787 52.5865C80.9218 51.0798 78.673 48.8311 77.1663 47.7741Z" fill="white"/>
<path d="M193 120C193 155.346 164.346 184 129 184C93.6538 184 65 155.346 65 120C65 84.6538 93.6538 56 129 56C164.346 56 193 84.6538 193 120Z" fill="url(#paint0_angular_17_249)" stroke="#D58A9F" stroke-width="2"/>
<path d="M139.559 103.216L157.221 125.407L113.019 168.523L87.349 137.164L139.559 103.216Z" fill="#D58A9F"/>
<path fill-rule="evenodd" clip-rule="evenodd" d="M112.954 169.674L86.1952 136.985L139.727 102.176L158.27 125.473L112.954 169.674ZM156.173 125.341L139.39 104.255L88.5026 137.344L113.083 167.371L156.173 125.341Z" fill="white"/>
<path d="M103.801 147.784L106.673 119.567L168.42 119.61L164.872 159.98L103.801 147.784Z" fill="#950C2A"/>
<path fill-rule="evenodd" clip-rule="evenodd" d="M169.272 118.832L165.572 160.914L102.955 148.409L105.969 118.787L169.272 118.832ZM107.377 120.346L104.649 147.158L164.172 159.046L167.57 120.389L107.377 120.346Z" fill="white"/>
<path fill-rule="evenodd" clip-rule="evenodd" d="M141.131 137.101L105.289 129.309L105.62 127.787L141.462 135.578L141.131 137.101Z" fill="white"/>
<path d="M110.239 107.265L129.247 86.2147L179.004 122.781L152.259 153.228L110.239 107.265Z" fill="#F0932C"/>
<path fill-rule="evenodd" clip-rule="evenodd" d="M180.15 122.657L152.271 154.396L109.186 107.268L129.141 85.1697L180.15 122.657ZM129.353 87.2597L111.291 107.262L152.248 152.061L177.857 122.906L129.353 87.2597Z" fill="white"/>
<path fill-rule="evenodd" clip-rule="evenodd" d="M155.157 129.309L131.782 109.051L132.802 107.873L156.178 128.132L155.157 129.309Z" fill="white"/>
<path d="M95.9384 136.322L78.7963 113.726L123.989 71.6495L148.923 103.596L95.9384 136.322Z" fill="#300729"/>
<path fill-rule="evenodd" clip-rule="evenodd" d="M124.081 70.5L150.073 103.802L95.7458 137.357L77.75 113.635L124.081 70.5ZM79.843 113.816L96.1315 135.287L147.774 103.39L123.898 72.7991L79.843 113.816Z" fill="white"/>
<path fill-rule="evenodd" clip-rule="evenodd" d="M123.99 101.259L87.5689 124L86.6065 122.731L123.164 99.9372L123.99 101.259Z" fill="white"/>
<defs>
<radialGradient id="paint0_angular_17_249" cx="0" cy="0" r="1" gradientUnits="userSpaceOnUse" gradientTransform="translate(129 120) rotate(90) scale(64)">
<stop stop-color="#D58A9F"/>
<stop offset="0.497917" stop-color="#D58A9F" stop-opacity="0.5"/>
<stop offset="1" stop-color="#300729" stop-opacity="0"/>
</radialGradient>
</defs>
</svg>
