<svg width="197" height="183" viewBox="0 0 197 183" fill="none" xmlns="http://www.w3.org/2000/svg">
<path d="M133 0C168.349 0 197 28.6563 197 64C197 99.3495 168.349 128 133 128C97.6563 128 69 99.3466 69 64C69 28.6563 97.6563 0 133 0Z" fill="#F5AC37"/>
<path d="M135.357 68.5193H159.676C160.194 68.5193 160.439 68.5193 160.477 67.8396C160.675 65.3657 160.675 62.8773 160.477 60.4005C160.477 59.9195 160.238 59.7208 159.716 59.7208H111.317C110.718 59.7208 110.557 59.9195 110.557 60.4811V67.6006C110.557 68.5193 110.557 68.5193 111.516 68.5193H135.357ZM157.761 51.4004C157.83 51.219 157.83 51.0202 157.761 50.8417C157.355 49.9575 156.874 49.1137 156.315 48.3216C155.474 46.968 154.483 45.721 153.354 44.6007C152.822 43.9238 152.205 43.3162 151.514 42.8006C148.052 39.8544 143.937 37.7692 139.513 36.7209C137.281 36.2198 135 35.9807 132.713 36.0009H111.234C110.635 36.0009 110.554 36.2399 110.554 36.7612V50.9598C110.554 51.5588 110.554 51.7201 111.315 51.7201H157.473C157.473 51.7201 157.873 51.6394 157.954 51.4004H157.758H157.761ZM157.761 76.8397C157.081 76.7648 156.396 76.7648 155.716 76.8397H111.358C110.759 76.8397 110.557 76.8397 110.557 77.6403V91.5221C110.557 92.1614 110.557 92.3227 111.358 92.3227H131.838C132.817 92.3976 133.796 92.3285 134.755 92.124C137.727 91.9109 140.651 91.2658 143.438 90.203C144.452 89.8517 145.431 89.3937 146.356 88.8437H146.635C151.436 86.3467 155.336 82.4241 157.795 77.6087C157.795 77.6087 158.075 77.0039 157.761 76.8455V76.8397ZM102.519 99.5199V99.2809V89.9611V86.8017V77.4013C102.519 76.88 102.519 76.8023 101.88 76.8023H93.1992C92.7183 76.8023 92.5195 76.8023 92.5195 76.1629V68.5625H101.799C102.317 68.5625 102.519 68.5625 102.519 67.8828V60.363C102.519 59.8821 102.519 59.764 101.88 59.764H93.1992C92.7183 59.764 92.5195 59.764 92.5195 59.1246V52.0858C92.5195 51.6452 92.5195 51.5271 93.1589 51.5271H101.759C102.358 51.5271 102.519 51.5271 102.519 50.7668V29.2069C102.519 28.5675 102.519 28.4062 103.32 28.4062H133.318C135.495 28.4927 137.658 28.7317 139.798 29.1263C144.207 29.9413 148.444 31.5167 152.318 33.766C154.887 35.278 157.251 37.1039 159.356 39.2064C160.94 40.8509 162.369 42.6307 163.636 44.5258C164.895 46.4468 165.94 48.5002 166.761 50.6458C166.862 51.2046 167.397 51.5818 167.956 51.4868H175.116C176.035 51.4868 176.035 51.4868 176.075 52.3681V58.9288C176.075 59.5682 175.836 59.7294 175.194 59.7294H169.673C169.114 59.7294 168.953 59.7294 168.993 60.4495C169.212 62.886 169.212 65.3311 168.993 67.7676C168.993 68.4473 168.993 68.5279 169.756 68.5279H176.072C176.351 68.8879 176.072 69.2479 176.072 69.6108C176.112 70.0745 176.112 70.544 176.072 71.0076V75.849C176.072 76.5286 175.873 76.7303 175.271 76.7303H167.711C167.184 76.6295 166.672 76.9664 166.551 77.4906C164.751 82.1706 161.871 86.3668 158.15 89.7307C156.79 90.9547 155.362 92.1067 153.87 93.1695C152.269 94.0911 150.711 95.0501 149.069 95.8104C146.048 97.1698 142.88 98.1721 139.628 98.8085C136.541 99.3615 133.41 99.6121 130.268 99.5689H102.507V99.5286L102.519 99.5199Z" fill="#FEFEFD"/>
<g clip-path="url(#clip0_17_250)">
<mask id="mask0_17_250" style="mask-type:alpha" maskUnits="userSpaceOnUse" x="0" y="55" width="128" height="129">
<path d="M0 55.0005H128V183H0V55.0005Z" fill="white"/>
</mask>
<g mask="url(#mask0_17_250)">
<path fill-rule="evenodd" clip-rule="evenodd" d="M64 55.0005C99.3469 55.0005 128 83.6536 128 119C128 154.344 99.3469 183 64 183C28.6531 183 0 154.344 0 119C0 83.6536 28.6531 55.0005 64 55.0005Z" fill="#2775CA"/>
</g>
<path fill-rule="evenodd" clip-rule="evenodd" d="M52.0026 163.497C52.0026 165.003 50.8237 165.858 49.3677 165.404C30.0171 159.231 15.9873 141.086 15.9873 119.676C15.9873 98.2676 30.0171 80.1222 49.3677 73.9491C50.8237 73.4974 52.0026 74.3498 52.0026 75.8552V79.5716C52.0026 80.5738 51.2259 81.7534 50.2709 82.08C34.9611 87.7018 23.9938 102.409 23.9938 119.651C23.9938 136.892 34.9611 151.603 50.2709 157.222C51.2259 157.574 52.0026 158.727 52.0026 159.733V163.497Z" fill="white"/>
<path fill-rule="evenodd" clip-rule="evenodd" d="M67.9897 149.668C67.9897 150.773 67.0865 151.677 65.9825 151.677H61.9912C60.8872 151.677 59.9839 150.773 59.9839 149.668V143.344C51.2494 142.165 46.9839 137.27 45.829 130.62C45.6276 129.489 46.5308 128.461 47.6857 128.461H52.2537C53.2072 128.461 54.0108 129.139 54.2116 130.091C55.0654 134.057 57.349 137.094 64.3505 137.094C69.5207 137.094 73.1861 134.208 73.1861 129.893C73.1861 125.574 71.0268 123.944 63.4472 122.688C52.2537 121.182 46.9585 117.793 46.9585 109.009C46.9585 102.233 52.0792 96.9632 60.0094 95.833V89.6337C60.0094 88.529 60.9134 87.625 62.0167 87.625H66.0079C67.1119 87.625 68.0152 88.529 68.0152 89.6337V96.009C74.4654 97.1654 78.5563 100.827 79.8872 106.901C80.1374 108.057 79.2341 109.134 78.0552 109.134H73.8377C72.9345 109.134 72.1817 108.531 71.9061 107.653C70.7767 103.79 68.0152 102.134 63.221 102.134C57.9257 102.134 55.1897 104.693 55.1897 108.282C55.1897 112.072 56.7468 113.978 64.8792 115.16C75.8705 116.665 81.5439 119.802 81.5439 129.165C81.5439 136.267 76.2727 142.015 68.0152 143.344V149.668H67.9897Z" fill="white"/>
<path fill-rule="evenodd" clip-rule="evenodd" d="M78.632 165.404C77.1774 165.858 75.9971 165.003 75.9971 163.497V159.784C75.9971 158.679 76.6749 157.651 77.7287 157.273C93.0385 151.651 104.006 136.943 104.006 119.702C104.006 102.46 93.0385 87.7527 77.7287 82.1309C76.7753 81.7789 75.9971 80.6255 75.9971 79.6197V75.9062C75.9971 74.4007 77.1774 73.5229 78.632 73.9971C97.9825 80.1738 112.012 98.3186 112.012 119.727C111.988 141.085 97.9825 159.205 78.632 165.404Z" fill="white"/>
</g>
<defs>
<clipPath id="clip0_17_250">
<rect width="128" height="128" fill="white" transform="translate(0 55)"/>
</clipPath>
</defs>
</svg>
