<svg width="1440" height="900" viewBox="0 0 1440 900" fill="none" xmlns="http://www.w3.org/2000/svg">
<path d="M937.985 409.278L950.317 424.773L919.454 454.877L901.531 432.982L937.985 409.278Z" fill="#D58A9F"/>
<path fill-rule="evenodd" clip-rule="evenodd" d="M943.992 416.86L920.06 436.24L919.375 435.395L943.307 416.015L943.992 416.86Z" fill="white"/>
<path d="M1290.06 226.833L1273.94 239.056L1243.94 206.833L1266.72 189.056L1290.06 226.833Z" fill="#300729"/>
<path fill-rule="evenodd" clip-rule="evenodd" d="M1265.06 206.834L1281.72 233.5L1280.78 234.089L1264.11 207.422L1265.06 206.834Z" fill="white"/>
<path d="M1142.57 187.92L1144.08 173.13L1176.44 173.153L1174.58 194.313L1142.57 187.92Z" fill="#950C2A"/>
<path fill-rule="evenodd" clip-rule="evenodd" d="M1162.35 182.519L1143.23 180.509L1143.31 179.697L1162.43 181.707L1162.35 182.519Z" fill="white"/>
<path d="M1206.08 77.855L1218.49 64.1147L1250.97 87.9829L1233.51 107.857L1206.08 77.855Z" fill="#F0932C"/>
<path fill-rule="evenodd" clip-rule="evenodd" d="M1227.15 83.9867L1211.89 70.7631L1212.55 69.9944L1227.81 83.2181L1227.15 83.9867Z" fill="white"/>
<path d="M1206.08 77.855L1218.49 64.1147L1250.97 87.9829L1233.51 107.857L1206.08 77.855Z" fill="#F0932C"/>
<path fill-rule="evenodd" clip-rule="evenodd" d="M1227.15 83.9867L1211.89 70.7631L1212.55 69.9944L1227.81 83.2181L1227.15 83.9867Z" fill="white"/>
<path d="M1153.98 367.278L1166.32 382.773L1135.45 412.877L1117.53 390.982L1153.98 367.278Z" fill="#D58A9F"/>
<path fill-rule="evenodd" clip-rule="evenodd" d="M1159.99 374.86L1136.06 394.24L1135.38 393.395L1159.31 374.015L1159.99 374.86Z" fill="white"/>
<path d="M1077 69.2222L1093.11 57L1123.11 89.2222L1100.33 107L1077 69.2222Z" fill="#300729"/>
<path fill-rule="evenodd" clip-rule="evenodd" d="M1102 89.2221L1085.33 62.5554L1086.28 61.9666L1102.94 88.6332L1102 89.2221Z" fill="white"/>
<path d="M1238.43 283.938L1236.92 298.728L1204.56 298.705L1206.42 277.546L1238.43 283.938Z" fill="#950C2A"/>
<path fill-rule="evenodd" clip-rule="evenodd" d="M1218.65 289.34L1237.77 291.349L1237.69 292.162L1218.57 290.152L1218.65 289.34Z" fill="white"/>
<path d="M1206.08 77.855L1218.49 64.1147L1250.97 87.9829L1233.51 107.857L1206.08 77.855Z" fill="#F0932C"/>
<path fill-rule="evenodd" clip-rule="evenodd" d="M1227.15 83.9867L1211.89 70.7631L1212.55 69.9944L1227.81 83.2181L1227.15 83.9867Z" fill="white"/>
<path d="M948.138 86.156L963.632 73.8236L993.736 104.686L971.841 122.609L948.138 86.156Z" fill="#D58A9F"/>
<path fill-rule="evenodd" clip-rule="evenodd" d="M955.72 80.1491L975.1 104.081L974.254 104.766L954.874 80.8339L955.72 80.1491Z" fill="white"/>
<path d="M874.222 224.111L862 208L894.222 178L912 200.778L874.222 224.111Z" fill="#300729"/>
<path fill-rule="evenodd" clip-rule="evenodd" d="M894.222 199.111L867.556 215.778L866.967 214.835L893.633 198.169L894.222 199.111Z" fill="white"/>
<path d="M786.991 187.358L772.201 185.853L772.224 153.488L793.383 155.348L786.991 187.358Z" fill="#950C2A"/>
<path fill-rule="evenodd" clip-rule="evenodd" d="M781.59 167.581L779.58 186.701L778.768 186.615L780.777 167.495L781.59 167.581Z" fill="white"/>
<path d="M871.916 79.98L859.508 93.7203L827.031 69.8521L844.488 49.9781L871.916 79.98Z" fill="#F0932C"/>
<path fill-rule="evenodd" clip-rule="evenodd" d="M850.854 73.8482L866.112 87.0719L865.446 87.8406L850.188 74.6169L850.854 73.8482Z" fill="white"/>
<path d="M1145.86 271.125L1130.37 283.458L1100.26 252.595L1122.16 234.672L1145.86 271.125Z" fill="#D58A9F"/>
<path fill-rule="evenodd" clip-rule="evenodd" d="M1138.28 277.132L1118.9 253.2L1119.75 252.515L1139.13 276.447L1138.28 277.132Z" fill="white"/>
<path d="M1051.78 339L1064 355.111L1031.78 385.111L1014 362.334L1051.78 339Z" fill="#300729"/>
<path fill-rule="evenodd" clip-rule="evenodd" d="M1031.78 364L1058.44 347.334L1059.03 348.276L1032.37 364.943L1031.78 364Z" fill="white"/>
<path d="M914.572 335.92L916.077 321.13L948.441 321.153L946.582 342.313L914.572 335.92Z" fill="#950C2A"/>
<path fill-rule="evenodd" clip-rule="evenodd" d="M934.348 330.519L915.228 328.509L915.313 327.697L934.434 329.706L934.348 330.519Z" fill="white"/>
<path d="M992.729 282.042L978.989 269.635L1002.86 237.157L1022.73 254.614L992.729 282.042Z" fill="#F0932C"/>
<path fill-rule="evenodd" clip-rule="evenodd" d="M998.861 260.98L985.637 276.238L984.869 275.572L998.092 260.314L998.861 260.98Z" fill="white"/>
<path d="M1369.85 655.916L1356.11 643.508L1379.98 611.031L1399.86 628.488L1369.85 655.916Z" fill="#F0932C"/>
<path fill-rule="evenodd" clip-rule="evenodd" d="M1375.99 634.854L1362.76 650.112L1361.99 649.446L1375.22 634.188L1375.99 634.854Z" fill="white"/>
<path d="M1074.92 172.397L1062.51 186.138L1030.03 162.27L1047.49 142.396L1074.92 172.397Z" fill="#F0932C"/>
<path fill-rule="evenodd" clip-rule="evenodd" d="M1053.85 166.266L1069.11 179.489L1068.45 180.258L1053.19 167.034L1053.85 166.266Z" fill="white"/>
<path d="M1365.91 503.278L1378.25 518.773L1347.38 548.877L1329.46 526.982L1365.91 503.278Z" fill="#D58A9F"/>
<path fill-rule="evenodd" clip-rule="evenodd" d="M1371.92 510.86L1347.99 530.24L1347.3 529.395L1371.24 510.015L1371.92 510.86Z" fill="white"/>
<path d="M1292.98 641.833L1276.87 654.056L1246.87 621.833L1269.65 604.056L1292.98 641.833Z" fill="#300729"/>
<path fill-rule="evenodd" clip-rule="evenodd" d="M1267.98 621.833L1284.65 648.5L1283.71 649.089L1267.04 622.422L1267.98 621.833Z" fill="white"/>
<path d="M977.572 510.92L979.077 496.13L1011.44 496.153L1009.58 517.313L977.572 510.92Z" fill="#950C2A"/>
<path fill-rule="evenodd" clip-rule="evenodd" d="M997.348 505.519L978.228 503.509L978.313 502.697L997.434 504.706L997.348 505.519Z" fill="white"/>
<path d="M1145.5 602.92L1147.01 588.13L1179.37 588.153L1177.51 609.313L1145.5 602.92Z" fill="#950C2A"/>
<path fill-rule="evenodd" clip-rule="evenodd" d="M1165.28 597.519L1146.16 595.509L1146.24 594.697L1165.36 596.706L1165.28 597.519Z" fill="white"/>
<path d="M1209.01 492.855L1221.42 479.115L1253.9 502.983L1236.44 522.857L1209.01 492.855Z" fill="#F0932C"/>
<path fill-rule="evenodd" clip-rule="evenodd" d="M1230.08 498.987L1214.82 485.763L1215.48 484.995L1230.74 498.218L1230.08 498.987Z" fill="white"/>
<path d="M1209.01 492.855L1221.42 479.115L1253.9 502.983L1236.44 522.857L1209.01 492.855Z" fill="#F0932C"/>
<path fill-rule="evenodd" clip-rule="evenodd" d="M1230.08 498.987L1214.82 485.763L1215.48 484.995L1230.74 498.218L1230.08 498.987Z" fill="white"/>
<path d="M1365.91 503.278L1378.25 518.773L1347.38 548.877L1329.46 526.982L1365.91 503.278Z" fill="#D58A9F"/>
<path fill-rule="evenodd" clip-rule="evenodd" d="M1371.92 510.86L1347.99 530.24L1347.3 529.395L1371.24 510.015L1371.92 510.86Z" fill="white"/>
<path d="M1079.93 484.222L1096.04 472L1126.04 504.222L1103.26 522L1079.93 484.222Z" fill="#300729"/>
<path fill-rule="evenodd" clip-rule="evenodd" d="M1104.93 504.222L1088.26 477.556L1089.21 476.967L1105.87 503.633L1104.93 504.222Z" fill="white"/>
<path d="M1241.36 698.938L1239.85 713.728L1207.49 713.705L1209.35 692.546L1241.36 698.938Z" fill="#950C2A"/>
<path fill-rule="evenodd" clip-rule="evenodd" d="M1221.58 704.34L1240.7 706.349L1240.62 707.162L1221.5 705.152L1221.58 704.34Z" fill="white"/>
<path d="M1209.01 492.855L1221.42 479.115L1253.9 502.983L1236.44 522.857L1209.01 492.855Z" fill="#F0932C"/>
<path fill-rule="evenodd" clip-rule="evenodd" d="M1230.08 498.987L1214.82 485.763L1215.48 484.995L1230.74 498.218L1230.08 498.987Z" fill="white"/>
<path d="M86.9847 658.278L99.317 673.773L68.4543 703.877L50.5312 681.982L86.9847 658.278Z" fill="#D58A9F"/>
<path fill-rule="evenodd" clip-rule="evenodd" d="M92.9917 665.86L69.0597 685.24L68.375 684.395L92.307 665.015L92.9917 665.86Z" fill="white"/>
<path d="M195.111 809.778L179 822L149 789.778L171.778 772L195.111 809.778Z" fill="#300729"/>
<path fill-rule="evenodd" clip-rule="evenodd" d="M170.111 789.778L186.778 816.444L185.835 817.033L169.169 790.367L170.111 789.778Z" fill="white"/>
<path d="M49.5719 802.92L51.0769 788.13L83.4415 788.153L81.5815 809.313L49.5719 802.92Z" fill="#950C2A"/>
<path fill-rule="evenodd" clip-rule="evenodd" d="M69.3482 797.519L50.2281 795.509L50.3135 794.697L69.4335 796.706L69.3482 797.519Z" fill="white"/>
<path d="M103.084 728.855L115.492 715.115L147.969 738.983L130.512 758.857L103.084 728.855Z" fill="#F0932C"/>
<path fill-rule="evenodd" clip-rule="evenodd" d="M124.146 734.987L108.888 721.763L109.554 720.995L124.812 734.218L124.146 734.987Z" fill="white"/>
<path d="M103.084 728.855L115.492 715.115L147.969 738.983L130.512 758.857L103.084 728.855Z" fill="#F0932C"/>
<path fill-rule="evenodd" clip-rule="evenodd" d="M124.146 734.987L108.888 721.763L109.554 720.995L124.812 734.218L124.146 734.987Z" fill="white"/>
<path d="M269.985 805.278L282.317 820.773L251.454 850.877L233.531 828.982L269.985 805.278Z" fill="#D58A9F"/>
<path fill-rule="evenodd" clip-rule="evenodd" d="M275.992 812.86L252.06 832.24L251.375 831.395L275.307 812.015L275.992 812.86Z" fill="white"/>
<path d="M104.992 871.482L99.2968 853.867L136.206 837.674L144.689 862.729L104.992 871.482Z" fill="#F0932C"/>
<path fill-rule="evenodd" clip-rule="evenodd" d="M120.834 856.307L101.753 862.91L101.42 861.948L120.501 855.346L120.834 856.307Z" fill="white"/>
<path d="M1003.28 844.015L1018.77 831.683L1048.88 862.546L1026.98 880.469L1003.28 844.015Z" fill="#D58A9F"/>
<path fill-rule="evenodd" clip-rule="evenodd" d="M1010.86 838.008L1030.24 861.94L1029.39 862.625L1010.01 838.693L1010.86 838.008Z" fill="white"/>
<path d="M748.222 609.111L736 593L768.222 563L786 585.778L748.222 609.111Z" fill="#300729"/>
<path fill-rule="evenodd" clip-rule="evenodd" d="M768.222 584.111L741.556 600.778L740.967 599.835L767.633 583.169L768.222 584.111Z" fill="white"/>
<path d="M754.92 520.428L740.13 518.923L740.153 486.559L761.313 488.418L754.92 520.428Z" fill="#950C2A"/>
<path fill-rule="evenodd" clip-rule="evenodd" d="M749.519 500.652L747.509 519.772L746.697 519.687L748.706 500.566L749.519 500.652Z" fill="white"/>
<path d="M874.845 494.98L862.438 508.72L829.96 484.852L847.417 464.978L874.845 494.98Z" fill="#F0932C"/>
<path fill-rule="evenodd" clip-rule="evenodd" d="M853.783 488.848L869.041 502.072L868.375 502.84L853.117 489.617L853.783 488.848Z" fill="white"/>
<path d="M1075 609.985L1059.51 622.317L1029.4 591.454L1051.3 573.531L1075 609.985Z" fill="#D58A9F"/>
<path fill-rule="evenodd" clip-rule="evenodd" d="M1067.42 615.992L1048.04 592.06L1048.89 591.375L1068.27 615.307L1067.42 615.992Z" fill="white"/>
<path d="M1054.71 754L1066.93 770.111L1034.71 800.111L1016.93 777.334L1054.71 754Z" fill="#300729"/>
<path fill-rule="evenodd" clip-rule="evenodd" d="M1034.71 779L1061.37 762.334L1061.96 763.276L1035.3 779.943L1034.71 779Z" fill="white"/>
<path d="M917.501 750.92L919.006 736.13L951.371 736.153L949.511 757.313L917.501 750.92Z" fill="#950C2A"/>
<path fill-rule="evenodd" clip-rule="evenodd" d="M937.277 745.519L918.157 743.509L918.243 742.697L937.363 744.706L937.277 745.519Z" fill="white"/>
<path d="M995.658 697.042L981.918 684.634L1005.79 652.157L1025.66 669.614L995.658 697.042Z" fill="#F0932C"/>
<path fill-rule="evenodd" clip-rule="evenodd" d="M1001.79 675.98L988.567 691.238L987.798 690.572L1001.02 675.314L1001.79 675.98Z" fill="white"/>
<path d="M995.658 697.042L981.918 684.634L1005.79 652.157L1025.66 669.614L995.658 697.042Z" fill="#F0932C"/>
<path fill-rule="evenodd" clip-rule="evenodd" d="M1001.79 675.98L988.567 691.238L987.798 690.572L1001.02 675.314L1001.79 675.98Z" fill="white"/>
<path d="M896.916 850.98L884.508 864.72L852.031 840.852L869.488 820.978L896.916 850.98Z" fill="#F0932C"/>
<path fill-rule="evenodd" clip-rule="evenodd" d="M875.854 844.848L891.112 858.072L890.446 858.84L875.188 845.617L875.854 844.848Z" fill="white"/>
<path d="M1331.14 745.222L1347.25 733L1377.25 765.222L1354.47 783L1331.14 745.222Z" fill="#300729"/>
<path fill-rule="evenodd" clip-rule="evenodd" d="M1356.14 765.222L1339.47 738.556L1340.42 737.967L1357.08 764.633L1356.14 765.222Z" fill="white"/>
<path d="M1094.28 677.015L1109.77 664.683L1139.88 695.546L1117.98 713.469L1094.28 677.015Z" fill="#D58A9F"/>
<path fill-rule="evenodd" clip-rule="evenodd" d="M1101.86 671.008L1121.24 694.94L1120.39 695.625L1101.01 671.693L1101.86 671.008Z" fill="white"/>
<path d="M1329.06 848.397L1316.65 862.138L1284.17 838.27L1301.63 818.396L1329.06 848.397Z" fill="#F0932C"/>
<path fill-rule="evenodd" clip-rule="evenodd" d="M1307.99 842.265L1323.25 855.489L1322.59 856.258L1307.33 843.034L1307.99 842.265Z" fill="white"/>
<path d="M754.914 79.2783L767.246 94.7729L736.383 124.877L718.46 102.982L754.914 79.2783Z" fill="#D58A9F"/>
<path fill-rule="evenodd" clip-rule="evenodd" d="M760.921 86.8604L736.989 106.24L736.304 105.395L760.236 86.0148L760.921 86.8604Z" fill="white"/>
<path d="M681.985 217.833L665.874 230.056L635.874 197.833L658.651 180.056L681.985 217.833Z" fill="#300729"/>
<path fill-rule="evenodd" clip-rule="evenodd" d="M656.985 197.834L673.651 224.5L672.709 225.089L656.042 198.422L656.985 197.834Z" fill="white"/>
<path d="M534.501 178.92L536.006 164.13L568.371 164.153L566.511 185.313L534.501 178.92Z" fill="#950C2A"/>
<path fill-rule="evenodd" clip-rule="evenodd" d="M554.277 173.519L535.157 171.509L535.243 170.697L554.363 172.707L554.277 173.519Z" fill="white"/>
<path d="M598.013 68.855L610.421 55.1147L642.898 78.9829L625.441 98.8568L598.013 68.855Z" fill="#F0932C"/>
<path fill-rule="evenodd" clip-rule="evenodd" d="M619.075 74.9867L603.817 61.7631L604.483 60.9944L619.741 74.2181L619.075 74.9867Z" fill="white"/>
<path d="M598.013 68.855L610.421 55.1147L642.898 78.9829L625.441 98.8568L598.013 68.855Z" fill="#F0932C"/>
<path fill-rule="evenodd" clip-rule="evenodd" d="M619.075 74.9867L603.817 61.7631L604.483 60.9944L619.741 74.2181L619.075 74.9867Z" fill="white"/>
<path d="M754.914 79.2783L767.246 94.7729L736.383 124.877L718.46 102.982L754.914 79.2783Z" fill="#D58A9F"/>
<path fill-rule="evenodd" clip-rule="evenodd" d="M760.921 86.8604L736.989 106.24L736.304 105.395L760.236 86.0148L760.921 86.8604Z" fill="white"/>
<path d="M468.929 60.2222L485.041 48L515.041 80.2222L492.263 98L468.929 60.2222Z" fill="#300729"/>
<path fill-rule="evenodd" clip-rule="evenodd" d="M493.93 80.2221L477.263 53.5554L478.205 52.9666L494.872 79.6332L493.93 80.2221Z" fill="white"/>
<path d="M630.357 274.938L628.852 289.728L596.488 289.705L598.348 268.546L630.357 274.938Z" fill="#950C2A"/>
<path fill-rule="evenodd" clip-rule="evenodd" d="M610.581 280.339L629.701 282.349L629.616 283.161L610.496 281.152L610.581 280.339Z" fill="white"/>
<path d="M598.013 68.855L610.421 55.1147L642.898 78.9829L625.441 98.8568L598.013 68.855Z" fill="#F0932C"/>
<path fill-rule="evenodd" clip-rule="evenodd" d="M619.075 74.9867L603.817 61.7631L604.483 60.9944L619.741 74.2181L619.075 74.9867Z" fill="white"/>
<path d="M340.067 77.156L355.561 64.8236L385.665 95.6864L363.77 113.609L340.067 77.156Z" fill="#D58A9F"/>
<path fill-rule="evenodd" clip-rule="evenodd" d="M347.649 71.1491L367.029 95.0811L366.183 95.7659L346.803 71.8339L347.649 71.1491Z" fill="white"/>
<path d="M266.151 215.111L253.929 199L286.151 169L303.929 191.778L266.151 215.111Z" fill="#300729"/>
<path fill-rule="evenodd" clip-rule="evenodd" d="M286.152 190.111L259.485 206.778L258.896 205.835L285.563 189.169L286.152 190.111Z" fill="white"/>
<path d="M178.92 178.358L164.13 176.853L164.153 144.488L185.313 146.348L178.92 178.358Z" fill="#950C2A"/>
<path fill-rule="evenodd" clip-rule="evenodd" d="M173.519 158.581L171.509 177.701L170.697 177.615L172.706 158.495L173.519 158.581Z" fill="white"/>
<path d="M263.845 70.98L251.438 84.7203L218.96 60.8521L236.417 40.9781L263.845 70.98Z" fill="#F0932C"/>
<path fill-rule="evenodd" clip-rule="evenodd" d="M242.783 64.8482L258.041 78.0719L257.375 78.8406L242.117 65.6169L242.783 64.8482Z" fill="white"/>
<path d="M537.792 262.125L522.297 274.458L492.193 243.595L514.088 225.672L537.792 262.125Z" fill="#D58A9F"/>
<path fill-rule="evenodd" clip-rule="evenodd" d="M530.209 268.132L510.83 244.2L511.675 243.515L531.055 267.447L530.209 268.132Z" fill="white"/>
<path d="M443.707 330L455.929 346.111L423.707 376.111L405.929 353.334L443.707 330Z" fill="#300729"/>
<path fill-rule="evenodd" clip-rule="evenodd" d="M423.707 355L450.374 338.334L450.962 339.276L424.296 355.943L423.707 355Z" fill="white"/>
<path d="M296.572 424.92L298.077 410.13L330.441 410.153L328.582 431.313L296.572 424.92Z" fill="#950C2A"/>
<path fill-rule="evenodd" clip-rule="evenodd" d="M316.348 419.519L297.228 417.509L297.313 416.697L316.434 418.706L316.348 419.519Z" fill="white"/>
<path d="M384.658 273.042L370.918 260.634L394.786 228.157L414.66 245.614L384.658 273.042Z" fill="#F0932C"/>
<path fill-rule="evenodd" clip-rule="evenodd" d="M390.79 251.98L377.567 267.238L376.798 266.572L390.022 251.314L390.79 251.98Z" fill="white"/>
<path d="M1381.78 395.874L1394 411.985L1361.78 441.985L1344 419.208L1381.78 395.874Z" fill="#300729"/>
<path fill-rule="evenodd" clip-rule="evenodd" d="M1361.78 420.874L1388.44 404.208L1389.03 405.15L1362.37 421.817L1361.78 420.874Z" fill="white"/>
<path d="M1244.57 392.794L1246.08 378.004L1278.44 378.027L1276.58 399.187L1244.57 392.794Z" fill="#950C2A"/>
<path fill-rule="evenodd" clip-rule="evenodd" d="M1264.35 387.393L1245.23 385.383L1245.31 384.571L1264.43 386.58L1264.35 387.393Z" fill="white"/>
<path d="M1322.73 338.916L1308.99 326.508L1332.86 294.031L1352.73 311.488L1322.73 338.916Z" fill="#F0932C"/>
<path fill-rule="evenodd" clip-rule="evenodd" d="M1328.86 317.854L1315.64 333.112L1314.87 332.446L1328.09 317.188L1328.86 317.854Z" fill="white"/>
<path d="M622.778 414.874L635 430.985L602.778 460.985L585 438.208L622.778 414.874Z" fill="#300729"/>
<path fill-rule="evenodd" clip-rule="evenodd" d="M602.778 439.874L629.444 423.208L630.033 424.15L603.367 440.817L602.778 439.874Z" fill="white"/>
<path d="M485.572 411.794L487.077 397.004L519.441 397.027L517.582 418.187L485.572 411.794Z" fill="#950C2A"/>
<path fill-rule="evenodd" clip-rule="evenodd" d="M505.348 406.393L486.228 404.383L486.313 403.571L505.434 405.58L505.348 406.393Z" fill="white"/>
<path d="M563.729 357.916L549.989 345.508L573.857 313.031L593.731 330.488L563.729 357.916Z" fill="#F0932C"/>
<path fill-rule="evenodd" clip-rule="evenodd" d="M569.861 336.854L556.637 352.112L555.869 351.446L569.092 336.188L569.861 336.854Z" fill="white"/>
<path d="M466.845 163.397L454.438 177.138L421.96 153.27L439.417 133.396L466.845 163.397Z" fill="#F0932C"/>
<path fill-rule="evenodd" clip-rule="evenodd" d="M445.783 157.266L461.041 170.489L460.375 171.258L445.117 158.034L445.783 157.266Z" fill="white"/>
<path d="M653.914 492.278L666.246 507.773L635.383 537.877L617.46 515.982L653.914 492.278Z" fill="#D58A9F"/>
<path fill-rule="evenodd" clip-rule="evenodd" d="M659.921 499.86L635.989 519.24L635.304 518.395L659.236 499.015L659.921 499.86Z" fill="white"/>
<path d="M597.111 610.778L581 623L551 590.778L573.778 573L597.111 610.778Z" fill="#300729"/>
<path fill-rule="evenodd" clip-rule="evenodd" d="M572.111 590.778L588.778 617.444L587.835 618.033L571.169 591.367L572.111 590.778Z" fill="white"/>
<path d="M433.501 591.92L435.006 577.13L467.371 577.153L465.511 598.313L433.501 591.92Z" fill="#950C2A"/>
<path fill-rule="evenodd" clip-rule="evenodd" d="M453.277 586.519L434.157 584.509L434.243 583.697L453.363 585.706L453.277 586.519Z" fill="white"/>
<path d="M497.013 481.855L509.421 468.115L541.898 491.983L524.441 511.857L497.013 481.855Z" fill="#F0932C"/>
<path fill-rule="evenodd" clip-rule="evenodd" d="M518.075 487.987L502.817 474.763L503.483 473.995L518.741 487.218L518.075 487.987Z" fill="white"/>
<path d="M497.013 481.855L509.421 468.115L541.898 491.983L524.441 511.857L497.013 481.855Z" fill="#F0932C"/>
<path fill-rule="evenodd" clip-rule="evenodd" d="M518.075 487.987L502.817 474.763L503.483 473.995L518.741 487.218L518.075 487.987Z" fill="white"/>
<path d="M653.914 492.278L666.246 507.773L635.383 537.877L617.46 515.982L653.914 492.278Z" fill="#D58A9F"/>
<path fill-rule="evenodd" clip-rule="evenodd" d="M659.921 499.86L635.989 519.24L635.304 518.395L659.236 499.015L659.921 499.86Z" fill="white"/>
<path d="M367.929 473.222L384.041 461L414.041 493.222L391.263 511L367.929 473.222Z" fill="#300729"/>
<path fill-rule="evenodd" clip-rule="evenodd" d="M392.93 493.222L376.263 466.556L377.205 465.967L393.872 492.633L392.93 493.222Z" fill="white"/>
<path d="M73.4281 441.938L71.9231 456.728L39.5585 456.705L41.4185 435.546L73.4281 441.938Z" fill="#950C2A"/>
<path fill-rule="evenodd" clip-rule="evenodd" d="M53.6518 447.34L72.7719 449.349L72.6865 450.162L53.5665 448.152L53.6518 447.34Z" fill="white"/>
<path d="M497.013 481.855L509.421 468.115L541.898 491.983L524.441 511.857L497.013 481.855Z" fill="#F0932C"/>
<path fill-rule="evenodd" clip-rule="evenodd" d="M518.075 487.987L502.817 474.763L503.483 473.995L518.741 487.218L518.075 487.987Z" fill="white"/>
<path d="M813.985 649.278L826.317 664.773L795.454 694.877L777.531 672.982L813.985 649.278Z" fill="#D58A9F"/>
<path fill-rule="evenodd" clip-rule="evenodd" d="M819.992 656.86L796.06 676.24L795.375 675.395L819.307 656.015L819.992 656.86Z" fill="white"/>
<path d="M791.055 787.833L774.944 800.056L744.944 767.833L767.722 750.056L791.055 787.833Z" fill="#300729"/>
<path fill-rule="evenodd" clip-rule="evenodd" d="M766.055 767.833L782.722 794.5L781.78 795.089L765.113 768.422L766.055 767.833Z" fill="white"/>
<path d="M643.572 748.92L645.077 734.13L677.441 734.153L675.582 755.313L643.572 748.92Z" fill="#950C2A"/>
<path fill-rule="evenodd" clip-rule="evenodd" d="M663.348 743.519L644.228 741.509L644.313 740.697L663.434 742.706L663.348 743.519Z" fill="white"/>
<path d="M657.084 638.855L669.492 625.115L701.969 648.983L684.512 668.857L657.084 638.855Z" fill="#F0932C"/>
<path fill-rule="evenodd" clip-rule="evenodd" d="M678.146 644.987L662.888 631.763L663.554 630.995L678.812 644.218L678.146 644.987Z" fill="white"/>
<path d="M657.084 638.855L669.492 625.115L701.969 648.983L684.512 668.857L657.084 638.855Z" fill="#F0932C"/>
<path fill-rule="evenodd" clip-rule="evenodd" d="M678.146 644.987L662.888 631.763L663.554 630.995L678.812 644.218L678.146 644.987Z" fill="white"/>
<path d="M813.985 649.278L826.317 664.773L795.454 694.877L777.531 672.982L813.985 649.278Z" fill="#D58A9F"/>
<path fill-rule="evenodd" clip-rule="evenodd" d="M819.992 656.86L796.06 676.24L795.375 675.395L819.307 656.015L819.992 656.86Z" fill="white"/>
<path d="M657.084 638.855L669.492 625.115L701.969 648.983L684.512 668.857L657.084 638.855Z" fill="#F0932C"/>
<path fill-rule="evenodd" clip-rule="evenodd" d="M678.146 644.987L662.888 631.763L663.554 630.995L678.812 644.218L678.146 644.987Z" fill="white"/>
<path d="M884.084 596.855L896.492 583.115L928.969 606.983L911.512 626.857L884.084 596.855Z" fill="#F0932C"/>
<path fill-rule="evenodd" clip-rule="evenodd" d="M905.146 602.987L889.888 589.763L890.554 588.995L905.812 602.218L905.146 602.987Z" fill="white"/>
<path d="M894.985 254.278L907.317 269.773L876.454 299.877L858.531 277.982L894.985 254.278Z" fill="#D58A9F"/>
<path fill-rule="evenodd" clip-rule="evenodd" d="M900.992 261.86L877.06 281.24L876.375 280.395L900.307 261.015L900.992 261.86Z" fill="white"/>
<path d="M822.055 392.833L805.944 405.056L775.944 372.833L798.722 355.056L822.055 392.833Z" fill="#300729"/>
<path fill-rule="evenodd" clip-rule="evenodd" d="M797.055 372.833L813.722 399.5L812.78 400.089L796.113 373.422L797.055 372.833Z" fill="white"/>
<path d="M674.572 353.92L676.077 339.13L708.441 339.153L706.582 360.313L674.572 353.92Z" fill="#950C2A"/>
<path fill-rule="evenodd" clip-rule="evenodd" d="M694.348 348.519L675.228 346.509L675.313 345.697L694.434 347.706L694.348 348.519Z" fill="white"/>
<path d="M738.084 243.855L750.492 230.115L782.969 253.983L765.512 273.857L738.084 243.855Z" fill="#F0932C"/>
<path fill-rule="evenodd" clip-rule="evenodd" d="M759.146 249.987L743.888 236.763L744.554 235.994L759.812 249.218L759.146 249.987Z" fill="white"/>
<path d="M738.084 243.855L750.492 230.115L782.969 253.983L765.512 273.857L738.084 243.855Z" fill="#F0932C"/>
<path fill-rule="evenodd" clip-rule="evenodd" d="M759.146 249.987L743.888 236.763L744.554 235.994L759.812 249.218L759.146 249.987Z" fill="white"/>
<path d="M894.985 254.278L907.317 269.773L876.454 299.877L858.531 277.982L894.985 254.278Z" fill="#D58A9F"/>
<path fill-rule="evenodd" clip-rule="evenodd" d="M900.992 261.86L877.06 281.24L876.375 280.395L900.307 261.015L900.992 261.86Z" fill="white"/>
<path d="M1324.22 107.111L1312 91L1344.22 61L1362 83.7778L1324.22 107.111Z" fill="#300729"/>
<path fill-rule="evenodd" clip-rule="evenodd" d="M1344.22 82.111L1317.56 98.7777L1316.97 97.8354L1343.63 81.1688L1344.22 82.111Z" fill="white"/>
<path d="M1364.57 218.92L1366.08 204.13L1398.44 204.153L1396.58 225.313L1364.57 218.92Z" fill="#950C2A"/>
<path fill-rule="evenodd" clip-rule="evenodd" d="M1384.35 213.519L1365.23 211.509L1365.31 210.697L1384.43 212.707L1384.35 213.519Z" fill="white"/>
<path d="M1344.98 137.278L1357.32 152.773L1326.45 182.877L1308.53 160.982L1344.98 137.278Z" fill="#D58A9F"/>
<path fill-rule="evenodd" clip-rule="evenodd" d="M1350.99 144.86L1327.06 164.24L1326.38 163.395L1350.31 144.015L1350.99 144.86Z" fill="white"/>
<path d="M330.985 301.278L343.317 316.773L312.454 346.877L294.531 324.982L330.985 301.278Z" fill="#D58A9F"/>
<path fill-rule="evenodd" clip-rule="evenodd" d="M336.992 308.86L313.06 328.24L312.375 327.395L336.307 308.015L336.992 308.86Z" fill="white"/>
<path d="M1198.98 782.278L1211.32 797.773L1180.45 827.877L1162.53 805.982L1198.98 782.278Z" fill="#D58A9F"/>
<path fill-rule="evenodd" clip-rule="evenodd" d="M1204.99 789.86L1181.06 809.24L1180.38 808.395L1204.31 789.015L1204.99 789.86Z" fill="white"/>
<path d="M738.084 243.855L750.492 230.115L782.969 253.983L765.512 273.857L738.084 243.855Z" fill="#F0932C"/>
<path fill-rule="evenodd" clip-rule="evenodd" d="M759.146 249.987L743.888 236.763L744.554 235.994L759.812 249.218L759.146 249.987Z" fill="white"/>
<path d="M206.117 323.358L191.328 321.853L191.351 289.488L212.51 291.348L206.117 323.358Z" fill="#950C2A"/>
<path fill-rule="evenodd" clip-rule="evenodd" d="M200.716 303.581L198.706 322.701L197.894 322.615L199.904 303.495L200.716 303.581Z" fill="white"/>
<path d="M174.04 215.278L186.373 230.773L155.51 260.877L137.587 238.982L174.04 215.278Z" fill="#D58A9F"/>
<path fill-rule="evenodd" clip-rule="evenodd" d="M180.047 222.86L156.115 242.24L155.431 241.395L179.363 222.015L180.047 222.86Z" fill="white"/>
<path d="M101.111 353.833L85 366.056L55 333.833L77.7778 316.056L101.111 353.833Z" fill="#300729"/>
<path fill-rule="evenodd" clip-rule="evenodd" d="M76.111 333.833L92.7777 360.5L91.8354 361.089L75.1688 334.422L76.111 333.833Z" fill="white"/>
<path d="M174.04 215.278L186.373 230.773L155.51 260.877L137.587 238.982L174.04 215.278Z" fill="#D58A9F"/>
<path fill-rule="evenodd" clip-rule="evenodd" d="M180.047 222.86L156.115 242.24L155.431 241.395L179.363 222.015L180.047 222.86Z" fill="white"/>
<path d="M157.21 379.855L169.618 366.115L202.096 389.983L184.639 409.857L157.21 379.855Z" fill="#F0932C"/>
<path fill-rule="evenodd" clip-rule="evenodd" d="M178.273 385.987L163.014 372.763L163.681 371.995L178.939 385.218L178.273 385.987Z" fill="white"/>
<path d="M157.21 379.855L169.618 366.115L202.096 389.983L184.639 409.857L157.21 379.855Z" fill="#F0932C"/>
<path fill-rule="evenodd" clip-rule="evenodd" d="M178.273 385.987L163.014 372.763L163.681 371.995L178.939 385.218L178.273 385.987Z" fill="white"/>
<path d="M157.21 379.855L169.618 366.115L202.096 389.983L184.639 409.857L157.21 379.855Z" fill="#F0932C"/>
<path fill-rule="evenodd" clip-rule="evenodd" d="M178.273 385.987L163.014 372.763L163.681 371.995L178.939 385.218L178.273 385.987Z" fill="white"/>
<path d="M239.067 490.156L254.561 477.824L284.665 508.686L262.77 526.609L239.067 490.156Z" fill="#D58A9F"/>
<path fill-rule="evenodd" clip-rule="evenodd" d="M246.649 484.149L266.029 508.081L265.183 508.766L245.803 484.834L246.649 484.149Z" fill="white"/>
<path d="M165.151 628.111L152.929 612L185.151 582L202.929 604.778L165.151 628.111Z" fill="#300729"/>
<path fill-rule="evenodd" clip-rule="evenodd" d="M185.152 603.111L158.485 619.778L157.896 618.835L184.563 602.169L185.152 603.111Z" fill="white"/>
<path d="M77.9202 591.357L63.1304 589.852L63.1533 557.488L84.3127 559.348L77.9202 591.357Z" fill="#950C2A"/>
<path fill-rule="evenodd" clip-rule="evenodd" d="M72.5187 571.581L70.5091 590.701L69.6968 590.616L71.7064 571.496L72.5187 571.581Z" fill="white"/>
<path d="M162.845 483.98L150.438 497.72L117.96 473.852L135.417 453.978L162.845 483.98Z" fill="#F0932C"/>
<path fill-rule="evenodd" clip-rule="evenodd" d="M141.783 477.848L157.041 491.072L156.375 491.84L141.117 478.617L141.783 477.848Z" fill="white"/>
<path d="M436.792 675.125L421.297 687.458L391.193 656.595L413.088 638.672L436.792 675.125Z" fill="#D58A9F"/>
<path fill-rule="evenodd" clip-rule="evenodd" d="M429.209 681.132L409.83 657.2L410.675 656.516L430.055 680.448L429.209 681.132Z" fill="white"/>
<path d="M350.778 737L363 753.111L330.778 783.111L313 760.334L350.778 737Z" fill="#300729"/>
<path fill-rule="evenodd" clip-rule="evenodd" d="M330.778 762L357.444 745.334L358.033 746.276L331.367 762.943L330.778 762Z" fill="white"/>
<path d="M205.501 739.92L207.006 725.13L239.371 725.153L237.511 746.313L205.501 739.92Z" fill="#950C2A"/>
<path fill-rule="evenodd" clip-rule="evenodd" d="M225.277 734.519L206.157 732.509L206.243 731.697L225.363 733.706L225.277 734.519Z" fill="white"/>
<path d="M283.658 686.042L269.918 673.634L293.786 641.157L313.66 658.614L283.658 686.042Z" fill="#F0932C"/>
<path fill-rule="evenodd" clip-rule="evenodd" d="M289.79 664.98L276.567 680.238L275.798 679.572L289.022 664.314L289.79 664.98Z" fill="white"/>
<path d="M731.003 865.985L715.508 878.317L685.405 847.454L707.3 829.531L731.003 865.985Z" fill="#D58A9F"/>
<path fill-rule="evenodd" clip-rule="evenodd" d="M723.421 871.992L704.041 848.06L704.887 847.375L724.266 871.307L723.421 871.992Z" fill="white"/>
<path d="M516.778 829L529 845.111L496.778 875.111L479 852.334L516.778 829Z" fill="#300729"/>
<path fill-rule="evenodd" clip-rule="evenodd" d="M496.778 854L523.444 837.334L524.033 838.276L497.367 854.943L496.778 854Z" fill="white"/>
<path d="M433.572 798.92L435.077 784.13L467.441 784.153L465.582 805.313L433.572 798.92Z" fill="#950C2A"/>
<path fill-rule="evenodd" clip-rule="evenodd" d="M453.348 793.519L434.228 791.509L434.313 790.697L453.434 792.706L453.348 793.519Z" fill="white"/>
<path d="M586.855 809.916L573.115 797.508L596.983 765.031L616.857 782.488L586.855 809.916Z" fill="#F0932C"/>
<path fill-rule="evenodd" clip-rule="evenodd" d="M592.987 788.854L579.763 804.112L578.995 803.446L592.218 788.188L592.987 788.854Z" fill="white"/>
<path d="M365.845 576.397L353.438 590.138L320.96 566.27L338.417 546.396L365.845 576.397Z" fill="#F0932C"/>
<path fill-rule="evenodd" clip-rule="evenodd" d="M344.783 570.265L360.041 583.489L359.375 584.258L344.117 571.034L344.783 570.265Z" fill="white"/>
<path d="M410.916 854.98L398.508 868.72L366.031 844.852L383.488 824.978L410.916 854.98Z" fill="#F0932C"/>
<path fill-rule="evenodd" clip-rule="evenodd" d="M389.854 848.848L405.112 862.072L404.446 862.84L389.188 849.617L389.854 848.848Z" fill="white"/>
<path d="M47.2222 240.111L35 224L67.2222 194L85 216.778L47.2222 240.111Z" fill="#300729"/>
<path fill-rule="evenodd" clip-rule="evenodd" d="M67.2224 215.111L40.5557 231.778L39.9668 230.835L66.6335 214.169L67.2224 215.111Z" fill="white"/>
<path d="M115.572 63.9202L117.077 49.1304L149.441 49.1533L147.582 70.3127L115.572 63.9202Z" fill="#950C2A"/>
<path fill-rule="evenodd" clip-rule="evenodd" d="M135.348 58.519L116.228 56.5094L116.313 55.697L135.434 57.7066L135.348 58.519Z" fill="white"/>
<path d="M78.9847 91.2783L91.317 106.773L60.4543 136.877L42.5312 114.982L78.9847 91.2783Z" fill="#D58A9F"/>
<path fill-rule="evenodd" clip-rule="evenodd" d="M84.9917 98.8604L61.0597 118.24L60.375 117.395L84.307 98.0148L84.9917 98.8604Z" fill="white"/>
</svg>
