<svg width="1440" height="169" viewBox="0 0 1440 169" fill="none" xmlns="http://www.w3.org/2000/svg">
<path d="M312.806 117.449L301.594 133.773L263.782 113.06L279.48 89.5189L312.806 117.449Z" fill="#D58A9F"/>
<path fill-rule="evenodd" clip-rule="evenodd" d="M307.311 125.411L281.781 108.191L282.39 107.289L307.92 124.509L307.311 125.411Z" fill="white"/>
<path d="M1403.11 172.777L1387 185L1357 152.777L1379.78 135L1403.11 172.777Z" fill="#300729"/>
<path fill-rule="evenodd" clip-rule="evenodd" d="M1378.11 152.777L1394.78 179.444L1393.84 180.033L1377.17 153.366L1378.11 152.777Z" fill="white"/>
<path d="M1310.57 164.92L1312.08 150.13L1344.44 150.153L1342.58 171.312L1310.57 164.92Z" fill="#950C2A"/>
<path fill-rule="evenodd" clip-rule="evenodd" d="M1330.35 159.518L1311.23 157.509L1311.31 156.696L1330.43 158.706L1330.35 159.518Z" fill="white"/>
<path d="M784.985 132.278L797.317 147.772L766.454 177.876L748.531 155.981L784.985 132.278Z" fill="#D58A9F"/>
<path fill-rule="evenodd" clip-rule="evenodd" d="M790.992 139.86L767.06 159.24L766.375 158.394L790.307 139.014L790.992 139.86Z" fill="white"/>
<path d="M773 84.9773L789.111 72.9995L819.111 104.577L796.334 122L773 84.9773Z" fill="#300729"/>
<path fill-rule="evenodd" clip-rule="evenodd" d="M798 104.578L781.334 78.4443L782.276 77.8672L798.943 104.001L798 104.578Z" fill="white"/>
<path d="M1278.43 95.9382L1276.92 110.728L1244.56 110.705L1246.42 89.5457L1278.43 95.9382Z" fill="#950C2A"/>
<path fill-rule="evenodd" clip-rule="evenodd" d="M1258.65 101.34L1277.77 103.349L1277.69 104.162L1258.57 102.152L1258.65 101.34Z" fill="white"/>
<path d="M776.115 41.055L794.276 33.5495L815.202 70.7399L789.41 81.8146L776.115 41.055Z" fill="#D58A9F"/>
<path fill-rule="evenodd" clip-rule="evenodd" d="M784.994 37.4083L797.401 65.1877L796.407 65.6084L784 37.829L784.994 37.4083Z" fill="white"/>
<path d="M840.222 153.111L828 137L860.222 107L878 129.777L840.222 153.111Z" fill="#300729"/>
<path fill-rule="evenodd" clip-rule="evenodd" d="M860.222 128.111L833.556 144.777L832.967 143.835L859.633 127.168L860.222 128.111Z" fill="white"/>
<path d="M837.753 131.62L823.13 129.936L822.714 98.0426L843.631 100.163L837.753 131.62Z" fill="#950C2A"/>
<path fill-rule="evenodd" clip-rule="evenodd" d="M839.822 112.086L837.812 131.206L837 131.121L839.01 112.001L839.822 112.086Z" fill="white"/>
<path d="M703.622 47.835L696.451 64.7235L658.694 52.1879L668.611 27.9126L703.622 47.835Z" fill="#F0932C"/>
<path fill-rule="evenodd" clip-rule="evenodd" d="M682.102 48.5699L700.478 56.3656L700.103 57.3018L681.726 49.5061L682.102 48.5699Z" fill="white"/>
<path d="M875.003 120.244L859.508 132.33L829.405 102.085L851.299 84.5201L875.003 120.244Z" fill="#D58A9F"/>
<path fill-rule="evenodd" clip-rule="evenodd" d="M867.421 126.131L848.041 102.678L848.887 102.007L868.266 125.46L867.421 126.131Z" fill="white"/>
<path d="M191.778 89.9997L204 106.111L171.778 136.111L154 113.333L191.778 89.9997Z" fill="#300729"/>
<path fill-rule="evenodd" clip-rule="evenodd" d="M171.778 115L198.444 98.3332L199.033 99.2754L172.367 115.942L171.778 115Z" fill="white"/>
<path d="M918.572 171.92L920.077 157.13L952.441 157.153L950.582 178.312L918.572 171.92Z" fill="#950C2A"/>
<path fill-rule="evenodd" clip-rule="evenodd" d="M938.348 166.518L919.228 164.509L919.313 163.696L938.434 165.706L938.348 166.518Z" fill="white"/>
<path d="M856.615 143.959L843.115 131.506L866.35 99.148L885.874 116.671L856.615 143.959Z" fill="#F0932C"/>
<path fill-rule="evenodd" clip-rule="evenodd" d="M870.992 122.666L857.769 137.924L857 137.258L870.224 122L870.992 122.666Z" fill="white"/>
<path d="M596.615 149.776L583.115 137.322L606.35 104.965L625.874 122.488L596.615 149.776Z" fill="#F0932C"/>
<path fill-rule="evenodd" clip-rule="evenodd" d="M603.992 128.483L590.769 143.741L590 143.075L603.224 127.817L603.992 128.483Z" fill="white"/>
<path d="M1399.85 171.916L1386.11 159.508L1409.98 127.03L1429.86 144.487L1399.85 171.916Z" fill="#F0932C"/>
<path fill-rule="evenodd" clip-rule="evenodd" d="M1405.99 150.853L1392.76 166.112L1391.99 165.445L1405.22 150.187L1405.99 150.853Z" fill="white"/>
<path d="M1236.33 133.863L1220.21 142.956L1196.98 110.016L1219.84 96.7086L1236.33 133.863Z" fill="#F0932C"/>
<path fill-rule="evenodd" clip-rule="evenodd" d="M1218.3 121.365L1228.58 138.747L1227.7 139.264L1217.43 121.882L1218.3 121.365Z" fill="white"/>
<path d="M765.245 94.2778L777.331 109.772L747.085 139.876L729.521 117.981L765.245 94.2778Z" fill="#D58A9F"/>
<path fill-rule="evenodd" clip-rule="evenodd" d="M771.132 101.86L747.678 121.24L747.007 120.394L770.461 101.014L771.132 101.86Z" fill="white"/>
<path d="M1276.11 167.777L1260 180L1230 147.777L1252.78 130L1276.11 167.777Z" fill="#300729"/>
<path fill-rule="evenodd" clip-rule="evenodd" d="M1251.11 147.777L1267.78 174.444L1266.84 175.033L1250.17 148.366L1251.11 147.777Z" fill="white"/>
<path d="M239.516 74.8005L241.506 89.5329L210.03 97.066L206.899 76.0571L239.516 74.8005Z" fill="#950C2A"/>
<path fill-rule="evenodd" clip-rule="evenodd" d="M221.547 84.6693L240.608 82.1599L240.715 82.9697L221.654 85.4791L221.547 84.6693Z" fill="white"/>
<path d="M222.572 133.92L224.077 119.13L256.441 119.153L254.582 140.312L222.572 133.92Z" fill="#950C2A"/>
<path fill-rule="evenodd" clip-rule="evenodd" d="M242.348 128.518L223.228 126.509L223.313 125.696L242.434 127.706L242.348 128.518Z" fill="white"/>
<path d="M687.042 100.854L699.202 87.1142L731.03 110.982L713.922 130.856L687.042 100.854Z" fill="#F0932C"/>
<path fill-rule="evenodd" clip-rule="evenodd" d="M707.683 106.986L692.73 93.7628L693.383 92.9941L708.336 106.218L707.683 106.986Z" fill="white"/>
<path d="M880.084 156.854L892.492 143.114L924.969 166.982L907.512 186.856L880.084 156.854Z" fill="#F0932C"/>
<path fill-rule="evenodd" clip-rule="evenodd" d="M901.146 162.986L885.888 149.763L886.554 148.994L901.812 162.218L901.146 162.986Z" fill="white"/>
<path d="M1378.98 136.278L1391.32 151.772L1360.45 181.876L1342.53 159.981L1378.98 136.278Z" fill="#D58A9F"/>
<path fill-rule="evenodd" clip-rule="evenodd" d="M1384.99 143.86L1361.06 163.24L1360.38 162.394L1384.31 143.014L1384.99 143.86Z" fill="white"/>
<path d="M271 122.222L287.111 110L317.111 142.222L294.334 160L271 122.222Z" fill="#300729"/>
<path fill-rule="evenodd" clip-rule="evenodd" d="M296 142.222L279.333 115.555L280.275 114.966L296.942 141.633L296 142.222Z" fill="white"/>
<path d="M470.428 157.938L468.923 172.727L436.559 172.705L438.418 151.545L470.428 157.938Z" fill="#950C2A"/>
<path fill-rule="evenodd" clip-rule="evenodd" d="M450.652 163.339L469.772 165.349L469.687 166.161L450.566 164.152L450.652 163.339Z" fill="white"/>
<path d="M702.084 119.854L714.492 106.114L746.969 129.982L729.512 149.856L702.084 119.854Z" fill="#F0932C"/>
<path fill-rule="evenodd" clip-rule="evenodd" d="M723.146 125.986L707.888 112.763L708.554 111.994L723.812 125.218L723.146 125.986Z" fill="white"/>
<path d="M73.9847 149.278L86.317 164.772L55.4543 194.876L37.5312 172.981L73.9847 149.278Z" fill="#D58A9F"/>
<path fill-rule="evenodd" clip-rule="evenodd" d="M79.9917 156.86L56.0597 176.24L55.375 175.394L79.307 156.014L79.9917 156.86Z" fill="white"/>
<path d="M144.111 159.777L128 172L98 139.777L120.778 122L144.111 159.777Z" fill="#300729"/>
<path fill-rule="evenodd" clip-rule="evenodd" d="M119.111 139.777L135.778 166.444L134.836 167.033L118.169 140.366L119.111 139.777Z" fill="white"/>
<path d="M31.5719 161.92L33.0769 147.13L65.4415 147.153L63.5815 168.312L31.5719 161.92Z" fill="#950C2A"/>
<path fill-rule="evenodd" clip-rule="evenodd" d="M51.3482 156.518L32.2281 154.509L32.3135 153.696L51.4335 155.706L51.3482 156.518Z" fill="white"/>
<path d="M-3.91619 159.854L8.4915 146.114L40.9691 169.982L23.5121 189.856L-3.91619 159.854Z" fill="#F0932C"/>
<path fill-rule="evenodd" clip-rule="evenodd" d="M17.1466 165.986L1.88849 152.763L2.55469 151.994L17.8128 165.218L17.1466 165.986Z" fill="white"/>
<path d="M66.0838 147.854L78.4915 134.114L110.969 157.982L93.5121 177.856L66.0838 147.854Z" fill="#F0932C"/>
<path fill-rule="evenodd" clip-rule="evenodd" d="M87.1466 153.986L71.8885 140.763L72.5547 139.994L87.8128 153.218L87.1466 153.986Z" fill="white"/>
<path d="M172.985 144.278L185.317 159.772L154.454 189.876L136.531 167.981L172.985 144.278Z" fill="#D58A9F"/>
<path fill-rule="evenodd" clip-rule="evenodd" d="M178.992 151.86L155.06 171.24L154.375 170.394L178.307 151.014L178.992 151.86Z" fill="white"/>
<path d="M70.9914 156.482L65.2958 138.866L102.205 122.674L110.688 147.729L70.9914 156.482Z" fill="#F0932C"/>
<path fill-rule="evenodd" clip-rule="evenodd" d="M86.8336 141.307L67.7525 147.909L67.4199 146.948L86.501 140.346L86.8336 141.307Z" fill="white"/>
<path d="M189.278 103.015L204.772 90.6825L234.876 121.545L212.981 139.468L189.278 103.015Z" fill="#D58A9F"/>
<path fill-rule="evenodd" clip-rule="evenodd" d="M196.86 97.0078L216.24 120.94L215.395 121.625L196.015 97.6925L196.86 97.0078Z" fill="white"/>
<path d="M67.3555 177.594L59.514 196.234L17.4221 183.329L28.2593 156.544L67.3555 177.594Z" fill="#300729"/>
<path d="M342.92 167.428L328.13 165.923L328.153 133.558L349.313 135.418L342.92 167.428Z" fill="#950C2A"/>
<path fill-rule="evenodd" clip-rule="evenodd" d="M337.519 147.651L335.51 166.771L334.697 166.686L336.707 147.566L337.519 147.651Z" fill="white"/>
<path d="M344.916 141.98L332.508 155.72L300.031 131.852L317.488 111.978L344.916 141.98Z" fill="#F0932C"/>
<path fill-rule="evenodd" clip-rule="evenodd" d="M323.853 135.847L339.112 149.071L338.445 149.84L323.187 136.616L323.853 135.847Z" fill="white"/>
<path d="M275.003 128.984L259.509 141.317L229.405 110.454L251.3 92.5307L275.003 128.984Z" fill="#D58A9F"/>
<path fill-rule="evenodd" clip-rule="evenodd" d="M267.421 134.991L248.041 111.059L248.887 110.375L268.266 134.307L267.421 134.991Z" fill="white"/>
<path d="M427.778 133L440 149.111L407.778 179.111L390 156.333L427.778 133Z" fill="#300729"/>
<path fill-rule="evenodd" clip-rule="evenodd" d="M407.778 158L434.444 141.333L435.033 142.275L408.367 158.942L407.778 158Z" fill="white"/>
<path d="M352.572 170.92L354.077 156.13L386.441 156.153L384.582 177.312L352.572 170.92Z" fill="#950C2A"/>
<path fill-rule="evenodd" clip-rule="evenodd" d="M372.348 165.518L353.228 163.509L353.313 162.696L372.434 164.706L372.348 165.518Z" fill="white"/>
<path d="M277.831 78.0614L277.158 96.5626L236.936 99.1547L237.534 72.7092L277.831 78.0614Z" fill="#F0932C"/>
<path fill-rule="evenodd" clip-rule="evenodd" d="M257.755 86.9024L277.943 87.2246L277.927 88.2417L257.738 87.9195L257.755 86.9024Z" fill="white"/>
<path d="M458.855 179.916L445.115 167.508L468.983 135.03L488.857 152.487L458.855 179.916Z" fill="#F0932C"/>
<path fill-rule="evenodd" clip-rule="evenodd" d="M464.986 158.853L451.763 174.112L450.994 173.445L464.218 158.187L464.986 158.853Z" fill="white"/>
<path d="M403.916 162.98L391.508 176.72L359.031 152.852L376.488 132.978L403.916 162.98Z" fill="#F0932C"/>
<path fill-rule="evenodd" clip-rule="evenodd" d="M382.853 156.847L398.112 170.071L397.445 170.84L382.187 157.616L382.853 156.847Z" fill="white"/>
<path d="M1403 151.222L1419.11 139L1449.11 171.222L1426.33 189L1403 151.222Z" fill="#300729"/>
<path fill-rule="evenodd" clip-rule="evenodd" d="M1428 171.222L1411.33 144.555L1412.28 143.966L1428.94 170.633L1428 171.222Z" fill="white"/>
<path d="M521.278 145.015L536.772 132.682L566.876 163.545L544.981 181.468L521.278 145.015Z" fill="#D58A9F"/>
<path fill-rule="evenodd" clip-rule="evenodd" d="M528.86 139.008L548.24 162.94L547.395 163.625L528.015 139.693L528.86 139.008Z" fill="white"/>
<path d="M1295.06 133.397L1282.65 147.137L1250.17 123.269L1267.63 103.395L1295.06 133.397Z" fill="#F0932C"/>
<path fill-rule="evenodd" clip-rule="evenodd" d="M1273.99 127.265L1289.25 140.489L1288.59 141.257L1273.33 128.034L1273.99 127.265Z" fill="white"/>
<path d="M733.076 34.0164L734.089 53.641L692.046 60.9524L690.217 32.9425L733.076 34.0164Z" fill="#D58A9F"/>
<path fill-rule="evenodd" clip-rule="evenodd" d="M733.55 43.6041L703.222 46.0268L703.157 44.9492L733.485 42.5266L733.55 43.6041Z" fill="white"/>
<path d="M598.111 133.022L582 145L552 113.422L574.778 95.9995L598.111 133.022Z" fill="#300729"/>
<path fill-rule="evenodd" clip-rule="evenodd" d="M585.111 112.777L601.778 139.444L600.836 140.033L584.169 113.366L585.111 112.777Z" fill="white"/>
<path d="M756.44 78.9197L757.915 64.1299L789.633 64.1528L787.81 85.3122L756.44 78.9197Z" fill="#950C2A"/>
<path fill-rule="evenodd" clip-rule="evenodd" d="M775.821 73.5182L757.083 71.5086L757.167 70.6963L775.905 72.7059L775.821 73.5182Z" fill="white"/>
<path d="M710.042 51.8545L722.202 38.1142L754.03 61.9824L736.922 81.8563L710.042 51.8545Z" fill="#F0932C"/>
<path fill-rule="evenodd" clip-rule="evenodd" d="M737.683 57.9865L722.73 44.7628L723.383 43.9941L738.336 57.2178L737.683 57.9865Z" fill="white"/>
<path d="M680.237 42.4485L682.634 24.2578L722.368 26.2474L719.298 52.2902L680.237 42.4485Z" fill="#F0932C"/>
<path fill-rule="evenodd" clip-rule="evenodd" d="M700.778 35.9899L680.987 33.3886L681.098 32.3862L700.889 34.9876L700.778 35.9899Z" fill="white"/>
<path d="M628.245 63.2778L640.331 78.7724L610.085 108.876L592.521 86.9813L628.245 63.2778Z" fill="#D58A9F"/>
<path fill-rule="evenodd" clip-rule="evenodd" d="M634.132 70.8599L610.679 90.2396L610.008 89.394L633.461 70.0143L634.132 70.8599Z" fill="white"/>
<path d="M775.244 29.9645L779.633 49.5546L738.583 64.1171L731.931 36.2223L775.244 29.9645Z" fill="#300729"/>
<path fill-rule="evenodd" clip-rule="evenodd" d="M754.169 44.8314L784.822 40.2351L784.966 41.3306L754.313 45.9269L754.169 44.8314Z" fill="white"/>
<path d="M522.428 135.938L520.923 150.728L488.559 150.705L490.418 129.546L522.428 135.938Z" fill="#950C2A"/>
<path fill-rule="evenodd" clip-rule="evenodd" d="M502.652 141.34L521.772 143.349L521.687 144.162L502.566 142.152L502.652 141.34Z" fill="white"/>
<path d="M713.495 54.8528L707.221 37.6105L743.384 21.0284L752.687 45.5461L713.495 54.8528Z" fill="#F0932C"/>
<path fill-rule="evenodd" clip-rule="evenodd" d="M728.732 39.6388L709.976 46.4698L709.612 45.5293L728.368 38.6982L728.732 39.6388Z" fill="white"/>
<path d="M731.278 54.7546L746.773 42.6688L776.877 72.9143L754.982 90.479L731.278 54.7546Z" fill="#D58A9F"/>
<path fill-rule="evenodd" clip-rule="evenodd" d="M738.86 48.8678L758.24 72.3211L757.395 72.9922L738.015 49.5388L738.86 48.8678Z" fill="white"/>
<path d="M618.978 115.111L607 98.9995L638.578 68.9995L656 91.7773L618.978 115.111Z" fill="#300729"/>
<path fill-rule="evenodd" clip-rule="evenodd" d="M638.578 90.1105L612.444 106.777L611.867 105.835L638.001 89.1683L638.578 90.1105Z" fill="white"/>
<path d="M806.92 88.5591L792.13 87.0842L792.153 55.3669L813.313 57.1897L806.92 88.5591Z" fill="#950C2A"/>
<path fill-rule="evenodd" clip-rule="evenodd" d="M801.519 69.1785L799.509 87.9162L798.697 87.8325L800.706 69.0949L801.519 69.1785Z" fill="white"/>
<path d="M588.003 142.984L572.509 155.317L542.405 124.454L564.3 106.531L588.003 142.984Z" fill="#D58A9F"/>
<path fill-rule="evenodd" clip-rule="evenodd" d="M580.421 148.991L561.041 125.059L561.887 124.375L581.266 148.307L580.421 148.991Z" fill="white"/>
<path d="M258.778 126L271 142.111L238.778 172.111L221 149.333L258.778 126Z" fill="#300729"/>
<path fill-rule="evenodd" clip-rule="evenodd" d="M238.778 151L265.444 134.333L266.033 135.275L239.367 151.942L238.778 151Z" fill="white"/>
<path d="M90.5719 159.92L92.0769 145.13L124.441 145.153L122.582 166.312L90.5719 159.92Z" fill="#950C2A"/>
<path fill-rule="evenodd" clip-rule="evenodd" d="M110.348 154.518L91.2281 152.509L91.3135 151.696L110.434 153.706L110.348 154.518Z" fill="white"/>
<path d="M580.615 128.959L567.115 116.506L590.35 84.148L609.874 101.671L580.615 128.959Z" fill="#F0932C"/>
<path fill-rule="evenodd" clip-rule="evenodd" d="M598.986 107.853L585.763 123.112L584.994 122.445L598.218 107.187L598.986 107.853Z" fill="white"/>
<path d="M1303.78 138L1316 154.111L1283.78 184.111L1266 161.333L1303.78 138Z" fill="#300729"/>
<path fill-rule="evenodd" clip-rule="evenodd" d="M1283.78 163L1310.44 146.333L1311.03 147.275L1284.37 163.942L1283.78 163Z" fill="white"/>
<path d="M1376.57 168.92L1378.08 154.13L1410.44 154.153L1408.58 175.312L1376.57 168.92Z" fill="#950C2A"/>
<path fill-rule="evenodd" clip-rule="evenodd" d="M1396.35 163.518L1377.23 161.509L1377.31 160.696L1396.43 162.706L1396.35 163.518Z" fill="white"/>
<path d="M261.855 136.916L248.115 124.508L271.983 92.0304L291.857 109.487L261.855 136.916Z" fill="#F0932C"/>
<path fill-rule="evenodd" clip-rule="evenodd" d="M267.986 115.853L254.763 131.112L253.994 130.445L267.218 115.187L267.986 115.853Z" fill="white"/>
<path d="M188.778 157L201 173.111L168.778 203.111L151 180.333L188.778 157Z" fill="#300729"/>
<path fill-rule="evenodd" clip-rule="evenodd" d="M168.778 182L195.444 165.333L196.033 166.275L169.367 182.942L168.778 182Z" fill="white"/>
<path d="M593.572 147.92L595.077 133.13L627.441 133.153L625.582 154.312L593.572 147.92Z" fill="#950C2A"/>
<path fill-rule="evenodd" clip-rule="evenodd" d="M613.348 142.518L594.228 140.509L594.313 139.696L613.434 141.706L613.348 142.518Z" fill="white"/>
<path d="M655.615 145.959L642.115 133.506L665.35 101.148L684.874 118.671L655.615 145.959Z" fill="#F0932C"/>
<path fill-rule="evenodd" clip-rule="evenodd" d="M673.987 124.853L660.763 140.112L659.995 139.445L673.218 124.187L673.987 124.853Z" fill="white"/>
<path d="M843.958 76.9795L831.798 90.7198L799.97 66.8516L817.078 46.9776L843.958 76.9795Z" fill="#F0932C"/>
<path fill-rule="evenodd" clip-rule="evenodd" d="M823.317 70.8475L838.27 84.0712L837.617 84.8398L822.664 71.6162L823.317 70.8475Z" fill="white"/>
<path d="M166.985 93.2778L179.317 108.772L148.454 138.876L130.531 116.981L166.985 93.2778Z" fill="#D58A9F"/>
<path fill-rule="evenodd" clip-rule="evenodd" d="M172.992 100.86L149.06 120.24L148.375 119.394L172.307 100.014L172.992 100.86Z" fill="white"/>
<path d="M305.111 176.777L289 189L259 156.777L281.778 139L305.111 176.777Z" fill="#300729"/>
<path fill-rule="evenodd" clip-rule="evenodd" d="M280.111 156.777L296.778 183.444L295.836 184.033L279.169 157.366L280.111 156.777Z" fill="white"/>
<path d="M160.572 134.92L162.077 120.13L194.441 120.153L192.582 141.312L160.572 134.92Z" fill="#950C2A"/>
<path fill-rule="evenodd" clip-rule="evenodd" d="M180.348 129.518L161.228 127.509L161.313 126.696L180.434 128.706L180.348 129.518Z" fill="white"/>
<path d="M112.084 119.854L124.492 106.114L156.969 129.982L139.512 149.856L112.084 119.854Z" fill="#F0932C"/>
<path fill-rule="evenodd" clip-rule="evenodd" d="M133.147 125.986L117.888 112.763L118.555 111.994L133.813 125.218L133.147 125.986Z" fill="white"/>
<path d="M109.084 168.854L121.492 155.114L153.969 178.982L136.512 198.856L109.084 168.854Z" fill="#F0932C"/>
<path fill-rule="evenodd" clip-rule="evenodd" d="M130.147 174.986L114.888 161.763L115.555 160.994L130.813 174.218L130.147 174.986Z" fill="white"/>
<path d="M121.985 151.278L134.317 166.772L103.454 196.876L85.5312 174.981L121.985 151.278Z" fill="#D58A9F"/>
<path fill-rule="evenodd" clip-rule="evenodd" d="M127.992 158.86L104.06 178.24L103.375 177.394L127.307 158.014L127.992 158.86Z" fill="white"/>
<path d="M306 156.222L322.111 144L352.111 176.222L329.334 194L306 156.222Z" fill="#300729"/>
<path fill-rule="evenodd" clip-rule="evenodd" d="M331 176.222L314.333 149.555L315.275 148.966L331.942 175.633L331 176.222Z" fill="white"/>
<path d="M28.4281 174.938L26.9231 189.727L-5.44148 189.705L-3.58152 168.545L28.4281 174.938Z" fill="#950C2A"/>
<path d="M178.084 121.854L190.492 108.114L222.969 131.982L205.512 151.856L178.084 121.854Z" fill="#F0932C"/>
<path fill-rule="evenodd" clip-rule="evenodd" d="M199.147 127.986L183.888 114.763L184.555 113.994L199.813 127.218L199.147 127.986Z" fill="white"/>
<path d="M268.985 142.278L281.317 157.772L250.454 187.876L232.531 165.981L268.985 142.278Z" fill="#D58A9F"/>
<path fill-rule="evenodd" clip-rule="evenodd" d="M274.992 149.86L251.06 169.24L250.375 168.394L274.307 149.014L274.992 149.86Z" fill="white"/>
<path d="M237.572 177.92L239.077 163.13L271.441 163.153L269.582 184.312L237.572 177.92Z" fill="#950C2A"/>
<path d="M221.084 167.854L233.492 154.114L265.969 177.982L248.512 197.856L221.084 167.854Z" fill="#F0932C"/>
<path fill-rule="evenodd" clip-rule="evenodd" d="M242.147 173.986L226.888 160.763L227.555 159.994L242.813 173.218L242.147 173.986Z" fill="white"/>
<path d="M257.084 135.854L269.492 122.114L301.969 145.982L284.512 165.856L257.084 135.854Z" fill="#F0932C"/>
<path fill-rule="evenodd" clip-rule="evenodd" d="M278.147 141.986L262.888 128.763L263.555 127.994L278.813 141.218L278.147 141.986Z" fill="white"/>
<path d="M357.985 142.278L370.317 157.772L339.454 187.876L321.531 165.981L357.985 142.278Z" fill="#D58A9F"/>
<path fill-rule="evenodd" clip-rule="evenodd" d="M363.992 149.86L340.06 169.24L339.375 168.394L363.307 149.014L363.992 149.86Z" fill="white"/>
<path d="M404.985 121.278L417.317 136.773L386.454 166.877L368.531 144.982L404.985 121.278Z" fill="#D58A9F"/>
<path fill-rule="evenodd" clip-rule="evenodd" d="M410.992 128.86L387.06 148.24L386.375 147.395L410.307 128.015L410.992 128.86Z" fill="white"/>
<path d="M346.084 169.854L358.492 156.114L390.969 179.982L373.512 199.856L346.084 169.854Z" fill="#F0932C"/>
<path fill-rule="evenodd" clip-rule="evenodd" d="M367.147 175.986L351.888 162.763L352.555 161.994L367.813 175.218L367.147 175.986Z" fill="white"/>
<path d="M206.741 115.832L205.315 97.3736L244.985 90.2449L247.384 116.588L206.741 115.832Z" fill="#F0932C"/>
<path fill-rule="evenodd" clip-rule="evenodd" d="M225.687 104.775L205.592 106.74L205.493 105.728L225.588 103.762L225.687 104.775Z" fill="white"/>
<path d="M900.985 118.278L913.317 133.772L882.454 163.876L864.531 141.981L900.985 118.278Z" fill="#D58A9F"/>
<path fill-rule="evenodd" clip-rule="evenodd" d="M906.992 125.86L883.06 145.24L882.375 144.394L906.307 125.014L906.992 125.86Z" fill="white"/>
<path d="M247.802 129.932L234.354 114.83L264.123 82.3942L283.633 103.707L247.802 129.932Z" fill="#300729"/>
<path fill-rule="evenodd" clip-rule="evenodd" d="M265.78 103.44L240.503 122.148L239.842 121.255L265.119 102.547L265.78 103.44Z" fill="white"/>
<path d="M213.572 144.92L215.077 130.13L247.441 130.153L245.582 151.312L213.572 144.92Z" fill="#950C2A"/>
<path fill-rule="evenodd" clip-rule="evenodd" d="M233.348 139.518L214.228 137.509L214.313 136.696L233.434 138.706L233.348 139.518Z" fill="white"/>
<path d="M703.042 59.8545L715.202 46.1142L747.03 69.9824L729.922 89.8563L703.042 59.8545Z" fill="#F0932C"/>
<path fill-rule="evenodd" clip-rule="evenodd" d="M723.683 65.9865L708.73 52.7628L709.383 51.9941L724.336 65.2178L723.683 65.9865Z" fill="white"/>
<path d="M753.042 52.8545L765.202 39.1142L797.03 62.9824L779.922 82.8563L753.042 52.8545Z" fill="#F0932C"/>
<path fill-rule="evenodd" clip-rule="evenodd" d="M780.683 58.9865L765.73 45.7628L766.383 44.9941L781.336 58.2178L780.683 58.9865Z" fill="white"/>
<path d="M243.985 85.2778L256.317 100.772L225.454 130.876L207.531 108.981L243.985 85.2778Z" fill="#D58A9F"/>
<path fill-rule="evenodd" clip-rule="evenodd" d="M249.992 92.8599L226.06 112.24L225.375 111.394L249.307 92.0143L249.992 92.8599Z" fill="white"/>
<path d="M794.978 107.111L783 90.9995L814.578 60.9995L832 83.7773L794.978 107.111Z" fill="#300729"/>
<path fill-rule="evenodd" clip-rule="evenodd" d="M814.578 82.1105L788.445 98.7772L787.868 97.835L814.001 81.1683L814.578 82.1105Z" fill="white"/>
<path d="M817.1 100.223L814.059 85.6747L844.315 76.159L848.94 96.8871L817.1 100.223Z" fill="#950C2A"/>
<path fill-rule="evenodd" clip-rule="evenodd" d="M833.96 89.2441L815.485 92.962L815.321 92.1621L833.796 88.4442L833.96 89.2441Z" fill="white"/>
<path d="M824.245 93.2778L836.331 108.772L806.085 138.876L788.521 116.981L824.245 93.2778Z" fill="#D58A9F"/>
<path fill-rule="evenodd" clip-rule="evenodd" d="M830.132 100.86L806.678 120.24L806.007 119.394L829.461 100.014L830.132 100.86Z" fill="white"/>
<path d="M1164.98 67.2778L1177.32 82.7724L1146.45 112.876L1128.53 90.9813L1164.98 67.2778Z" fill="#D58A9F"/>
<path fill-rule="evenodd" clip-rule="evenodd" d="M1170.99 74.8599L1147.06 94.2396L1146.38 93.394L1170.31 74.0143L1170.99 74.8599Z" fill="white"/>
<path d="M746.042 75.8545L758.202 62.1142L790.03 85.9824L772.922 105.856L746.042 75.8545Z" fill="#F0932C"/>
<path fill-rule="evenodd" clip-rule="evenodd" d="M766.683 81.9865L751.73 68.7628L752.383 67.9941L767.336 81.2178L766.683 81.9865Z" fill="white"/>
<path d="M592.92 121.559L578.13 120.084L578.153 88.3669L599.313 90.1897L592.92 121.559Z" fill="#950C2A"/>
<path fill-rule="evenodd" clip-rule="evenodd" d="M587.519 102.179L585.51 120.916L584.697 120.833L586.707 102.095L587.519 102.179Z" fill="white"/>
<path d="M657.245 35.2783L669.331 50.7729L639.085 80.8766L621.521 58.9818L657.245 35.2783Z" fill="#D58A9F"/>
<path fill-rule="evenodd" clip-rule="evenodd" d="M663.124 43.8457L639.671 63.2255L639 62.3799L662.453 43.0001L663.124 43.8457Z" fill="white"/>
<path d="M216.251 83.3972L217.198 103.598L173.651 110.07L171.901 81.2292L216.251 83.3972Z" fill="#300729"/>
<path fill-rule="evenodd" clip-rule="evenodd" d="M185.608 92.6721L217.025 94.0408L216.977 95.1509L185.56 93.7821L185.608 92.6721Z" fill="white"/>
<path d="M716.245 44.2778L728.331 59.7724L698.085 89.8761L680.521 67.9813L716.245 44.2778Z" fill="#D58A9F"/>
<path fill-rule="evenodd" clip-rule="evenodd" d="M722.132 51.8599L698.678 71.2396L698.007 70.394L721.461 51.0143L722.132 51.8599Z" fill="white"/>
<path d="M662.042 64.8545L674.202 51.1142L706.03 74.9824L688.922 94.8563L662.042 64.8545Z" fill="#F0932C"/>
<path fill-rule="evenodd" clip-rule="evenodd" d="M682.683 70.9865L667.73 57.7628L668.383 56.9941L683.336 70.2178L682.683 70.9865Z" fill="white"/>
<path d="M635.042 74.8545L647.202 61.1142L679.03 84.9824L661.922 104.856L635.042 74.8545Z" fill="#F0932C"/>
<path fill-rule="evenodd" clip-rule="evenodd" d="M655.683 80.9865L640.73 67.7628L641.383 66.9941L656.336 80.2178L655.683 80.9865Z" fill="white"/>
<path d="M-32.7222 156.015L-17.2276 143.682L12.8761 174.545L-9.01874 192.468L-32.7222 156.015Z" fill="#D58A9F"/>
<path d="M30.2222 170.111L18 154L50.2222 124L68 146.777L30.2222 170.111Z" fill="#300729"/>
<path fill-rule="evenodd" clip-rule="evenodd" d="M50.2224 145.111L23.5557 161.777L22.9668 160.835L49.6335 144.168L50.2224 145.111Z" fill="white"/>
<path d="M30.7871 133.466L29.308 151.921L-10.9883 152.756L-9.23725 126.362L30.7871 133.466Z" fill="#F0932C"/>
<path fill-rule="evenodd" clip-rule="evenodd" d="M10.344 141.424L30.4991 142.626L30.4385 143.642L10.2834 142.439L10.344 141.424Z" fill="white"/>
<path d="M215.003 162.984L199.509 175.317L169.405 144.454L191.3 126.531L215.003 162.984Z" fill="#D58A9F"/>
<path fill-rule="evenodd" clip-rule="evenodd" d="M207.421 168.991L188.041 145.059L188.887 144.375L208.266 168.307L207.421 168.991Z" fill="white"/>
<path d="M161.778 125L174 141.111L141.778 171.111L124 148.333L161.778 125Z" fill="#300729"/>
<path fill-rule="evenodd" clip-rule="evenodd" d="M141.778 150L168.444 133.333L169.033 134.275L142.367 150.942L141.778 150Z" fill="white"/>
<path d="M94.5719 175.92L96.0769 161.13L128.441 161.153L126.582 182.312L94.5719 175.92Z" fill="#950C2A"/>
<path fill-rule="evenodd" clip-rule="evenodd" d="M114.348 170.518L95.2281 168.509L95.3135 167.696L114.434 169.706L114.348 170.518Z" fill="white"/>
<path d="M290.855 193.916L277.115 181.508L300.983 149.03L320.857 166.487L290.855 193.916Z" fill="#F0932C"/>
<path d="M336.003 171.984L320.509 184.317L290.405 153.454L312.3 135.531L336.003 171.984Z" fill="#D58A9F"/>
<path fill-rule="evenodd" clip-rule="evenodd" d="M328.421 177.991L309.041 154.059L309.887 153.375L329.266 177.307L328.421 177.991Z" fill="white"/>
<path d="M96.7778 150L109 166.111L76.7778 196.111L59 173.333L96.7778 150Z" fill="#300729"/>
<path fill-rule="evenodd" clip-rule="evenodd" d="M76.7776 175L103.444 158.333L104.033 159.275L77.3665 175.942L76.7776 175Z" fill="white"/>
<path d="M188.572 176.92L190.077 162.13L222.441 162.153L220.582 183.312L188.572 176.92Z" fill="#950C2A"/>
<path fill-rule="evenodd" clip-rule="evenodd" d="M208.348 171.518L189.228 169.509L189.313 168.696L208.434 170.706L208.348 171.518Z" fill="white"/>
<path d="M226.855 189.916L213.115 177.508L236.983 145.03L256.857 162.487L226.855 189.916Z" fill="#F0932C"/>
<path fill-rule="evenodd" clip-rule="evenodd" d="M232.986 168.853L219.763 184.112L218.994 183.445L232.218 168.187L232.986 168.853Z" fill="white"/>
<path d="M-0.0838093 189.98L-12.4915 203.72L-44.9691 179.852L-27.5121 159.978L-0.0838093 189.98Z" fill="#F0932C"/>
<path d="M208.916 180.98L196.508 194.72L164.031 170.852L181.488 150.978L208.916 180.98Z" fill="#F0932C"/>
<path d="M249.111 168.777L233 181L203 148.777L225.778 131L249.111 168.777Z" fill="#300729"/>
<path fill-rule="evenodd" clip-rule="evenodd" d="M224.111 148.777L240.778 175.444L239.836 176.033L223.169 149.366L224.111 148.777Z" fill="white"/>
<path d="M615.338 99.773L600.342 87.5104L618.688 50.5309L640.308 67.7394L615.338 99.773Z" fill="#300729"/>
<path fill-rule="evenodd" clip-rule="evenodd" d="M624.86 70.7192L607.292 93.5186L606.521 92.769L624.089 69.9696L624.86 70.7192Z" fill="white"/>
<path d="M760.435 60.8439L753.849 47.5199L780.759 30.7317L790.426 49.6418L760.435 60.8439Z" fill="#950C2A"/>
<path fill-rule="evenodd" clip-rule="evenodd" d="M774.009 45.9929L757.054 54.2181L756.694 53.4849L773.65 45.2597L774.009 45.9929Z" fill="white"/>
<path d="M674.245 48.2778L686.331 63.7724L656.085 93.8761L638.521 71.9813L674.245 48.2778Z" fill="#D58A9F"/>
<path fill-rule="evenodd" clip-rule="evenodd" d="M680.132 55.8599L656.678 75.2396L656.007 74.394L679.461 55.0143L680.132 55.8599Z" fill="white"/>
<path d="M446.985 136.278L459.317 151.772L428.454 181.876L410.531 159.981L446.985 136.278Z" fill="#D58A9F"/>
<path fill-rule="evenodd" clip-rule="evenodd" d="M452.992 143.86L429.06 163.24L428.375 162.394L452.307 143.014L452.992 143.86Z" fill="white"/>
<path d="M1294.81 104.757L1283.59 121.081L1245.78 100.368L1261.48 76.827L1294.81 104.757Z" fill="#D58A9F"/>
<path fill-rule="evenodd" clip-rule="evenodd" d="M1289.31 112.719L1263.78 95.4987L1264.39 94.5967L1289.92 111.817L1289.31 112.719Z" fill="white"/>
<path d="M1173.78 77.3078L1186 93.4189L1153.78 123.419L1136 100.641L1173.78 77.3078Z" fill="#300729"/>
<path fill-rule="evenodd" clip-rule="evenodd" d="M1153.78 102.308L1180.44 85.6413L1181.03 86.5835L1154.37 103.25L1153.78 102.308Z" fill="white"/>
<path d="M1221.52 62.1086L1223.51 76.841L1192.03 84.3741L1188.9 63.3652L1221.52 62.1086Z" fill="#950C2A"/>
<path fill-rule="evenodd" clip-rule="evenodd" d="M1203.55 71.9774L1222.61 69.468L1222.71 70.2778L1203.65 72.7872L1203.55 71.9774Z" fill="white"/>
<path d="M1204.57 121.228L1206.08 106.438L1238.44 106.461L1236.58 127.62L1204.57 121.228Z" fill="#950C2A"/>
<path fill-rule="evenodd" clip-rule="evenodd" d="M1224.35 115.826L1205.23 113.817L1205.31 113.004L1224.43 115.014L1224.35 115.826Z" fill="white"/>
<path d="M1253 109.53L1269.11 97.3076L1299.11 129.53L1276.33 147.308L1253 109.53Z" fill="#300729"/>
<path fill-rule="evenodd" clip-rule="evenodd" d="M1278 129.53L1261.33 102.863L1262.28 102.274L1278.94 128.941L1278 129.53Z" fill="white"/>
<path d="M1452.43 145.246L1450.92 160.036L1418.56 160.013L1420.42 138.853L1452.43 145.246Z" fill="#950C2A"/>
<path fill-rule="evenodd" clip-rule="evenodd" d="M1432.65 150.647L1451.77 152.657L1451.69 153.469L1432.57 151.46L1432.65 150.647Z" fill="white"/>
<path d="M1055.98 136.586L1068.32 152.081L1037.45 182.184L1019.53 160.289L1055.98 136.586Z" fill="#D58A9F"/>
<path fill-rule="evenodd" clip-rule="evenodd" d="M1061.99 144.168L1038.06 163.548L1037.38 162.702L1061.31 143.322L1061.99 144.168Z" fill="white"/>
<path d="M1126.11 147.085L1110 159.308L1080 127.085L1102.78 109.308L1126.11 147.085Z" fill="#300729"/>
<path fill-rule="evenodd" clip-rule="evenodd" d="M1101.11 127.085L1117.78 153.752L1116.84 154.341L1100.17 127.674L1101.11 127.085Z" fill="white"/>
<path d="M1013.57 149.228L1015.08 134.438L1047.44 134.461L1045.58 155.62L1013.57 149.228Z" fill="#950C2A"/>
<path fill-rule="evenodd" clip-rule="evenodd" d="M1033.35 143.826L1014.23 141.817L1014.31 141.004L1033.43 143.014L1033.35 143.826Z" fill="white"/>
<path d="M978.084 147.163L990.492 133.422L1022.97 157.291L1005.51 177.164L978.084 147.163Z" fill="#F0932C"/>
<path fill-rule="evenodd" clip-rule="evenodd" d="M999.146 153.295L983.888 140.071L984.554 139.302L999.812 152.526L999.146 153.295Z" fill="white"/>
<path d="M1048.08 135.163L1060.49 121.422L1092.97 145.291L1075.51 165.164L1048.08 135.163Z" fill="#F0932C"/>
<path fill-rule="evenodd" clip-rule="evenodd" d="M1069.15 141.295L1053.89 128.071L1054.55 127.302L1069.81 140.526L1069.15 141.295Z" fill="white"/>
<path d="M1154.98 131.586L1167.32 147.081L1136.45 177.184L1118.53 155.289L1154.98 131.586Z" fill="#D58A9F"/>
<path fill-rule="evenodd" clip-rule="evenodd" d="M1160.99 139.168L1137.06 158.548L1136.38 157.702L1160.31 138.322L1160.99 139.168Z" fill="white"/>
<path d="M1052.99 143.79L1047.3 126.174L1084.21 109.982L1092.69 135.037L1052.99 143.79Z" fill="#F0932C"/>
<path fill-rule="evenodd" clip-rule="evenodd" d="M1068.83 128.615L1049.75 135.217L1049.42 134.256L1068.5 127.654L1068.83 128.615Z" fill="white"/>
<path d="M1171.28 90.323L1186.77 77.9906L1216.88 108.853L1194.98 126.776L1171.28 90.323Z" fill="#D58A9F"/>
<path fill-rule="evenodd" clip-rule="evenodd" d="M1178.86 84.3159L1198.24 108.248L1197.39 108.933L1178.01 85.0006L1178.86 84.3159Z" fill="white"/>
<path d="M1049.36 164.901L1041.51 183.542L999.422 170.636L1010.26 143.851L1049.36 164.901Z" fill="#300729"/>
<path fill-rule="evenodd" clip-rule="evenodd" d="M1017.7 160.08L1045.47 174.841L1044.95 175.822L1017.18 161.062L1017.7 160.08Z" fill="white"/>
<path d="M1324.92 154.736L1310.13 153.231L1310.15 120.866L1331.31 122.726L1324.92 154.736Z" fill="#950C2A"/>
<path fill-rule="evenodd" clip-rule="evenodd" d="M1319.52 134.959L1317.51 154.08L1316.7 153.994L1318.71 134.874L1319.52 134.959Z" fill="white"/>
<path d="M1326.92 129.288L1314.51 143.028L1282.03 119.16L1299.49 99.2857L1326.92 129.288Z" fill="#F0932C"/>
<path fill-rule="evenodd" clip-rule="evenodd" d="M1305.85 123.156L1321.11 136.379L1320.45 137.148L1305.19 123.924L1305.85 123.156Z" fill="white"/>
<path d="M1257 116.292L1241.51 128.625L1211.4 97.7619L1233.3 79.8388L1257 116.292Z" fill="#D58A9F"/>
<path fill-rule="evenodd" clip-rule="evenodd" d="M1249.42 122.299L1230.04 98.3674L1230.89 97.6826L1250.27 121.615L1249.42 122.299Z" fill="white"/>
<path d="M1409.78 120.308L1422 136.419L1389.78 166.419L1372 143.641L1409.78 120.308Z" fill="#300729"/>
<path fill-rule="evenodd" clip-rule="evenodd" d="M1389.78 145.308L1416.44 128.641L1417.03 129.583L1390.37 146.25L1389.78 145.308Z" fill="white"/>
<path d="M1334.57 158.228L1336.08 143.438L1368.44 143.461L1366.58 164.62L1334.57 158.228Z" fill="#950C2A"/>
<path fill-rule="evenodd" clip-rule="evenodd" d="M1354.35 152.826L1335.23 150.817L1335.31 150.004L1354.43 152.014L1354.35 152.826Z" fill="white"/>
<path d="M1259.83 65.3695L1259.16 83.8707L1218.94 86.4628L1219.53 60.0173L1259.83 65.3695Z" fill="#F0932C"/>
<path fill-rule="evenodd" clip-rule="evenodd" d="M1239.75 74.2105L1259.94 74.5327L1259.93 75.5498L1239.74 75.2276L1239.75 74.2105Z" fill="white"/>
<path d="M1440.85 167.224L1427.11 154.816L1450.98 122.338L1470.86 139.795L1440.85 167.224Z" fill="#F0932C"/>
<path fill-rule="evenodd" clip-rule="evenodd" d="M1446.99 146.162L1433.76 161.42L1432.99 160.753L1446.22 145.495L1446.99 146.162Z" fill="white"/>
<path d="M1385.92 150.288L1373.51 164.028L1341.03 140.16L1358.49 120.286L1385.92 150.288Z" fill="#F0932C"/>
<path fill-rule="evenodd" clip-rule="evenodd" d="M1364.85 144.156L1380.11 157.379L1379.45 158.148L1364.19 144.924L1364.85 144.156Z" fill="white"/>
<path d="M1240.78 113.308L1253 129.419L1220.78 159.419L1203 136.641L1240.78 113.308Z" fill="#300729"/>
<path fill-rule="evenodd" clip-rule="evenodd" d="M1220.78 138.308L1247.44 121.641L1248.03 122.583L1221.37 139.25L1220.78 138.308Z" fill="white"/>
<path d="M1170.78 144.308L1183 160.419L1150.78 190.419L1133 167.641L1170.78 144.308Z" fill="#300729"/>
<path fill-rule="evenodd" clip-rule="evenodd" d="M1150.78 169.308L1177.44 152.641L1178.03 153.583L1151.37 170.25L1150.78 169.308Z" fill="white"/>
<path d="M1148.98 80.5859L1161.32 96.0805L1130.45 126.184L1112.53 104.289L1148.98 80.5859Z" fill="#D58A9F"/>
<path fill-rule="evenodd" clip-rule="evenodd" d="M1154.99 88.168L1131.06 107.548L1130.38 106.702L1154.31 87.3224L1154.99 88.168Z" fill="white"/>
<path d="M1287.11 164.085L1271 176.308L1241 144.085L1263.78 126.308L1287.11 164.085Z" fill="#300729"/>
<path fill-rule="evenodd" clip-rule="evenodd" d="M1262.11 144.085L1278.78 170.752L1277.84 171.341L1261.17 144.674L1262.11 144.085Z" fill="white"/>
<path d="M1142.57 122.228L1144.08 107.438L1176.44 107.461L1174.58 128.62L1142.57 122.228Z" fill="#950C2A"/>
<path fill-rule="evenodd" clip-rule="evenodd" d="M1162.35 116.826L1143.23 114.817L1143.31 114.004L1162.43 116.014L1162.35 116.826Z" fill="white"/>
<path d="M1094.08 107.163L1106.49 93.4223L1138.97 117.291L1121.51 137.164L1094.08 107.163Z" fill="#F0932C"/>
<path fill-rule="evenodd" clip-rule="evenodd" d="M1115.15 113.295L1099.89 100.071L1100.55 99.3022L1115.81 112.526L1115.15 113.295Z" fill="white"/>
<path d="M1091.08 156.163L1103.49 142.422L1135.97 166.291L1118.51 186.164L1091.08 156.163Z" fill="#F0932C"/>
<path fill-rule="evenodd" clip-rule="evenodd" d="M1112.15 162.295L1096.89 149.071L1097.55 148.302L1112.81 161.526L1112.15 162.295Z" fill="white"/>
<path d="M1103.98 138.586L1116.32 154.081L1085.45 184.184L1067.53 162.289L1103.98 138.586Z" fill="#D58A9F"/>
<path fill-rule="evenodd" clip-rule="evenodd" d="M1109.99 146.168L1086.06 165.548L1085.38 164.702L1109.31 145.322L1109.99 146.168Z" fill="white"/>
<path d="M1288 143.53L1304.11 131.308L1334.11 163.53L1311.33 181.308L1288 143.53Z" fill="#300729"/>
<path fill-rule="evenodd" clip-rule="evenodd" d="M1313 163.53L1296.33 136.863L1297.28 136.274L1313.94 162.941L1313 163.53Z" fill="white"/>
<path d="M1010.43 162.246L1008.92 177.036L976.559 177.013L978.418 155.853L1010.43 162.246Z" fill="#950C2A"/>
<path fill-rule="evenodd" clip-rule="evenodd" d="M990.652 167.647L1009.77 169.657L1009.69 170.469L990.566 168.46L990.652 167.647Z" fill="white"/>
<path d="M1160.08 109.163L1172.49 95.4223L1204.97 119.291L1187.51 139.164L1160.08 109.163Z" fill="#F0932C"/>
<path fill-rule="evenodd" clip-rule="evenodd" d="M1181.15 115.295L1165.89 102.071L1166.55 101.302L1181.81 114.526L1181.15 115.295Z" fill="white"/>
<path d="M1250.98 129.586L1263.32 145.081L1232.45 175.184L1214.53 153.289L1250.98 129.586Z" fill="#D58A9F"/>
<path fill-rule="evenodd" clip-rule="evenodd" d="M1256.99 137.168L1233.06 156.548L1232.38 155.702L1256.31 136.322L1256.99 137.168Z" fill="white"/>
<path d="M1219.57 165.228L1221.08 150.438L1253.44 150.461L1251.58 171.62L1219.57 165.228Z" fill="#950C2A"/>
<path fill-rule="evenodd" clip-rule="evenodd" d="M1239.35 159.826L1220.23 157.817L1220.31 157.004L1239.43 159.014L1239.35 159.826Z" fill="white"/>
<path d="M1203.08 155.163L1215.49 141.422L1247.97 165.291L1230.51 185.164L1203.08 155.163Z" fill="#F0932C"/>
<path fill-rule="evenodd" clip-rule="evenodd" d="M1224.15 161.295L1208.89 148.071L1209.55 147.302L1224.81 160.526L1224.15 161.295Z" fill="white"/>
<path d="M1239.08 123.163L1251.49 109.422L1283.97 133.291L1266.51 153.164L1239.08 123.163Z" fill="#F0932C"/>
<path fill-rule="evenodd" clip-rule="evenodd" d="M1260.15 129.295L1244.89 116.071L1245.55 115.302L1260.81 128.526L1260.15 129.295Z" fill="white"/>
<path d="M1339.98 129.586L1352.32 145.081L1321.45 175.184L1303.53 153.289L1339.98 129.586Z" fill="#D58A9F"/>
<path fill-rule="evenodd" clip-rule="evenodd" d="M1345.99 137.168L1322.06 156.548L1321.38 155.702L1345.31 136.322L1345.99 137.168Z" fill="white"/>
<path d="M1328.08 157.163L1340.49 143.422L1372.97 167.291L1355.51 187.164L1328.08 157.163Z" fill="#F0932C"/>
<path fill-rule="evenodd" clip-rule="evenodd" d="M1349.15 163.295L1333.89 150.071L1334.55 149.302L1349.81 162.526L1349.15 163.295Z" fill="white"/>
<path d="M1188.74 103.14L1187.32 84.6817L1226.98 77.553L1229.38 103.896L1188.74 103.14Z" fill="#F0932C"/>
<path fill-rule="evenodd" clip-rule="evenodd" d="M1207.69 92.0828L1187.59 94.048L1187.49 93.0356L1207.59 91.0704L1207.69 92.0828Z" fill="white"/>
<path d="M1229.8 117.24L1216.35 102.138L1246.12 69.7023L1265.63 91.0151L1229.8 117.24Z" fill="#300729"/>
<path fill-rule="evenodd" clip-rule="evenodd" d="M1247.78 90.7486L1222.5 109.456L1221.84 108.563L1247.12 89.8555L1247.78 90.7486Z" fill="white"/>
<path d="M1198.25 70.7053L1199.2 90.9056L1155.65 97.3785L1153.9 68.5373L1198.25 70.7053Z" fill="#300729"/>
<path fill-rule="evenodd" clip-rule="evenodd" d="M1167.61 79.9802L1199.02 81.3489L1198.98 82.459L1167.56 81.0903L1167.61 79.9802Z" fill="white"/>
<path d="M949.278 143.323L964.773 130.991L994.877 161.853L972.982 179.776L949.278 143.323Z" fill="#D58A9F"/>
<path fill-rule="evenodd" clip-rule="evenodd" d="M956.86 137.316L976.24 161.248L975.395 161.933L956.015 138.001L956.86 137.316Z" fill="white"/>
<path d="M1012.22 157.419L1000 141.308L1032.22 111.308L1050 134.085L1012.22 157.419Z" fill="#300729"/>
<path fill-rule="evenodd" clip-rule="evenodd" d="M1032.22 132.419L1005.56 149.085L1004.97 148.143L1031.63 131.476L1032.22 132.419Z" fill="white"/>
<path d="M955.92 173.736L941.13 172.231L941.153 139.866L962.313 141.726L955.92 173.736Z" fill="#950C2A"/>
<path fill-rule="evenodd" clip-rule="evenodd" d="M950.519 153.959L948.509 173.08L947.697 172.994L949.706 153.874L950.519 153.959Z" fill="white"/>
<path d="M1197 150.292L1181.51 162.625L1151.4 131.762L1173.3 113.839L1197 150.292Z" fill="#D58A9F"/>
<path fill-rule="evenodd" clip-rule="evenodd" d="M1189.42 156.299L1170.04 132.367L1170.89 131.683L1190.27 155.615L1189.42 156.299Z" fill="white"/>
<path d="M1143.78 112.308L1156 128.419L1123.78 158.419L1106 135.641L1143.78 112.308Z" fill="#300729"/>
<path fill-rule="evenodd" clip-rule="evenodd" d="M1123.78 137.308L1150.44 120.641L1151.03 121.583L1124.37 138.25L1123.78 137.308Z" fill="white"/>
<path d="M1076.57 163.228L1078.08 148.438L1110.44 148.461L1108.58 169.62L1076.57 163.228Z" fill="#950C2A"/>
<path fill-rule="evenodd" clip-rule="evenodd" d="M1096.35 157.826L1077.23 155.817L1077.31 155.004L1096.43 157.014L1096.35 157.826Z" fill="white"/>
<path d="M1272.85 181.224L1259.11 168.816L1282.98 136.338L1302.86 153.795L1272.85 181.224Z" fill="#F0932C"/>
<path fill-rule="evenodd" clip-rule="evenodd" d="M1278.99 160.162L1265.76 175.42L1264.99 174.753L1278.22 159.495L1278.99 160.162Z" fill="white"/>
<path d="M1318 159.292L1302.51 171.625L1272.4 140.762L1294.3 122.839L1318 159.292Z" fill="#D58A9F"/>
<path fill-rule="evenodd" clip-rule="evenodd" d="M1310.42 165.299L1291.04 141.367L1291.89 140.683L1311.27 164.615L1310.42 165.299Z" fill="white"/>
<path d="M1078.78 137.308L1091 153.419L1058.78 183.419L1041 160.641L1078.78 137.308Z" fill="#300729"/>
<path fill-rule="evenodd" clip-rule="evenodd" d="M1058.78 162.308L1085.44 145.641L1086.03 146.583L1059.37 163.25L1058.78 162.308Z" fill="white"/>
<path d="M1170.57 164.228L1172.08 149.438L1204.44 149.461L1202.58 170.62L1170.57 164.228Z" fill="#950C2A"/>
<path fill-rule="evenodd" clip-rule="evenodd" d="M1190.35 158.826L1171.23 156.817L1171.31 156.004L1190.43 158.014L1190.35 158.826Z" fill="white"/>
<path d="M1208.85 177.224L1195.11 164.816L1218.98 132.338L1238.86 149.795L1208.85 177.224Z" fill="#F0932C"/>
<path fill-rule="evenodd" clip-rule="evenodd" d="M1214.99 156.162L1201.76 171.42L1200.99 170.753L1214.22 155.495L1214.99 156.162Z" fill="white"/>
<path d="M981.916 177.288L969.508 191.028L937.031 167.16L954.488 147.286L981.916 177.288Z" fill="#F0932C"/>
<path d="M1190.92 168.288L1178.51 182.028L1146.03 158.16L1163.49 138.286L1190.92 168.288Z" fill="#F0932C"/>
<path fill-rule="evenodd" clip-rule="evenodd" d="M1169.85 162.156L1185.11 175.379L1184.45 176.148L1169.19 162.924L1169.85 162.156Z" fill="white"/>
<path d="M1231.11 156.085L1215 168.308L1185 136.085L1207.78 118.308L1231.11 156.085Z" fill="#300729"/>
<path fill-rule="evenodd" clip-rule="evenodd" d="M1206.11 136.085L1222.78 162.752L1221.84 163.341L1205.17 136.674L1206.11 136.085Z" fill="white"/>
<path d="M1428.98 123.586L1441.32 139.081L1410.45 169.184L1392.53 147.289L1428.98 123.586Z" fill="#D58A9F"/>
<path fill-rule="evenodd" clip-rule="evenodd" d="M1434.99 131.168L1411.06 150.548L1410.38 149.702L1434.31 130.322L1434.99 131.168Z" fill="white"/>
<path d="M797.59 110.05L786.306 126.138L748.674 106.015L764.477 82.8166L797.59 110.05Z" fill="#D58A9F"/>
<path fill-rule="evenodd" clip-rule="evenodd" d="M792.06 117.897L766.67 101.134L767.283 100.245L792.673 117.008L792.06 117.897Z" fill="white"/>
<path d="M677.022 83.3078L689 99.4189L657.422 129.419L640 106.641L677.022 83.3078Z" fill="#300729"/>
<path fill-rule="evenodd" clip-rule="evenodd" d="M657.422 108.308L683.555 91.6413L684.132 92.5835L657.999 109.25L657.422 108.308Z" fill="white"/>
<path d="M724.644 68.0779L726.663 82.8033L695.817 90.1853L692.649 69.1851L724.644 68.0779Z" fill="#950C2A"/>
<path fill-rule="evenodd" clip-rule="evenodd" d="M707.06 77.8544L725.749 75.4342L725.857 76.2437L707.168 78.6638L707.06 77.8544Z" fill="white"/>
<path d="M898.805 115.919L900.823 130.644L869.977 138.026L866.81 117.026L898.805 115.919Z" fill="#950C2A"/>
<path fill-rule="evenodd" clip-rule="evenodd" d="M881.22 125.695L899.909 123.275L900.018 124.084L881.329 126.505L881.22 125.695Z" fill="white"/>
<path d="M719.572 127.228L721.077 112.438L753.441 112.461L751.582 133.62L719.572 127.228Z" fill="#950C2A"/>
<path fill-rule="evenodd" clip-rule="evenodd" d="M739.348 121.826L720.228 119.817L720.313 119.004L739.434 121.014L739.348 121.826Z" fill="white"/>
<path d="M756 115.285L772.111 103.308L802.111 134.885L779.334 152.308L756 115.285Z" fill="#300729"/>
<path fill-rule="evenodd" clip-rule="evenodd" d="M793 135.53L776.334 108.863L777.276 108.274L793.943 134.941L793 135.53Z" fill="white"/>
<path d="M967.428 151.246L965.923 166.036L933.559 166.013L935.418 144.853L967.428 151.246Z" fill="#950C2A"/>
<path fill-rule="evenodd" clip-rule="evenodd" d="M947.652 156.647L966.772 158.657L966.687 159.469L947.566 157.46L947.652 156.647Z" fill="white"/>
<path d="M570.985 142.586L583.317 158.081L552.454 188.184L534.531 166.289L570.985 142.586Z" fill="#D58A9F"/>
<path fill-rule="evenodd" clip-rule="evenodd" d="M576.992 150.168L553.06 169.548L552.375 168.702L576.307 149.322L576.992 150.168Z" fill="white"/>
<path d="M641.111 153.085L625 165.308L595 133.085L617.778 115.308L641.111 153.085Z" fill="#300729"/>
<path fill-rule="evenodd" clip-rule="evenodd" d="M616.111 133.085L632.778 159.752L631.835 160.341L615.169 133.674L616.111 133.085Z" fill="white"/>
<path d="M528.572 155.228L530.077 140.438L562.441 140.461L560.582 161.62L528.572 155.228Z" fill="#950C2A"/>
<path fill-rule="evenodd" clip-rule="evenodd" d="M548.348 149.826L529.228 147.817L529.313 147.004L548.434 149.014L548.348 149.826Z" fill="white"/>
<path d="M493.084 153.163L505.492 139.422L537.969 163.291L520.512 183.164L493.084 153.163Z" fill="#F0932C"/>
<path fill-rule="evenodd" clip-rule="evenodd" d="M514.147 159.295L498.888 146.071L499.555 145.302L514.813 158.526L514.147 159.295Z" fill="white"/>
<path d="M563.084 141.163L575.492 127.422L607.969 151.291L590.512 171.164L563.084 141.163Z" fill="#F0932C"/>
<path fill-rule="evenodd" clip-rule="evenodd" d="M584.147 147.295L568.888 134.071L569.555 133.302L584.813 146.526L584.147 147.295Z" fill="white"/>
<path d="M669.985 137.586L682.317 153.081L651.454 183.184L633.531 161.289L669.985 137.586Z" fill="#D58A9F"/>
<path fill-rule="evenodd" clip-rule="evenodd" d="M675.992 145.168L652.06 164.548L651.375 163.702L675.307 144.322L675.992 145.168Z" fill="white"/>
<path d="M567.991 149.79L562.296 132.174L599.205 115.982L607.688 141.037L567.991 149.79Z" fill="#F0932C"/>
<path fill-rule="evenodd" clip-rule="evenodd" d="M583.834 134.615L564.753 141.217L564.42 140.256L583.501 133.654L583.834 134.615Z" fill="white"/>
<path d="M406.89 152.659L408.691 134.233L448.996 134.101L446.784 160.461L406.89 152.659Z" fill="#F0932C"/>
<path fill-rule="evenodd" clip-rule="evenodd" d="M427.469 145.059L407.338 143.505L407.416 142.491L427.547 144.045L427.469 145.059Z" fill="white"/>
<path d="M674.278 97.0627L689.773 84.9769L719.877 115.222L697.982 132.787L674.278 97.0627Z" fill="#D58A9F"/>
<path fill-rule="evenodd" clip-rule="evenodd" d="M681.86 91.1759L701.24 114.629L700.395 115.3L681.015 91.8469L681.86 91.1759Z" fill="white"/>
<path d="M564.355 170.901L556.514 189.542L514.422 176.636L525.259 149.851L564.355 170.901Z" fill="#300729"/>
<path fill-rule="evenodd" clip-rule="evenodd" d="M532.705 166.08L560.472 180.841L559.95 181.822L532.183 167.062L532.705 166.08Z" fill="white"/>
<path d="M839.92 160.736L825.13 159.231L825.153 126.866L846.313 128.726L839.92 160.736Z" fill="#950C2A"/>
<path fill-rule="evenodd" clip-rule="evenodd" d="M834.519 140.959L832.509 160.08L831.697 159.994L833.706 140.874L834.519 140.959Z" fill="white"/>
<path d="M836.961 135.528L824.508 149.028L792.15 125.793L809.673 106.268L836.961 135.528Z" fill="#F0932C"/>
<path fill-rule="evenodd" clip-rule="evenodd" d="M816.666 128L831.924 141.223L831.258 141.992L816 128.769L816.666 128Z" fill="white"/>
<path d="M760.003 121.553L744.508 133.638L714.405 103.393L736.299 85.8282L760.003 121.553Z" fill="#D58A9F"/>
<path fill-rule="evenodd" clip-rule="evenodd" d="M752.421 127.439L733.041 103.986L733.887 103.315L753.266 126.768L752.421 127.439Z" fill="white"/>
<path d="M924.778 126.308L937 142.419L904.778 172.419L887 149.641L924.778 126.308Z" fill="#300729"/>
<path fill-rule="evenodd" clip-rule="evenodd" d="M904.778 151.308L931.444 134.641L932.033 135.583L905.367 152.25L904.778 151.308Z" fill="white"/>
<path d="M849.572 164.228L851.077 149.438L883.441 149.461L881.582 170.62L849.572 164.228Z" fill="#950C2A"/>
<path fill-rule="evenodd" clip-rule="evenodd" d="M869.348 158.826L850.228 156.817L850.313 156.004L869.434 158.014L869.348 158.826Z" fill="white"/>
<path d="M762.863 71.3427L762.38 89.6844L722.656 91.859L722.987 65.6379L762.863 71.3427Z" fill="#F0932C"/>
<path fill-rule="evenodd" clip-rule="evenodd" d="M743.109 79.9131L763.064 80.4314L763.058 81.4399L743.103 80.9216L743.109 79.9131Z" fill="white"/>
<path d="M955.855 173.224L942.115 160.816L965.983 128.338L985.857 145.795L955.855 173.224Z" fill="#F0932C"/>
<path fill-rule="evenodd" clip-rule="evenodd" d="M961.987 152.162L948.763 167.42L947.995 166.753L961.218 151.495L961.987 152.162Z" fill="white"/>
<path d="M900.916 156.288L888.508 170.028L856.031 146.16L873.488 126.286L900.916 156.288Z" fill="#F0932C"/>
<path fill-rule="evenodd" clip-rule="evenodd" d="M879.854 150.156L895.112 163.379L894.446 164.148L879.188 150.924L879.854 150.156Z" fill="white"/>
<path d="M1018.28 138.323L1033.77 125.991L1063.88 156.853L1041.98 174.776L1018.28 138.323Z" fill="#D58A9F"/>
<path fill-rule="evenodd" clip-rule="evenodd" d="M1025.86 132.316L1045.24 156.248L1044.39 156.933L1025.01 133.001L1025.86 132.316Z" fill="white"/>
<path d="M755.778 119.308L768 135.419L735.778 165.419L718 142.641L755.778 119.308Z" fill="#300729"/>
<path fill-rule="evenodd" clip-rule="evenodd" d="M735.778 144.308L762.444 127.641L763.033 128.583L736.367 145.25L735.778 144.308Z" fill="white"/>
<path d="M685.778 150.308L698 166.419L665.778 196.419L648 173.641L685.778 150.308Z" fill="#300729"/>
<path fill-rule="evenodd" clip-rule="evenodd" d="M665.778 175.308L692.444 158.641L693.033 159.583L666.367 176.25L665.778 175.308Z" fill="white"/>
<path d="M651.245 86.5859L663.331 102.081L633.085 132.184L615.521 110.289L651.245 86.5859Z" fill="#D58A9F"/>
<path fill-rule="evenodd" clip-rule="evenodd" d="M657.132 94.168L633.678 113.548L633.007 112.702L656.461 93.3224L657.132 94.168Z" fill="white"/>
<path d="M802.111 170.085L786 182.308L756 150.085L778.778 132.308L802.111 170.085Z" fill="#300729"/>
<path fill-rule="evenodd" clip-rule="evenodd" d="M777.111 150.085L793.778 176.752L792.835 177.341L776.169 150.674L777.111 150.085Z" fill="white"/>
<path d="M657.572 128.228L659.077 113.438L691.441 113.461L689.582 134.62L657.572 128.228Z" fill="#950C2A"/>
<path fill-rule="evenodd" clip-rule="evenodd" d="M677.348 122.826L658.228 120.817L658.313 120.004L677.434 122.014L677.348 122.826Z" fill="white"/>
<path d="M597.042 113.163L609.202 99.4223L641.03 123.291L623.922 143.164L597.042 113.163Z" fill="#F0932C"/>
<path fill-rule="evenodd" clip-rule="evenodd" d="M615.953 117.992L601 104.769L601.653 104L616.606 117.224L615.953 117.992Z" fill="white"/>
<path d="M606.084 162.163L618.492 148.422L650.969 172.291L633.512 192.164L606.084 162.163Z" fill="#F0932C"/>
<path fill-rule="evenodd" clip-rule="evenodd" d="M627.147 168.295L611.888 155.071L612.555 154.302L627.813 167.526L627.147 168.295Z" fill="white"/>
<path d="M618.985 144.586L631.317 160.081L600.454 190.184L582.531 168.289L618.985 144.586Z" fill="#D58A9F"/>
<path fill-rule="evenodd" clip-rule="evenodd" d="M624.992 152.168L601.06 171.548L600.375 170.702L624.307 151.322L624.992 152.168Z" fill="white"/>
<path d="M803 149.53L819.111 137.308L849.111 169.53L826.334 187.308L803 149.53Z" fill="#300729"/>
<path fill-rule="evenodd" clip-rule="evenodd" d="M828 169.53L811.334 142.863L812.276 142.274L828.943 168.941L828 169.53Z" fill="white"/>
<path d="M525.428 168.246L523.923 183.036L491.559 183.013L493.418 161.853L525.428 168.246Z" fill="#950C2A"/>
<path d="M663.042 114.922L675.495 101.422L707.853 124.657L690.329 144.182L663.042 114.922Z" fill="#F0932C"/>
<path fill-rule="evenodd" clip-rule="evenodd" d="M684.092 122.063L668.834 108.839L669.5 108.071L684.758 121.294L684.092 122.063Z" fill="white"/>
<path d="M765.985 135.586L778.317 151.081L747.454 181.184L729.531 159.289L765.985 135.586Z" fill="#D58A9F"/>
<path fill-rule="evenodd" clip-rule="evenodd" d="M771.992 143.168L748.06 162.548L747.375 161.702L771.307 142.322L771.992 143.168Z" fill="white"/>
<path d="M734.572 171.228L736.077 156.438L768.441 156.461L766.582 177.62L734.572 171.228Z" fill="#950C2A"/>
<path fill-rule="evenodd" clip-rule="evenodd" d="M754.348 165.826L735.228 163.817L735.313 163.004L754.434 165.014L754.348 165.826Z" fill="white"/>
<path d="M718.084 161.163L730.492 147.422L762.969 171.291L745.512 191.164L718.084 161.163Z" fill="#F0932C"/>
<path fill-rule="evenodd" clip-rule="evenodd" d="M739.146 167.295L723.888 154.071L724.554 153.302L739.812 166.526L739.146 167.295Z" fill="white"/>
<path d="M754.084 129.163L766.492 115.422L798.969 139.291L781.512 159.164L754.084 129.163Z" fill="#F0932C"/>
<path fill-rule="evenodd" clip-rule="evenodd" d="M775.146 135.295L759.888 122.071L760.554 121.302L775.812 134.526L775.146 135.295Z" fill="white"/>
<path d="M854.985 135.586L867.317 151.081L836.454 181.184L818.531 159.289L854.985 135.586Z" fill="#D58A9F"/>
<path fill-rule="evenodd" clip-rule="evenodd" d="M860.992 143.168L837.06 162.548L836.375 161.702L860.307 142.322L860.992 143.168Z" fill="white"/>
<path d="M843.084 163.163L855.492 149.422L887.969 173.291L870.512 193.164L843.084 163.163Z" fill="#F0932C"/>
<path fill-rule="evenodd" clip-rule="evenodd" d="M864.146 169.295L848.888 156.071L849.554 155.302L864.812 168.526L864.146 169.295Z" fill="white"/>
<path d="M691.713 109.17L690.116 90.8918L729.338 84.2343L731.978 110.324L691.713 109.17Z" fill="#F0932C"/>
<path fill-rule="evenodd" clip-rule="evenodd" d="M710.369 98.4185L690.484 100.162L690.375 99.1597L710.261 97.4158L710.369 98.4185Z" fill="white"/>
<path d="M732.559 123.26L719.354 108.138L748.48 75.7529L767.636 97.0935L732.559 123.26Z" fill="#300729"/>
<path fill-rule="evenodd" clip-rule="evenodd" d="M750.394 96.8939L725.649 115.56L725 114.666L749.745 95.9998L750.394 96.8939Z" fill="white"/>
<path d="M701.452 76.8437L702.198 96.9056L659.182 103.744L657.725 75.1037L701.452 76.8437Z" fill="#300729"/>
<path fill-rule="evenodd" clip-rule="evenodd" d="M671.139 86.3451L702.117 87.4117L702.059 88.5151L671.081 87.4485L671.139 86.3451Z" fill="white"/>
<path d="M464.278 149.323L479.772 136.991L509.876 167.853L487.981 185.776L464.278 149.323Z" fill="#D58A9F"/>
<path fill-rule="evenodd" clip-rule="evenodd" d="M471.86 143.316L491.24 167.248L490.395 167.933L471.015 144.001L471.86 143.316Z" fill="white"/>
<path d="M527.222 163.419L515 147.308L547.222 117.308L565 140.085L527.222 163.419Z" fill="#300729"/>
<path fill-rule="evenodd" clip-rule="evenodd" d="M547.222 138.419L520.556 155.085L519.967 154.143L546.633 137.476L547.222 138.419Z" fill="white"/>
<path d="M470.92 179.736L456.13 178.231L456.153 145.866L477.313 147.726L470.92 179.736Z" fill="#950C2A"/>
<path fill-rule="evenodd" clip-rule="evenodd" d="M465.519 159.959L463.51 179.08L462.697 178.994L464.707 159.874L465.519 159.959Z" fill="white"/>
<path d="M708.003 154.985L692.508 167.317L662.405 136.454L684.3 118.531L708.003 154.985Z" fill="#D58A9F"/>
<path fill-rule="evenodd" clip-rule="evenodd" d="M704.421 162.299L685.041 138.367L685.887 137.683L705.266 161.615L704.421 162.299Z" fill="white"/>
<path d="M728.003 147.985L712.508 160.317L682.405 129.454L704.3 111.531L728.003 147.985Z" fill="#D58A9F"/>
<path fill-rule="evenodd" clip-rule="evenodd" d="M720.421 153.992L701.041 130.06L701.887 129.375L721.266 153.307L720.421 153.992Z" fill="white"/>
<path d="M658.778 118.308L671 134.419L638.778 164.419L621 141.641L658.778 118.308Z" fill="#300729"/>
<path fill-rule="evenodd" clip-rule="evenodd" d="M638.778 143.308L665.444 126.641L666.033 127.583L639.367 144.25L638.778 143.308Z" fill="white"/>
<path d="M652.778 108L665 124.111L632.778 154.111L615 131.334L652.778 108Z" fill="#300729"/>
<path fill-rule="evenodd" clip-rule="evenodd" d="M632.778 133L659.444 116.334L660.033 117.276L633.367 133.943L632.778 133Z" fill="white"/>
<path d="M591.572 169.228L593.077 154.438L625.441 154.461L623.582 175.62L591.572 169.228Z" fill="#950C2A"/>
<path fill-rule="evenodd" clip-rule="evenodd" d="M611.348 163.826L592.228 161.817L592.313 161.004L611.434 163.014L611.348 163.826Z" fill="white"/>
<path d="M787.855 187.224L774.115 174.816L797.983 142.338L817.857 159.795L787.855 187.224Z" fill="#F0932C"/>
<path fill-rule="evenodd" clip-rule="evenodd" d="M793.987 166.162L780.763 181.42L779.995 180.753L793.218 165.495L793.987 166.162Z" fill="white"/>
<path d="M833.003 165.292L817.508 177.625L787.405 146.762L809.3 128.839L833.003 165.292Z" fill="#D58A9F"/>
<path fill-rule="evenodd" clip-rule="evenodd" d="M825.421 171.299L806.041 147.367L806.887 146.683L826.266 170.615L825.421 171.299Z" fill="white"/>
<path d="M593.778 143.308L606 159.419L573.778 189.419L556 166.641L593.778 143.308Z" fill="#300729"/>
<path fill-rule="evenodd" clip-rule="evenodd" d="M573.778 168.308L600.444 151.641L601.033 152.583L574.367 169.25L573.778 168.308Z" fill="white"/>
<path d="M685.572 170.228L687.077 155.438L719.441 155.461L717.582 176.62L685.572 170.228Z" fill="#950C2A"/>
<path fill-rule="evenodd" clip-rule="evenodd" d="M705.348 164.826L686.228 162.817L686.313 162.004L705.434 164.014L705.348 164.826Z" fill="white"/>
<path d="M723.855 183.224L710.115 170.816L733.983 138.338L753.857 155.795L723.855 183.224Z" fill="#F0932C"/>
<path fill-rule="evenodd" clip-rule="evenodd" d="M729.987 162.162L716.763 177.42L715.995 176.753L729.218 161.495L729.987 162.162Z" fill="white"/>
<path d="M496.916 183.288L484.508 197.028L452.031 173.16L469.488 153.286L496.916 183.288Z" fill="#F0932C"/>
<path d="M705.916 174.288L693.508 188.028L661.031 164.16L678.488 144.286L705.916 174.288Z" fill="#F0932C"/>
<path fill-rule="evenodd" clip-rule="evenodd" d="M684.854 168.156L700.112 181.379L699.446 182.148L684.188 168.924L684.854 168.156Z" fill="white"/>
<path d="M746.111 162.085L730 174.308L700 142.085L722.778 124.308L746.111 162.085Z" fill="#300729"/>
<path fill-rule="evenodd" clip-rule="evenodd" d="M721.111 142.085L737.778 168.752L736.835 169.341L720.169 142.674L721.111 142.085Z" fill="white"/>
<path d="M943.985 129.586L956.317 145.081L925.454 175.184L907.531 153.289L943.985 129.586Z" fill="#D58A9F"/>
<path fill-rule="evenodd" clip-rule="evenodd" d="M949.992 137.168L926.06 156.548L925.375 155.702L949.307 136.322L949.992 137.168Z" fill="white"/>
</svg>
