<svg width="1440" height="900" viewBox="0 0 1440 900" fill="none" xmlns="http://www.w3.org/2000/svg">
<g clip-path="url(#clip0_145_2698)">
<rect width="56" height="467" transform="matrix(-1 0 0 1 1457.56 433.255)" fill="url(#paint0_linear_145_2698)"/>
<rect width="31.3794" height="157.975" transform="matrix(-0.931671 0.363302 0.63182 0.775115 1367.15 370.243)" fill="#6F481E"/>
<path d="M1107.72 242.818L1097.4 266.362L1215.9 303.229L1226.22 279.685L1107.72 242.818Z" fill="#6F481E"/>
<path d="M1222.49 277.771L1201.44 296.365L1348.37 390.708L1369.42 372.115L1222.49 277.771Z" fill="#6F481E"/>
<rect width="31.7261" height="160.728" transform="matrix(-0.976979 0.213337 0.470408 0.882449 1385.72 341.176)" fill="#6F481E"/>
<path d="M1260.23 222.489L1235.97 237.977L1363.35 358.956L1387.61 343.468L1260.23 222.489Z" fill="#6F481E"/>
<path d="M1149.6 174.763L1137.74 198.421L1251.95 248.729L1263.8 225.071L1149.6 174.763Z" fill="#6F481E"/>
<rect width="31.651" height="160.133" transform="matrix(-0.89801 0.439975 0.672992 0.739649 1391.32 428.139)" fill="#6F481E"/>
<path d="M1240.77 343.905L1221 364.614L1373.93 450.602L1393.71 429.893L1240.77 343.905Z" fill="#6F481E"/>
<path d="M1117.64 322.301L1111.88 347.907L1234.87 369.024L1240.63 343.418L1117.64 322.301Z" fill="#6F481E"/>
<rect width="31.5241" height="159.126" transform="matrix(-0.989608 -0.143789 0.151381 0.988475 1443.8 393.084)" fill="#6F481E"/>
<path d="M1365.47 239.812L1337.71 245.676L1417.05 401.721L1444.81 395.858L1365.47 239.812Z" fill="#6F481E"/>
<path d="M1236.83 117.06L1217.98 134.784L1347.91 258.902L1366.76 241.178L1236.83 117.06Z" fill="#6F481E"/>
<rect width="31.4958" height="158.901" transform="matrix(-0.880059 -0.474865 -0.194244 0.980953 1461.55 428.252)" fill="#6F481E"/>
<path d="M1440.18 257.545L1412.15 253.523L1433.52 427.181L1461.56 431.203L1440.18 257.545Z" fill="#6F481E"/>
<path d="M1358.2 90.6416L1334.5 100.806L1416.83 267.228L1440.54 257.064L1358.2 90.6416Z" fill="#6F481E"/>
<path d="M1134.27 333.055L1120.28 338.064L1106.36 308.842L1126.26 301.411L1134.27 333.055Z" fill="#950C2A"/>
<path fill-rule="evenodd" clip-rule="evenodd" d="M1120.88 317.53L1127.3 335.653L1126.53 335.925L1120.11 317.803L1120.88 317.53Z" fill="white"/>
<path d="M1156.87 338.953L1140.89 343.662L1127.19 310.073L1149.93 303.032L1156.87 338.953Z" fill="#F0932C"/>
<path fill-rule="evenodd" clip-rule="evenodd" d="M1143.59 324.343L1149.08 341.665L1148.21 341.942L1142.72 324.619L1143.59 324.343Z" fill="white"/>
<path d="M1174.28 344.201L1160.31 346.461L1152.35 316.687L1172.27 313.184L1174.28 344.201Z" fill="#300729"/>
<path fill-rule="evenodd" clip-rule="evenodd" d="M1165.4 323.625L1166.94 345.583L1166.16 345.638L1164.63 323.679L1165.4 323.625Z" fill="white"/>
<path d="M1194.75 347.766L1181.04 349.819L1173.59 320.573L1193.14 317.371L1194.75 347.766Z" fill="#D58A9F"/>
<path fill-rule="evenodd" clip-rule="evenodd" d="M1188.05 348.754L1184.68 327.463L1185.43 327.344L1188.8 348.635L1188.05 348.754Z" fill="white"/>
<path d="M1399.06 374.094L1384.79 369.919L1390.71 338.1L1411.18 343.785L1399.06 374.094Z" fill="#950C2A"/>
<path fill-rule="evenodd" clip-rule="evenodd" d="M1397.36 353.664L1391.89 372.098L1391.11 371.866L1396.57 353.432L1397.36 353.664Z" fill="white"/>
<path d="M1413.88 392.147L1398.18 386.563L1406.84 351.337L1429.38 359.008L1413.88 392.147Z" fill="#F0932C"/>
<path fill-rule="evenodd" clip-rule="evenodd" d="M1411.72 372.522L1405.98 389.764L1405.11 389.475L1410.85 372.233L1411.72 372.522Z" fill="white"/>
<path d="M1424.88 406.627L1412.24 400.241L1423.31 371.479L1441.48 380.354L1424.88 406.627Z" fill="#300729"/>
<path fill-rule="evenodd" clip-rule="evenodd" d="M1429.79 384.761L1418.12 403.43L1417.46 403.018L1429.13 384.349L1429.79 384.761Z" fill="white"/>
<path d="M1439.34 421.543L1427.04 415.146L1438.21 387.108L1455.9 396.006L1439.34 421.543Z" fill="#D58A9F"/>
<path fill-rule="evenodd" clip-rule="evenodd" d="M1433.34 418.405L1443.13 399.198L1443.81 399.544L1434.02 418.751L1433.34 418.405Z" fill="white"/>
<path d="M1381.36 401.87L1366.76 399.082L1369.6 366.842L1390.52 370.539L1381.36 401.87Z" fill="#950C2A"/>
<path fill-rule="evenodd" clip-rule="evenodd" d="M1377.7 381.698L1374.04 400.57L1373.23 400.415L1376.9 381.542L1377.7 381.698Z" fill="white"/>
<path d="M1397.84 418.421L1381.68 414.366L1386.92 378.473L1410.09 383.948L1397.84 418.421Z" fill="#F0932C"/>
<path fill-rule="evenodd" clip-rule="evenodd" d="M1393.81 399.093L1389.75 416.805L1388.86 416.6L1392.92 398.888L1393.81 399.093Z" fill="white"/>
<path d="M1410.17 431.779L1396.99 426.633L1405.25 396.943L1424.19 404.035L1410.17 431.779Z" fill="#300729"/>
<path fill-rule="evenodd" clip-rule="evenodd" d="M1412.97 409.543L1403.15 429.243L1402.45 428.896L1412.27 409.196L1412.97 409.543Z" fill="white"/>
<path d="M1426 445.241L1413.15 440.051L1421.58 411.072L1440.04 418.234L1426 445.241Z" fill="#D58A9F"/>
<path fill-rule="evenodd" clip-rule="evenodd" d="M1419.73 442.692L1427.63 422.635L1428.34 422.915L1420.44 442.971L1419.73 442.692Z" fill="white"/>
<path d="M1217.84 350.724L1203.19 353.227L1194.56 322.033L1215.45 318.171L1217.84 350.724Z" fill="#950C2A"/>
<path fill-rule="evenodd" clip-rule="evenodd" d="M1207.35 333.11L1210.52 352.072L1209.72 352.207L1206.55 333.245L1207.35 333.11Z" fill="white"/>
<path d="M1239.07 360.456L1222.51 362.318L1214.85 326.861L1238.47 323.876L1239.07 360.456Z" fill="#F0932C"/>
<path fill-rule="evenodd" clip-rule="evenodd" d="M1228.53 343.762L1230.93 361.775L1230.02 361.896L1227.62 343.883L1228.53 343.762Z" fill="white"/>
<path d="M1255.3 368.648L1241.15 368.447L1238.49 337.744L1258.71 337.754L1255.3 368.648Z" fill="#300729"/>
<path fill-rule="evenodd" clip-rule="evenodd" d="M1250.13 346.842L1247.83 368.734L1247.06 368.653L1249.36 346.761L1250.13 346.842Z" fill="white"/>
<path d="M1274.84 375.714L1260.99 375.355L1258.73 345.26L1278.54 345.501L1274.84 375.714Z" fill="#D58A9F"/>
<path fill-rule="evenodd" clip-rule="evenodd" d="M1268.08 375.524L1268.45 353.971L1269.21 353.984L1268.84 375.537L1268.08 375.524Z" fill="white"/>
<path d="M1298.56 383.435L1283.7 383.354L1280.62 351.136L1301.86 350.96L1298.56 383.435Z" fill="#950C2A"/>
<path fill-rule="evenodd" clip-rule="evenodd" d="M1291.29 364.267L1291.12 383.492L1290.3 383.484L1290.47 364.26L1291.29 364.267Z" fill="white"/>
<path d="M1317.78 396.705L1301.15 395.664L1299.76 359.416L1323.54 360.577L1317.78 396.705Z" fill="#F0932C"/>
<path fill-rule="evenodd" clip-rule="evenodd" d="M1310.3 378.435L1309.53 396.591L1308.62 396.552L1309.38 378.397L1310.3 378.435Z" fill="white"/>
<path d="M1332.34 407.592L1318.44 404.936L1321.15 374.237L1341.06 377.76L1332.34 407.592Z" fill="#300729"/>
<path fill-rule="evenodd" clip-rule="evenodd" d="M1331.04 385.219L1324.97 406.38L1324.22 406.166L1330.29 385.005L1331.04 385.219Z" fill="white"/>
<path d="M1350.36 417.943L1336.77 415.184L1339.78 385.154L1359.24 388.83L1350.36 417.943Z" fill="#D58A9F"/>
<path fill-rule="evenodd" clip-rule="evenodd" d="M1343.73 416.58L1347.84 395.42L1348.59 395.565L1344.47 416.726L1343.73 416.58Z" fill="white"/>
<path d="M1370.56 440.435L1355.69 440.354L1352.62 408.136L1373.86 407.96L1370.56 440.435Z" fill="#950C2A"/>
<path fill-rule="evenodd" clip-rule="evenodd" d="M1363.29 421.267L1363.12 440.492L1362.3 440.484L1362.47 421.26L1363.29 421.267Z" fill="white"/>
<path d="M1389.78 453.705L1373.15 452.664L1371.76 416.416L1395.54 417.577L1389.78 453.705Z" fill="#F0932C"/>
<path fill-rule="evenodd" clip-rule="evenodd" d="M1382.29 435.435L1381.53 453.591L1380.61 453.552L1381.38 435.397L1382.29 435.435Z" fill="white"/>
<path d="M1404.34 464.592L1390.44 461.936L1393.15 431.237L1413.06 434.76L1404.34 464.592Z" fill="#300729"/>
<path fill-rule="evenodd" clip-rule="evenodd" d="M1403.04 442.219L1396.97 463.38L1396.22 463.166L1402.29 442.005L1403.04 442.219Z" fill="white"/>
<path d="M1422.36 474.943L1408.77 472.184L1411.78 442.154L1431.24 445.83L1422.36 474.943Z" fill="#D58A9F"/>
<path fill-rule="evenodd" clip-rule="evenodd" d="M1415.73 473.58L1419.84 452.42L1420.59 452.565L1416.47 473.726L1415.73 473.58Z" fill="white"/>
<path d="M1140.12 253.803L1125.46 256.305L1116.83 225.112L1137.72 221.249L1140.12 253.803Z" fill="#950C2A"/>
<path fill-rule="evenodd" clip-rule="evenodd" d="M1129.63 236.189L1132.8 255.151L1131.99 255.286L1128.82 236.324L1129.63 236.189Z" fill="white"/>
<path d="M1161.34 263.535L1144.79 265.398L1137.13 229.941L1160.75 226.955L1161.34 263.535Z" fill="#F0932C"/>
<path fill-rule="evenodd" clip-rule="evenodd" d="M1150.8 246.841L1153.2 264.854L1152.3 264.975L1149.9 246.962L1150.8 246.841Z" fill="white"/>
<path d="M1177.58 271.727L1163.42 271.526L1160.76 240.823L1180.99 240.833L1177.58 271.727Z" fill="#300729"/>
<path fill-rule="evenodd" clip-rule="evenodd" d="M1172.41 249.921L1170.11 271.813L1169.33 271.732L1171.63 249.84L1172.41 249.921Z" fill="white"/>
<path d="M1197.12 278.793L1183.26 278.434L1181.01 248.34L1200.81 248.58L1197.12 278.793Z" fill="#D58A9F"/>
<path fill-rule="evenodd" clip-rule="evenodd" d="M1190.35 278.603L1190.73 257.05L1191.49 257.063L1191.11 278.616L1190.35 278.603Z" fill="white"/>
<path d="M1120.83 251.176L1107.68 255.578L1095.27 228.07L1113.97 221.522L1120.83 251.176Z" fill="#D58A9F"/>
<path fill-rule="evenodd" clip-rule="evenodd" d="M1114.4 253.311L1107.39 232.93L1108.11 232.682L1115.12 253.064L1114.4 253.311Z" fill="white"/>
<path d="M1219.35 285.716L1204.48 285.635L1201.4 253.417L1222.64 253.241L1219.35 285.716Z" fill="#950C2A"/>
<path fill-rule="evenodd" clip-rule="evenodd" d="M1212.07 266.548L1211.91 285.772L1211.09 285.765L1211.26 266.54L1212.07 266.548Z" fill="white"/>
<path d="M1357.93 381.251L1344.9 374.086L1357.57 344.304L1376.32 354.283L1357.93 381.251Z" fill="#950C2A"/>
<path fill-rule="evenodd" clip-rule="evenodd" d="M1360.68 360.936L1351.36 377.75L1350.65 377.354L1359.97 360.54L1360.68 360.936Z" fill="white"/>
<path d="M1238.56 298.986L1221.93 297.945L1220.55 261.697L1244.33 262.858L1238.56 298.986Z" fill="#F0932C"/>
<path fill-rule="evenodd" clip-rule="evenodd" d="M1231.08 280.716L1230.31 298.872L1229.4 298.833L1230.17 280.677L1231.08 280.716Z" fill="white"/>
<path d="M1253.13 309.873L1239.22 307.217L1241.93 276.518L1261.85 280.04L1253.13 309.873Z" fill="#300729"/>
<path fill-rule="evenodd" clip-rule="evenodd" d="M1251.82 287.5L1245.75 308.661L1245.01 308.446L1251.07 287.286L1251.82 287.5Z" fill="white"/>
<path d="M1271.14 320.224L1257.56 317.464L1260.56 287.435L1280.03 291.111L1271.14 320.224Z" fill="#D58A9F"/>
<path fill-rule="evenodd" clip-rule="evenodd" d="M1264.51 318.861L1268.62 297.701L1269.37 297.846L1265.26 319.006L1264.51 318.861Z" fill="white"/>
<path d="M1293.16 331.946L1278.53 329.285L1281.09 297.022L1302.04 300.536L1293.16 331.946Z" fill="#950C2A"/>
<path fill-rule="evenodd" clip-rule="evenodd" d="M1289.33 311.806L1285.82 330.71L1285.02 330.561L1288.52 311.658L1289.33 311.806Z" fill="white"/>
<path d="M1309.78 348.352L1293.58 344.439L1298.51 308.501L1321.73 313.774L1309.78 348.352Z" fill="#F0932C"/>
<path fill-rule="evenodd" clip-rule="evenodd" d="M1305.58 329.06L1301.68 346.807L1300.78 346.61L1304.69 328.863L1305.58 329.06Z" fill="white"/>
<path d="M1322.23 361.603L1309 356.572L1317 326.811L1336 333.738L1322.23 361.603Z" fill="#300729"/>
<path fill-rule="evenodd" clip-rule="evenodd" d="M1324.83 339.343L1315.18 359.128L1314.48 358.788L1324.13 339.002L1324.83 339.343Z" fill="white"/>
<path d="M1338.18 374.925L1325.28 369.848L1333.45 340.797L1351.98 347.797L1338.18 374.925Z" fill="#D58A9F"/>
<path fill-rule="evenodd" clip-rule="evenodd" d="M1331.88 372.431L1339.61 352.306L1340.32 352.579L1332.59 372.704L1331.88 372.431Z" fill="white"/>
<path d="M1172.2 183.124L1157.33 183.044L1154.25 150.826L1175.49 150.649L1172.2 183.124Z" fill="#950C2A"/>
<path fill-rule="evenodd" clip-rule="evenodd" d="M1164.93 163.956L1164.76 183.181L1163.94 183.174L1164.11 163.949L1164.93 163.956Z" fill="white"/>
<path d="M1191.42 196.395L1174.79 195.353L1173.4 159.105L1197.18 160.267L1191.42 196.395Z" fill="#F0932C"/>
<path fill-rule="evenodd" clip-rule="evenodd" d="M1183.93 178.125L1183.17 196.28L1182.25 196.242L1183.02 178.086L1183.93 178.125Z" fill="white"/>
<path d="M1205.98 207.282L1192.08 204.626L1194.79 173.927L1214.7 177.449L1205.98 207.282Z" fill="#300729"/>
<path fill-rule="evenodd" clip-rule="evenodd" d="M1204.67 184.909L1198.61 206.069L1197.86 205.855L1203.93 184.695L1204.67 184.909Z" fill="white"/>
<path d="M1224 217.633L1210.41 214.873L1213.42 184.844L1232.88 188.52L1224 217.633Z" fill="#D58A9F"/>
<path fill-rule="evenodd" clip-rule="evenodd" d="M1217.36 216.27L1221.48 195.11L1222.23 195.255L1218.11 216.415L1217.36 216.27Z" fill="white"/>
<path d="M1224 217.633L1210.41 214.873L1213.42 184.844L1232.88 188.52L1224 217.633Z" fill="#D58A9F"/>
<path fill-rule="evenodd" clip-rule="evenodd" d="M1217.36 216.27L1221.48 195.11L1222.23 195.255L1218.11 216.415L1217.36 216.27Z" fill="white"/>
<path d="M1155.9 186.928L1142.45 190.286L1132.24 161.888L1151.39 156.827L1155.9 186.928Z" fill="#D58A9F"/>
<path fill-rule="evenodd" clip-rule="evenodd" d="M1149.33 188.554L1143.93 167.684L1144.67 167.493L1150.07 188.363L1149.33 188.554Z" fill="white"/>
<path d="M1244.68 228.309L1230.06 225.649L1232.62 193.386L1253.57 196.9L1244.68 228.309Z" fill="#950C2A"/>
<path fill-rule="evenodd" clip-rule="evenodd" d="M1240.85 208.17L1237.35 227.074L1236.54 226.925L1240.05 208.021L1240.85 208.17Z" fill="white"/>
<path d="M1261.3 244.715L1245.11 240.802L1250.04 204.865L1273.25 210.137L1261.3 244.715Z" fill="#F0932C"/>
<path fill-rule="evenodd" clip-rule="evenodd" d="M1257.11 225.423L1253.2 243.17L1252.31 242.974L1256.21 225.227L1257.11 225.423Z" fill="white"/>
<path d="M1371.34 364.005L1361.68 350.426L1388.98 326.538L1403.04 345.749L1371.34 364.005Z" fill="#F0932C"/>
<path fill-rule="evenodd" clip-rule="evenodd" d="M1380.83 346.693L1366.24 357.524L1365.69 356.789L1380.28 345.958L1380.83 346.693Z" fill="white"/>
<path d="M1273.76 257.966L1260.53 252.936L1268.53 223.174L1287.53 230.101L1273.76 257.966Z" fill="#300729"/>
<path fill-rule="evenodd" clip-rule="evenodd" d="M1276.36 235.707L1266.71 255.492L1266.01 255.151L1275.66 235.366L1276.36 235.707Z" fill="white"/>
<path d="M1289.7 271.288L1276.8 266.212L1284.98 237.16L1303.51 244.16L1289.7 271.288Z" fill="#D58A9F"/>
<path fill-rule="evenodd" clip-rule="evenodd" d="M1283.41 268.794L1291.13 248.67L1291.84 248.943L1284.12 269.067L1283.41 268.794Z" fill="white"/>
<path d="M1309.35 286.655L1295.41 281.495L1303.53 250.167L1323.55 257.266L1309.35 286.655Z" fill="#950C2A"/>
<path fill-rule="evenodd" clip-rule="evenodd" d="M1309.07 266.156L1302.34 284.164L1301.57 283.878L1308.31 265.87L1309.07 266.156Z" fill="white"/>
<path d="M1358.75 348.216L1348.48 337.466L1369.52 312.871L1384.4 328.027L1358.75 348.216Z" fill="#950C2A"/>
<path fill-rule="evenodd" clip-rule="evenodd" d="M1367.48 329.67L1353.54 342.904L1352.98 342.311L1366.92 329.077L1367.48 329.67Z" fill="white"/>
<path d="M1322.87 305.698L1307.6 299.032L1318.69 264.496L1340.64 273.72L1322.87 305.698Z" fill="#F0932C"/>
<path fill-rule="evenodd" clip-rule="evenodd" d="M1322.08 285.971L1315.16 302.769L1314.31 302.42L1321.24 285.621L1322.08 285.971Z" fill="white"/>
<path d="M1332.83 320.909L1320.67 313.658L1333.72 285.738L1351.23 295.859L1332.83 320.909Z" fill="#300729"/>
<path fill-rule="evenodd" clip-rule="evenodd" d="M1339.25 299.439L1326.32 317.249L1325.69 316.792L1338.63 298.982L1339.25 299.439Z" fill="white"/>
<path d="M1346.22 336.799L1334.4 329.559L1347.49 302.368L1364.52 312.479L1346.22 336.799Z" fill="#D58A9F"/>
<path fill-rule="evenodd" clip-rule="evenodd" d="M1340.45 333.249L1351.56 314.772L1352.21 315.164L1341.11 333.641L1340.45 333.249Z" fill="white"/>
<path d="M1257.25 138.635L1242.78 135.213L1247.03 103.128L1267.77 107.734L1257.25 138.635Z" fill="#950C2A"/>
<path fill-rule="evenodd" clip-rule="evenodd" d="M1254.48 118.323L1249.99 137.017L1249.19 136.827L1253.68 118.132L1254.48 118.323Z" fill="white"/>
<path d="M1272.99 155.889L1257.02 151.133L1263.82 115.503L1286.73 121.983L1272.99 155.889Z" fill="#F0932C"/>
<path fill-rule="evenodd" clip-rule="evenodd" d="M1269.81 136.404L1264.98 153.922L1264.1 153.679L1268.93 136.161L1269.81 136.404Z" fill="white"/>
<path d="M1284.73 169.773L1271.78 164.057L1281.33 134.755L1299.94 142.667L1284.73 169.773Z" fill="#300729"/>
<path fill-rule="evenodd" clip-rule="evenodd" d="M1288.49 147.679L1277.82 166.933L1277.14 166.556L1287.81 147.302L1288.49 147.679Z" fill="white"/>
<path d="M1299.96 183.912L1287.34 178.167L1297.02 149.583L1315.16 157.543L1299.96 183.912Z" fill="#D58A9F"/>
<path fill-rule="evenodd" clip-rule="evenodd" d="M1293.8 181.091L1302.57 161.399L1303.26 161.708L1294.5 181.401L1293.8 181.091Z" fill="white"/>
<path d="M1299.96 183.912L1287.34 178.167L1297.02 149.583L1315.16 157.543L1299.96 183.912Z" fill="#D58A9F"/>
<path fill-rule="evenodd" clip-rule="evenodd" d="M1293.8 181.091L1302.57 161.399L1303.27 161.708L1294.5 181.401L1293.8 181.091Z" fill="white"/>
<path d="M1240.52 138.676L1226.66 138.922L1223.09 108.954L1242.89 108.331L1240.52 138.676Z" fill="#D58A9F"/>
<path fill-rule="evenodd" clip-rule="evenodd" d="M1233.75 138.781L1233.18 117.232L1233.94 117.212L1234.51 138.761L1233.75 138.781Z" fill="white"/>
<path d="M1317.71 198.969L1304.06 193.086L1313.81 162.226L1333.43 170.363L1317.71 198.969Z" fill="#950C2A"/>
<path fill-rule="evenodd" clip-rule="evenodd" d="M1318.51 178.483L1310.84 196.114L1310.09 195.789L1317.76 178.158L1318.51 178.483Z" fill="white"/>
<path d="M1330.22 218.693L1315.31 211.237L1328.2 177.329L1349.64 187.689L1330.22 218.693Z" fill="#F0932C"/>
<path fill-rule="evenodd" clip-rule="evenodd" d="M1330.47 198.951L1322.67 215.365L1321.84 214.972L1329.64 198.558L1330.47 198.951Z" fill="white"/>
<path d="M1410.59 359.677L1404.24 344.274L1436.21 327.139L1445.59 349.02L1410.59 359.677Z" fill="#F0932C"/>
<path fill-rule="evenodd" clip-rule="evenodd" d="M1423.74 344.943L1407.08 352.214L1406.72 351.375L1423.37 344.104L1423.74 344.943Z" fill="white"/>
<path d="M1339.37 234.405L1327.61 226.527L1342.1 199.328L1359.05 210.352L1339.37 234.405Z" fill="#300729"/>
<path fill-rule="evenodd" clip-rule="evenodd" d="M1346.91 213.3L1333.06 230.408L1332.45 229.919L1346.3 212.811L1346.91 213.3Z" fill="white"/>
<path d="M1351.91 250.973L1340.48 243.125L1354.98 216.656L1371.46 227.645L1351.91 250.973Z" fill="#D58A9F"/>
<path fill-rule="evenodd" clip-rule="evenodd" d="M1346.34 247.127L1358.39 229.256L1359.02 229.682L1346.97 247.553L1346.34 247.127Z" fill="white"/>
<path d="M1367.59 270.364L1355.17 262.2L1370.13 233.503L1388.04 244.923L1367.59 270.364Z" fill="#950C2A"/>
<path fill-rule="evenodd" clip-rule="evenodd" d="M1371.93 250.329L1361.32 266.36L1360.64 265.91L1371.25 249.878L1371.93 250.329Z" fill="white"/>
<path d="M1401.88 341.46L1394.29 328.676L1420.32 309.443L1431.41 327.559L1401.88 341.46Z" fill="#950C2A"/>
<path fill-rule="evenodd" clip-rule="evenodd" d="M1414.56 325.354L1398 335.112L1397.58 334.408L1414.15 324.651L1414.56 325.354Z" fill="white"/>
<path d="M1376.48 291.96L1363.1 282.03L1381.68 250.876L1400.99 264.8L1376.48 291.96Z" fill="#F0932C"/>
<path fill-rule="evenodd" clip-rule="evenodd" d="M1380.16 272.563L1369.63 287.372L1368.88 286.842L1379.41 272.032L1380.16 272.563Z" fill="white"/>
<path d="M1382.77 309.023L1372.55 299.223L1391.55 274.953L1406.33 288.754L1382.77 309.023Z" fill="#300729"/>
<path fill-rule="evenodd" clip-rule="evenodd" d="M1393.86 289.549L1377.25 303.992L1376.74 303.405L1393.35 288.962L1393.86 289.549Z" fill="white"/>
<path d="M1425.1 373.698L1417.87 361.525L1442.66 343.213L1453.22 360.464L1425.1 373.698Z" fill="#300729"/>
<path fill-rule="evenodd" clip-rule="evenodd" d="M1440.99 357.896L1421.12 367.374L1420.79 366.672L1440.65 357.194L1440.99 357.896Z" fill="white"/>
<path d="M1392.24 327.517L1382.35 317.804L1401.23 294.256L1415.55 307.939L1392.24 327.517Z" fill="#D58A9F"/>
<path fill-rule="evenodd" clip-rule="evenodd" d="M1387.42 322.762L1402.39 307.256L1402.94 307.785L1387.97 323.291L1387.42 322.762Z" fill="white"/>
<path d="M1354.7 109.563L1340.28 101.211L1355.21 68.1536L1375.97 79.8028L1354.7 109.563Z" fill="#F0932C"/>
<path fill-rule="evenodd" clip-rule="evenodd" d="M1356.15 89.8734L1347.37 105.78L1346.56 105.337L1355.35 89.4308L1356.15 89.8734Z" fill="white"/>
<path d="M1362.87 125.805L1351.61 117.224L1367.74 90.9596L1383.99 102.999L1362.87 125.805Z" fill="#300729"/>
<path fill-rule="evenodd" clip-rule="evenodd" d="M1371.69 105.2L1356.82 121.431L1356.24 120.905L1371.11 104.674L1371.69 105.2Z" fill="white"/>
<path d="M1374.38 143.107L1363.45 134.576L1379.54 109.042L1395.32 121.016L1374.38 143.107Z" fill="#D58A9F"/>
<path fill-rule="evenodd" clip-rule="evenodd" d="M1369.05 138.928L1382.17 121.826L1382.78 122.29L1369.65 139.392L1369.05 138.928Z" fill="white"/>
<path d="M1374.38 143.107L1363.45 134.576L1379.54 109.042L1395.32 121.016L1374.38 143.107Z" fill="#D58A9F"/>
<path fill-rule="evenodd" clip-rule="evenodd" d="M1369.05 138.928L1382.17 121.826L1382.78 122.29L1369.65 139.392L1369.05 138.928Z" fill="white"/>
<path d="M1388.13 161.893L1376.22 152.986L1392.91 125.256L1410.09 137.748L1388.13 161.893Z" fill="#950C2A"/>
<path fill-rule="evenodd" clip-rule="evenodd" d="M1393.68 142.159L1382.11 157.514L1381.46 157.022L1393.03 141.668L1393.68 142.159Z" fill="white"/>
<path d="M1395.68 183.991L1382.93 173.263L1403.38 143.301L1421.8 158.378L1395.68 183.991Z" fill="#F0932C"/>
<path fill-rule="evenodd" clip-rule="evenodd" d="M1400.53 164.854L1389.12 178.993L1388.41 178.418L1399.82 164.279L1400.53 164.854Z" fill="white"/>
<path d="M1440.93 339.843L1438.34 323.383L1473.43 314.186L1477.44 337.652L1440.93 339.843Z" fill="#F0932C"/>
<path fill-rule="evenodd" clip-rule="evenodd" d="M1457.14 328.584L1439.25 331.767L1439.09 330.865L1456.98 327.683L1457.14 328.584Z" fill="white"/>
<path d="M1400.91 201.406L1391.32 191L1411.75 167.935L1425.67 182.613L1400.91 201.406Z" fill="#300729"/>
<path fill-rule="evenodd" clip-rule="evenodd" d="M1413.17 182.645L1395.71 196.047L1395.23 195.43L1412.7 182.028L1413.17 182.645Z" fill="white"/>
<path d="M1409.24 220.444L1399.96 210.145L1420.24 187.793L1433.7 202.325L1409.24 220.444Z" fill="#D58A9F"/>
<path fill-rule="evenodd" clip-rule="evenodd" d="M1404.72 215.403L1420.61 200.84L1421.12 201.401L1405.23 215.965L1404.72 215.403Z" fill="white"/>
<path d="M1419.96 242.962L1409.79 232.123L1431.04 207.712L1445.79 222.997L1419.96 242.962Z" fill="#950C2A"/>
<path fill-rule="evenodd" clip-rule="evenodd" d="M1428.86 224.493L1414.8 237.604L1414.24 237.007L1428.3 223.895L1428.86 224.493Z" fill="white"/>
<path d="M1436.7 320.096L1432.31 305.894L1462.11 293.269L1468.67 313.473L1436.7 320.096Z" fill="#950C2A"/>
<path fill-rule="evenodd" clip-rule="evenodd" d="M1452.8 307.397L1434.41 313.018L1434.17 312.237L1452.56 306.616L1452.8 307.397Z" fill="white"/>
<path d="M1423.56 266.035L1412.87 253.256L1438.21 227.3L1453.74 245.348L1423.56 266.035Z" fill="#F0932C"/>
<path fill-rule="evenodd" clip-rule="evenodd" d="M1431.67 248.032L1417.97 259.974L1417.37 259.284L1431.07 247.342L1431.67 248.032Z" fill="white"/>
<path d="M1425.69 284.094L1418.05 272.18L1442.18 253.014L1453.34 269.886L1425.69 284.094Z" fill="#300729"/>
<path fill-rule="evenodd" clip-rule="evenodd" d="M1441.02 267.746L1421.5 277.913L1421.14 277.223L1440.66 267.057L1441.02 267.746Z" fill="white"/>
<path d="M1430.59 304.289L1423.24 292.535L1447.09 274.043L1457.82 290.691L1430.59 304.289Z" fill="#D58A9F"/>
<path fill-rule="evenodd" clip-rule="evenodd" d="M1427.01 298.539L1445.19 286.957L1445.6 287.599L1427.42 299.181L1427.01 298.539Z" fill="white"/>
<rect x="-18.5503" y="433.255" width="56" height="467" fill="url(#paint1_linear_145_2698)"/>
<rect width="31.3794" height="157.975" transform="matrix(0.931671 0.363302 -0.63182 0.775115 71.8584 370.243)" fill="#6F481E"/>
<path d="M331.289 242.818L341.611 266.362L223.112 303.229L212.789 279.685L331.289 242.818Z" fill="#6F481E"/>
<path d="M216.521 277.771L237.569 296.365L90.6386 390.708L69.5901 372.115L216.521 277.771Z" fill="#6F481E"/>
<rect width="31.7261" height="160.728" transform="matrix(0.976979 0.213337 -0.470408 0.882449 53.2837 341.176)" fill="#6F481E"/>
<path d="M178.781 222.489L203.041 237.977L75.6554 358.956L51.3949 343.468L178.781 222.489Z" fill="#6F481E"/>
<path d="M289.409 174.763L301.266 198.421L187.06 248.729L175.203 225.071L289.409 174.763Z" fill="#6F481E"/>
<rect width="31.651" height="160.133" transform="matrix(0.89801 0.439975 -0.672992 0.739649 47.6909 428.139)" fill="#6F481E"/>
<path d="M198.233 343.905L218.006 364.614L65.0756 450.602L45.3026 429.893L198.233 343.905Z" fill="#6F481E"/>
<path d="M321.369 322.301L327.127 347.907L204.136 369.024L198.378 343.418L321.369 322.301Z" fill="#6F481E"/>
<rect width="31.5241" height="159.126" transform="matrix(0.989608 -0.143789 -0.151381 0.988475 -4.79297 393.084)" fill="#6F481E"/>
<path d="M73.5332 239.812L101.298 245.676L21.9595 401.721L-5.80531 395.858L73.5332 239.812Z" fill="#6F481E"/>
<path d="M202.174 117.06L221.028 134.784L91.0969 258.902L72.2428 241.178L202.174 117.06Z" fill="#6F481E"/>
<rect width="31.4958" height="158.901" transform="matrix(0.880059 -0.474865 0.194244 0.980953 -22.5405 428.252)" fill="#6F481E"/>
<path d="M-1.17139 257.545L26.8616 253.523L5.48547 427.181L-22.5475 431.203L-1.17139 257.545Z" fill="#6F481E"/>
<path d="M80.8057 90.6416L104.512 100.806L22.1792 267.228L-1.52744 257.064L80.8057 90.6416Z" fill="#6F481E"/>
<path d="M304.734 333.055L318.731 338.064L332.644 308.842L312.745 301.411L304.734 333.055Z" fill="#950C2A"/>
<path fill-rule="evenodd" clip-rule="evenodd" d="M318.123 317.53L311.706 335.653L312.476 335.925L318.893 317.803L318.123 317.53Z" fill="white"/>
<path d="M282.138 338.953L298.12 343.662L311.819 310.073L289.077 303.032L282.138 338.953Z" fill="#F0932C"/>
<path fill-rule="evenodd" clip-rule="evenodd" d="M295.417 324.343L289.927 341.665L290.8 341.942L296.29 324.619L295.417 324.343Z" fill="white"/>
<path d="M264.728 344.201L278.702 346.461L286.655 316.687L266.735 313.184L264.728 344.201Z" fill="#300729"/>
<path fill-rule="evenodd" clip-rule="evenodd" d="M273.607 323.625L272.069 345.583L272.845 345.638L274.383 323.679L273.607 323.625Z" fill="white"/>
<path d="M244.258 347.766L257.967 349.819L265.414 320.573L245.868 317.371L244.258 347.766Z" fill="#D58A9F"/>
<path fill-rule="evenodd" clip-rule="evenodd" d="M250.956 348.754L254.328 327.463L253.576 327.344L250.204 348.635L250.956 348.754Z" fill="white"/>
<path d="M39.946 374.094L54.2139 369.919L48.2934 338.1L27.8273 343.785L39.946 374.094Z" fill="#950C2A"/>
<path fill-rule="evenodd" clip-rule="evenodd" d="M41.6525 353.664L47.1128 372.098L47.896 371.866L42.4357 353.432L41.6525 353.664Z" fill="white"/>
<path d="M25.1316 392.147L40.8299 386.563L32.1695 351.337L9.63202 359.008L25.1316 392.147Z" fill="#F0932C"/>
<path fill-rule="evenodd" clip-rule="evenodd" d="M27.2876 372.522L33.0279 389.764L33.8965 389.475L28.1562 372.233L27.2876 372.522Z" fill="white"/>
<path d="M14.1319 406.627L26.7654 400.241L15.6984 371.479L-2.47619 380.354L14.1319 406.627Z" fill="#300729"/>
<path fill-rule="evenodd" clip-rule="evenodd" d="M9.22018 384.761L20.8833 403.43L21.543 403.018L9.87981 384.349L9.22018 384.761Z" fill="white"/>
<path d="M-0.333608 421.543L11.9643 415.146L0.799108 387.108L-16.8962 396.006L-0.333608 421.543Z" fill="#D58A9F"/>
<path fill-rule="evenodd" clip-rule="evenodd" d="M5.66666 418.405L-4.1197 399.198L-4.79834 399.544L4.98802 418.751L5.66666 418.405Z" fill="white"/>
<path d="M57.6463 401.87L72.2486 399.082L69.405 366.842L48.4883 370.539L57.6463 401.87Z" fill="#950C2A"/>
<path fill-rule="evenodd" clip-rule="evenodd" d="M61.3033 381.698L64.9716 400.57L65.7734 400.415L62.1051 381.542L61.3033 381.698Z" fill="white"/>
<path d="M41.1697 418.421L57.3311 414.366L52.0867 378.473L28.9178 383.948L41.1697 418.421Z" fill="#F0932C"/>
<path fill-rule="evenodd" clip-rule="evenodd" d="M45.1968 399.093L49.2581 416.805L50.1504 416.6L46.0891 398.888L45.1968 399.093Z" fill="white"/>
<path d="M28.8333 431.779L42.0207 426.633L33.7614 396.943L14.8198 404.035L28.8333 431.779Z" fill="#300729"/>
<path fill-rule="evenodd" clip-rule="evenodd" d="M26.0399 409.543L35.8601 429.243L36.5562 428.896L26.736 409.196L26.0399 409.543Z" fill="white"/>
<path d="M13.0041 445.241L25.8586 440.051L17.4321 411.072L-1.03461 418.234L13.0041 445.241Z" fill="#D58A9F"/>
<path fill-rule="evenodd" clip-rule="evenodd" d="M19.2775 442.692L11.3771 422.635L10.6685 422.915L18.5689 442.971L19.2775 442.692Z" fill="white"/>
<path d="M221.166 350.724L235.82 353.227L244.447 322.033L223.561 318.171L221.166 350.724Z" fill="#950C2A"/>
<path fill-rule="evenodd" clip-rule="evenodd" d="M231.656 333.11L228.483 352.072L229.289 352.207L232.462 333.245L231.656 333.11Z" fill="white"/>
<path d="M199.938 360.456L216.495 362.318L224.153 326.861L200.534 323.876L199.938 360.456Z" fill="#F0932C"/>
<path fill-rule="evenodd" clip-rule="evenodd" d="M210.478 343.762L208.079 361.775L208.987 361.896L211.386 343.883L210.478 343.762Z" fill="white"/>
<path d="M183.704 368.648L197.858 368.447L200.52 337.744L180.294 337.754L183.704 368.648Z" fill="#300729"/>
<path fill-rule="evenodd" clip-rule="evenodd" d="M188.875 346.842L191.174 368.734L191.947 368.653L189.648 346.761L188.875 346.842Z" fill="white"/>
<path d="M164.163 375.714L178.021 375.355L180.276 345.26L160.471 345.501L164.163 375.714Z" fill="#D58A9F"/>
<path fill-rule="evenodd" clip-rule="evenodd" d="M170.932 375.524L170.555 353.971L169.794 353.984L170.17 375.537L170.932 375.524Z" fill="white"/>
<path d="M140.447 383.435L155.312 383.354L158.392 351.136L137.151 350.96L140.447 383.435Z" fill="#950C2A"/>
<path fill-rule="evenodd" clip-rule="evenodd" d="M147.719 364.267L147.886 383.492L148.703 383.484L148.535 364.26L147.719 364.267Z" fill="white"/>
<path d="M121.231 396.705L137.86 395.664L139.245 359.416L115.466 360.577L121.231 396.705Z" fill="#F0932C"/>
<path fill-rule="evenodd" clip-rule="evenodd" d="M128.712 378.435L129.478 396.591L130.393 396.552L129.627 378.397L128.712 378.435Z" fill="white"/>
<path d="M106.666 407.592L120.57 404.936L117.86 374.237L97.9431 377.76L106.666 407.592Z" fill="#300729"/>
<path fill-rule="evenodd" clip-rule="evenodd" d="M107.972 385.219L114.037 406.38L114.785 406.166L108.72 385.005L107.972 385.219Z" fill="white"/>
<path d="M88.6487 417.943L102.234 415.184L99.2292 385.154L79.7667 388.83L88.6487 417.943Z" fill="#D58A9F"/>
<path fill-rule="evenodd" clip-rule="evenodd" d="M95.2817 416.58L91.1686 395.42L90.4209 395.565L94.534 416.726L95.2817 416.58Z" fill="white"/>
<path d="M68.447 440.435L83.3129 440.354L86.3921 408.136L65.1519 407.96L68.447 440.435Z" fill="#950C2A"/>
<path fill-rule="evenodd" clip-rule="evenodd" d="M75.7191 421.267L75.8868 440.492L76.7036 440.484L76.5358 421.26L75.7191 421.267Z" fill="white"/>
<path d="M49.2313 453.705L65.8608 452.664L67.2453 416.416L43.4667 417.577L49.2313 453.705Z" fill="#F0932C"/>
<path fill-rule="evenodd" clip-rule="evenodd" d="M56.7129 435.435L57.4784 453.591L58.3931 453.552L57.6276 435.397L56.7129 435.435Z" fill="white"/>
<path d="M34.6665 464.592L48.5708 461.936L45.8605 431.237L25.9436 434.76L34.6665 464.592Z" fill="#300729"/>
<path fill-rule="evenodd" clip-rule="evenodd" d="M35.9725 442.219L42.038 463.38L42.7856 463.166L36.7201 442.005L35.9725 442.219Z" fill="white"/>
<path d="M16.6492 474.943L30.2341 472.184L27.2297 442.154L7.76715 445.83L16.6492 474.943Z" fill="#D58A9F"/>
<path fill-rule="evenodd" clip-rule="evenodd" d="M23.2822 473.58L19.169 452.42L18.4214 452.565L22.5345 473.726L23.2822 473.58Z" fill="white"/>
<path d="M298.892 253.803L313.546 256.305L322.173 225.112L301.286 221.249L298.892 253.803Z" fill="#950C2A"/>
<path fill-rule="evenodd" clip-rule="evenodd" d="M309.382 236.189L306.209 255.151L307.014 255.286L310.187 236.324L309.382 236.189Z" fill="white"/>
<path d="M277.663 263.535L294.221 265.398L301.879 229.941L278.26 226.955L277.663 263.535Z" fill="#F0932C"/>
<path fill-rule="evenodd" clip-rule="evenodd" d="M288.204 246.841L285.805 264.854L286.712 264.975L289.111 246.962L288.204 246.841Z" fill="white"/>
<path d="M261.429 271.727L275.584 271.526L278.245 240.823L258.019 240.833L261.429 271.727Z" fill="#300729"/>
<path fill-rule="evenodd" clip-rule="evenodd" d="M266.6 249.921L268.899 271.813L269.673 271.732L267.374 249.84L266.6 249.921Z" fill="white"/>
<path d="M241.889 278.793L255.746 278.434L258.002 248.34L238.197 248.58L241.889 278.793Z" fill="#D58A9F"/>
<path fill-rule="evenodd" clip-rule="evenodd" d="M248.657 278.603L248.281 257.05L247.52 257.063L247.896 278.616L248.657 278.603Z" fill="white"/>
<path d="M318.178 251.176L331.323 255.578L343.736 228.07L325.043 221.522L318.178 251.176Z" fill="#D58A9F"/>
<path fill-rule="evenodd" clip-rule="evenodd" d="M324.604 253.311L331.622 232.93L330.902 232.682L323.884 253.064L324.604 253.311Z" fill="white"/>
<path d="M219.662 285.716L234.528 285.635L237.607 253.417L216.367 253.241L219.662 285.716Z" fill="#950C2A"/>
<path fill-rule="evenodd" clip-rule="evenodd" d="M226.934 266.548L227.102 285.772L227.918 285.765L227.751 266.54L226.934 266.548Z" fill="white"/>
<path d="M81.0813 381.251L94.1073 374.086L81.4404 344.304L62.6898 354.283L81.0813 381.251Z" fill="#950C2A"/>
<path fill-rule="evenodd" clip-rule="evenodd" d="M78.3258 360.936L87.6464 377.75L88.3608 377.354L79.0402 360.54L78.3258 360.936Z" fill="white"/>
<path d="M200.446 298.986L217.076 297.945L218.46 261.697L194.682 262.858L200.446 298.986Z" fill="#F0932C"/>
<path fill-rule="evenodd" clip-rule="evenodd" d="M207.928 280.716L208.693 298.872L209.608 298.833L208.842 280.677L207.928 280.716Z" fill="white"/>
<path d="M185.881 309.873L199.786 307.217L197.075 276.518L177.158 280.04L185.881 309.873Z" fill="#300729"/>
<path fill-rule="evenodd" clip-rule="evenodd" d="M187.187 287.5L193.253 308.661L194 308.446L187.935 287.286L187.187 287.5Z" fill="white"/>
<path d="M167.864 320.224L181.449 317.464L178.445 287.435L158.982 291.111L167.864 320.224Z" fill="#D58A9F"/>
<path fill-rule="evenodd" clip-rule="evenodd" d="M174.497 318.861L170.384 297.701L169.636 297.846L173.749 319.006L174.497 318.861Z" fill="white"/>
<path d="M145.849 331.946L160.475 329.285L157.913 297.022L136.965 300.536L145.849 331.946Z" fill="#950C2A"/>
<path fill-rule="evenodd" clip-rule="evenodd" d="M149.682 311.806L153.186 330.71L153.989 330.561L150.485 311.658L149.682 311.806Z" fill="white"/>
<path d="M129.229 348.352L145.425 344.439L140.494 308.501L117.278 313.774L129.229 348.352Z" fill="#F0932C"/>
<path fill-rule="evenodd" clip-rule="evenodd" d="M133.424 329.06L137.331 346.807L138.225 346.61L134.319 328.863L133.424 329.06Z" fill="white"/>
<path d="M116.776 361.603L130.008 356.572L122.008 326.811L103.005 333.738L116.776 361.603Z" fill="#300729"/>
<path fill-rule="evenodd" clip-rule="evenodd" d="M114.177 339.343L123.825 359.128L124.524 358.788L114.876 339.002L114.177 339.343Z" fill="white"/>
<path d="M100.83 374.925L113.729 369.848L105.556 340.797L87.0275 347.797L100.83 374.925Z" fill="#D58A9F"/>
<path fill-rule="evenodd" clip-rule="evenodd" d="M107.126 372.431L99.4005 352.306L98.6895 352.579L106.415 372.704L107.126 372.431Z" fill="white"/>
<path d="M266.808 183.124L281.674 183.044L284.753 150.826L263.513 150.649L266.808 183.124Z" fill="#950C2A"/>
<path fill-rule="evenodd" clip-rule="evenodd" d="M274.08 163.956L274.248 183.181L275.065 183.174L274.897 163.949L274.08 163.956Z" fill="white"/>
<path d="M247.592 196.395L264.222 195.353L265.606 159.105L241.828 160.267L247.592 196.395Z" fill="#F0932C"/>
<path fill-rule="evenodd" clip-rule="evenodd" d="M255.074 178.125L255.839 196.28L256.754 196.242L255.988 178.086L255.074 178.125Z" fill="white"/>
<path d="M233.027 207.282L246.932 204.626L244.221 173.927L224.304 177.449L233.027 207.282Z" fill="#300729"/>
<path fill-rule="evenodd" clip-rule="evenodd" d="M234.333 184.909L240.399 206.069L241.146 205.855L235.081 184.695L234.333 184.909Z" fill="white"/>
<path d="M215.01 217.633L228.595 214.873L225.591 184.844L206.128 188.52L215.01 217.633Z" fill="#D58A9F"/>
<path fill-rule="evenodd" clip-rule="evenodd" d="M221.643 216.27L217.53 195.11L216.782 195.255L220.895 216.415L221.643 216.27Z" fill="white"/>
<path d="M215.01 217.633L228.595 214.873L225.591 184.844L206.128 188.52L215.01 217.633Z" fill="#D58A9F"/>
<path fill-rule="evenodd" clip-rule="evenodd" d="M221.643 216.27L217.53 195.11L216.782 195.255L220.895 216.415L221.643 216.27Z" fill="white"/>
<path d="M283.104 186.928L296.554 190.286L306.77 161.888L287.621 156.827L283.104 186.928Z" fill="#D58A9F"/>
<path fill-rule="evenodd" clip-rule="evenodd" d="M289.678 188.554L295.075 167.684L294.337 167.493L288.94 188.363L289.678 188.554Z" fill="white"/>
<path d="M194.324 228.309L208.95 225.649L206.388 193.386L185.44 196.9L194.324 228.309Z" fill="#950C2A"/>
<path fill-rule="evenodd" clip-rule="evenodd" d="M198.157 208.17L201.66 227.074L202.463 226.925L198.96 208.021L198.157 208.17Z" fill="white"/>
<path d="M177.704 244.715L193.9 240.802L188.969 204.865L165.753 210.137L177.704 244.715Z" fill="#F0932C"/>
<path fill-rule="evenodd" clip-rule="evenodd" d="M181.899 225.423L185.806 243.17L186.7 242.974L182.793 225.227L181.899 225.423Z" fill="white"/>
<path d="M67.6711 364.005L77.3272 350.426L50.0285 326.538L35.9665 345.749L67.6711 364.005Z" fill="#F0932C"/>
<path fill-rule="evenodd" clip-rule="evenodd" d="M58.1803 346.693L72.7717 357.524L73.3174 356.789L58.726 345.958L58.1803 346.693Z" fill="white"/>
<path d="M165.251 257.966L178.483 252.936L170.483 223.174L151.48 230.101L165.251 257.966Z" fill="#300729"/>
<path fill-rule="evenodd" clip-rule="evenodd" d="M162.652 235.707L172.299 255.492L172.999 255.151L163.351 235.366L162.652 235.707Z" fill="white"/>
<path d="M149.305 271.288L162.204 266.212L154.031 237.16L135.502 244.16L149.305 271.288Z" fill="#D58A9F"/>
<path fill-rule="evenodd" clip-rule="evenodd" d="M155.6 268.794L147.875 248.67L147.164 248.943L154.889 269.067L155.6 268.794Z" fill="white"/>
<path d="M129.66 286.655L143.602 281.495L135.476 250.167L115.457 257.266L129.66 286.655Z" fill="#950C2A"/>
<path fill-rule="evenodd" clip-rule="evenodd" d="M129.938 266.156L136.67 284.164L137.436 283.878L130.703 265.87L129.938 266.156Z" fill="white"/>
<path d="M80.2601 348.216L90.5289 337.466L69.4924 312.871L54.6107 328.027L80.2601 348.216Z" fill="#950C2A"/>
<path fill-rule="evenodd" clip-rule="evenodd" d="M71.5234 329.67L85.469 342.904L86.0312 342.311L72.0857 329.077L71.5234 329.67Z" fill="white"/>
<path d="M116.141 305.698L131.412 299.032L120.315 264.496L98.3676 273.72L116.141 305.698Z" fill="#F0932C"/>
<path fill-rule="evenodd" clip-rule="evenodd" d="M116.923 285.971L123.852 302.769L124.698 302.42L117.769 285.621L116.923 285.971Z" fill="white"/>
<path d="M106.178 320.909L118.335 313.658L105.289 285.738L87.7778 295.859L106.178 320.909Z" fill="#300729"/>
<path fill-rule="evenodd" clip-rule="evenodd" d="M99.753 299.439L112.69 317.249L113.319 316.792L100.382 298.982L99.753 299.439Z" fill="white"/>
<path d="M92.7883 336.799L104.61 329.559L91.5161 302.368L74.4847 312.479L92.7883 336.799Z" fill="#D58A9F"/>
<path fill-rule="evenodd" clip-rule="evenodd" d="M98.555 333.249L87.4527 314.772L86.7998 315.164L97.9021 333.641L98.555 333.249Z" fill="white"/>
<path d="M181.758 138.635L196.225 135.213L191.978 103.128L171.242 107.734L181.758 138.635Z" fill="#950C2A"/>
<path fill-rule="evenodd" clip-rule="evenodd" d="M184.532 118.323L189.02 137.017L189.814 136.827L185.326 118.132L184.532 118.323Z" fill="white"/>
<path d="M166.019 155.889L181.989 151.133L175.184 115.503L152.276 121.983L166.019 155.889Z" fill="#F0932C"/>
<path fill-rule="evenodd" clip-rule="evenodd" d="M169.199 136.404L174.029 153.922L174.912 153.679L170.082 136.161L169.199 136.404Z" fill="white"/>
<path d="M154.277 169.773L167.227 164.057L157.681 134.755L139.066 142.667L154.277 169.773Z" fill="#300729"/>
<path fill-rule="evenodd" clip-rule="evenodd" d="M150.516 147.679L161.186 166.933L161.867 166.556L151.197 147.302L150.516 147.679Z" fill="white"/>
<path d="M139.05 183.912L151.666 178.167L141.984 149.583L123.847 157.543L139.05 183.912Z" fill="#D58A9F"/>
<path fill-rule="evenodd" clip-rule="evenodd" d="M145.207 181.091L136.439 161.399L135.743 161.708L144.511 181.401L145.207 181.091Z" fill="white"/>
<path d="M139.05 183.912L151.666 178.167L141.983 149.583L123.846 157.543L139.05 183.912Z" fill="#D58A9F"/>
<path fill-rule="evenodd" clip-rule="evenodd" d="M145.206 181.091L136.438 161.399L135.743 161.708L144.51 181.401L145.206 181.091Z" fill="white"/>
<path d="M198.492 138.676L212.352 138.922L215.919 108.954L196.122 108.331L198.492 138.676Z" fill="#D58A9F"/>
<path fill-rule="evenodd" clip-rule="evenodd" d="M205.263 138.781L205.827 117.232L205.065 117.212L204.501 138.761L205.263 138.781Z" fill="white"/>
<path d="M121.296 198.969L134.949 193.086L125.195 162.226L105.574 170.363L121.296 198.969Z" fill="#950C2A"/>
<path fill-rule="evenodd" clip-rule="evenodd" d="M120.5 178.483L128.166 196.114L128.916 195.789L121.249 178.158L120.5 178.483Z" fill="white"/>
<path d="M108.793 218.693L123.693 211.237L110.804 177.329L89.3698 187.689L108.793 218.693Z" fill="#F0932C"/>
<path fill-rule="evenodd" clip-rule="evenodd" d="M108.54 198.951L116.339 215.365L117.166 214.972L109.367 198.558L108.54 198.951Z" fill="white"/>
<path d="M28.4136 359.677L34.7677 344.274L2.79517 327.139L-6.58507 349.02L28.4136 359.677Z" fill="#F0932C"/>
<path fill-rule="evenodd" clip-rule="evenodd" d="M15.2724 344.943L31.9262 352.214L32.2925 351.375L15.6387 344.104L15.2724 344.943Z" fill="white"/>
<path d="M99.6392 234.405L111.4 226.527L96.9106 199.328L79.9531 210.352L99.6392 234.405Z" fill="#300729"/>
<path fill-rule="evenodd" clip-rule="evenodd" d="M92.0993 213.3L105.951 230.408L106.555 229.919L92.7038 212.811L92.0993 213.3Z" fill="white"/>
<path d="M87.099 250.973L98.5256 243.125L84.0266 216.656L67.5477 227.645L87.099 250.973Z" fill="#D58A9F"/>
<path fill-rule="evenodd" clip-rule="evenodd" d="M92.6719 247.127L80.6178 229.256L79.9863 229.682L92.0405 247.553L92.6719 247.127Z" fill="white"/>
<path d="M71.414 270.364L83.8377 262.2L68.8731 233.503L50.9633 244.923L71.414 270.364Z" fill="#950C2A"/>
<path fill-rule="evenodd" clip-rule="evenodd" d="M67.0734 250.329L77.6846 266.36L78.3657 265.91L67.7545 249.878L67.0734 250.329Z" fill="white"/>
<path d="M37.1284 341.46L44.7159 328.676L18.6858 309.443L7.59488 327.559L37.1284 341.46Z" fill="#950C2A"/>
<path fill-rule="evenodd" clip-rule="evenodd" d="M24.4436 325.354L41.0088 335.112L41.4233 334.408L24.8582 324.651L24.4436 325.354Z" fill="white"/>
<path d="M62.5251 291.96L75.9048 282.03L57.3238 250.876L38.0138 264.8L62.5251 291.96Z" fill="#F0932C"/>
<path fill-rule="evenodd" clip-rule="evenodd" d="M58.8491 272.563L69.3794 287.372L70.1255 286.842L59.5952 272.032L58.8491 272.563Z" fill="white"/>
<path d="M56.2397 309.023L66.4541 299.223L47.4614 274.953L32.6759 288.754L56.2397 309.023Z" fill="#300729"/>
<path fill-rule="evenodd" clip-rule="evenodd" d="M45.1494 289.549L61.7612 303.992L62.2715 303.405L45.6597 288.962L45.1494 289.549Z" fill="white"/>
<path d="M13.9097 373.698L21.1336 361.525L-3.65422 343.213L-14.2137 360.464L13.9097 373.698Z" fill="#300729"/>
<path fill-rule="evenodd" clip-rule="evenodd" d="M-1.98159 357.896L17.8858 367.374L18.2207 366.672L-1.64668 357.194L-1.98159 357.896Z" fill="white"/>
<path d="M46.767 327.517L56.6572 317.804L37.7824 294.256L23.4619 307.939L46.767 327.517Z" fill="#D58A9F"/>
<path fill-rule="evenodd" clip-rule="evenodd" d="M51.5871 322.762L36.6128 307.256L36.0649 307.785L51.0392 323.291L51.5871 322.762Z" fill="white"/>
<path d="M84.3121 109.563L98.7298 101.211L83.7951 68.1536L63.0328 79.8028L84.3121 109.563Z" fill="#F0932C"/>
<path fill-rule="evenodd" clip-rule="evenodd" d="M82.8559 89.8734L91.642 105.78L92.4434 105.337L83.6572 89.4308L82.8559 89.8734Z" fill="white"/>
<path d="M76.1356 125.805L87.3939 117.224L71.2706 90.9596L55.0178 102.999L76.1356 125.805Z" fill="#300729"/>
<path fill-rule="evenodd" clip-rule="evenodd" d="M67.3212 105.2L82.1912 121.431L82.7646 120.905L67.8947 104.674L67.3212 105.2Z" fill="white"/>
<path d="M64.6299 143.107L75.556 134.576L59.4683 109.042L43.6909 121.016L64.6299 143.107Z" fill="#D58A9F"/>
<path fill-rule="evenodd" clip-rule="evenodd" d="M69.9579 138.928L56.8352 121.826L56.231 122.29L69.3536 139.392L69.9579 138.928Z" fill="white"/>
<path d="M64.6299 143.107L75.556 134.576L59.4683 109.042L43.6909 121.016L64.6299 143.107Z" fill="#D58A9F"/>
<path fill-rule="evenodd" clip-rule="evenodd" d="M69.9579 138.928L56.8352 121.826L56.231 122.29L69.3536 139.392L69.9579 138.928Z" fill="white"/>
<path d="M50.881 161.893L62.7831 152.986L46.0945 125.256L28.9153 137.748L50.881 161.893Z" fill="#950C2A"/>
<path fill-rule="evenodd" clip-rule="evenodd" d="M45.3254 142.159L56.8955 157.514L57.5479 157.022L45.9777 141.668L45.3254 142.159Z" fill="white"/>
<path d="M43.3275 183.991L56.076 173.263L35.6278 143.301L17.2038 158.378L43.3275 183.991Z" fill="#F0932C"/>
<path fill-rule="evenodd" clip-rule="evenodd" d="M38.474 164.854L49.8887 178.993L50.6011 178.418L39.1863 164.279L38.474 164.854Z" fill="white"/>
<path d="M-1.91773 339.843L0.665085 323.383L-34.424 314.186L-38.4371 337.652L-1.91773 339.843Z" fill="#F0932C"/>
<path d="M38.0952 201.406L47.6923 191L27.2534 167.935L13.338 182.613L38.0952 201.406Z" fill="#300729"/>
<path fill-rule="evenodd" clip-rule="evenodd" d="M25.8369 182.645L43.2994 196.047L43.7729 195.43L26.3104 182.028L25.8369 182.645Z" fill="white"/>
<path d="M29.7693 220.444L39.048 210.145L18.7708 187.793L5.31238 202.325L29.7693 220.444Z" fill="#D58A9F"/>
<path fill-rule="evenodd" clip-rule="evenodd" d="M34.2904 215.403L18.3974 200.84L17.8828 201.401L33.7758 215.965L34.2904 215.403Z" fill="white"/>
<path d="M19.0451 242.962L29.2197 232.123L7.96939 207.712L-6.77953 222.997L19.0451 242.962Z" fill="#950C2A"/>
<path fill-rule="evenodd" clip-rule="evenodd" d="M10.147 224.493L24.2076 237.604L24.7646 237.007L10.7041 223.895L10.147 224.493Z" fill="white"/>
<path d="M2.30389 320.096L6.69734 305.894L-23.1033 293.269L-29.6589 313.473L2.30389 320.096Z" fill="#950C2A"/>
<path fill-rule="evenodd" clip-rule="evenodd" d="M-13.7902 307.397L4.59517 313.018L4.83398 312.237L-13.5513 306.616L-13.7902 307.397Z" fill="white"/>
<path d="M15.4432 266.035L26.135 253.256L0.794619 227.3L-14.7313 245.348L15.4432 266.035Z" fill="#F0932C"/>
<path fill-rule="evenodd" clip-rule="evenodd" d="M7.34039 248.032L21.037 259.974L21.6387 259.284L7.94204 247.342L7.34039 248.032Z" fill="white"/>
<path d="M13.3148 284.094L20.9592 272.18L-3.1745 253.014L-14.3296 269.886L13.3148 284.094Z" fill="#300729"/>
<path fill-rule="evenodd" clip-rule="evenodd" d="M-2.01503 267.746L17.5094 277.913L17.8687 277.223L-1.65583 267.057L-2.01503 267.746Z" fill="white"/>
<path d="M8.42146 304.289L15.7708 292.535L-8.07974 274.043L-18.8103 290.691L8.42146 304.289Z" fill="#D58A9F"/>
<path fill-rule="evenodd" clip-rule="evenodd" d="M11.9988 298.539L-6.18158 286.957L-6.59082 287.599L11.5896 299.181L11.9988 298.539Z" fill="white"/>
</g>
<defs>
<linearGradient id="paint0_linear_145_2698" x1="28" y1="0" x2="28" y2="467" gradientUnits="userSpaceOnUse">
<stop offset="0.520833" stop-color="#6F481E"/>
<stop offset="1" stop-color="#6F481E" stop-opacity="0"/>
</linearGradient>
<linearGradient id="paint1_linear_145_2698" x1="9.44971" y1="433.255" x2="9.44971" y2="900.255" gradientUnits="userSpaceOnUse">
<stop offset="0.520833" stop-color="#6F481E"/>
<stop offset="1" stop-color="#6F481E" stop-opacity="0"/>
</linearGradient>
<clipPath id="clip0_145_2698">
<rect width="1440" height="900" fill="white"/>
</clipPath>
</defs>
</svg>
