<svg width="141" height="50" viewBox="0 0 141 50" fill="none" xmlns="http://www.w3.org/2000/svg">
<path d="M56.8573 39.7177H51.4427V10.2437H56.8573V28.8298L64.8706 18.6705H71.0528L64.0633 27.4516L71.0528 39.7177H64.8706L60.598 32.0589L56.8573 37.0204V39.7177ZM93.5571 28.9873C93.5571 30.5625 93.2748 32.0327 92.7105 33.3976C92.146 34.7496 91.3782 35.9244 90.4069 36.922C89.4355 37.9064 88.2936 38.6873 86.9811 39.2649C85.6815 39.8292 84.2837 40.1115 82.7873 40.1115C81.304 40.1115 79.9063 39.8292 78.5936 39.2649C77.2942 38.6873 76.1522 37.9064 75.1677 36.922C74.1964 35.9244 73.4286 34.7496 72.8641 33.3976C72.2998 32.0327 72.0175 30.5625 72.0175 28.9873C72.0175 27.3861 72.2998 25.9028 72.8641 24.5377C73.4286 23.1726 74.1964 21.9978 75.1677 21.0135C76.1522 20.0158 77.2942 19.2349 78.5936 18.6705C79.9063 18.106 81.304 17.8238 82.7873 17.8238C84.2837 17.8238 85.6815 18.0929 86.9811 18.6311C88.2936 19.1561 89.4355 19.9108 90.4069 20.8954C91.3782 21.8665 92.146 23.0413 92.7105 24.4196C93.2748 25.7847 93.5571 27.3073 93.5571 28.9873ZM88.1427 28.9873C88.1427 28.121 87.9982 27.3401 87.7095 26.6444C87.4339 25.9357 87.0532 25.3319 86.5675 24.8331C86.0819 24.3212 85.5109 23.9339 84.8546 23.6714C84.2115 23.3958 83.5224 23.2579 82.7873 23.2579C82.0522 23.2579 81.3567 23.3958 80.7002 23.6714C80.0571 23.9339 79.4927 24.3212 79.0071 24.8331C78.5345 25.3319 78.1605 25.9357 77.8849 26.6444C77.6091 27.3401 77.4714 28.121 77.4714 28.9873C77.4714 29.8012 77.6091 30.5558 77.8849 31.2516C78.1605 31.9472 78.5345 32.551 79.0071 33.0629C79.4927 33.5748 80.0571 33.9816 80.7002 34.2837C81.3567 34.5724 82.0522 34.7167 82.7873 34.7167C83.5224 34.7167 84.2115 34.579 84.8546 34.3034C85.5109 34.0276 86.0819 33.6405 86.5675 33.1417C87.0532 32.6429 87.4339 32.0391 87.7095 31.3302C87.9982 30.6216 88.1427 29.8405 88.1427 28.9873ZM77.8258 16.1306V11.9763H87.7883V16.1306H77.8258ZM101.61 47.7508V42.3363L104.602 42.3758C105.127 42.3758 105.633 42.2903 106.119 42.1198C106.604 41.9492 107.05 41.7129 107.457 41.4109C107.877 41.1091 108.245 40.7482 108.56 40.328C108.875 39.9212 109.131 39.475 109.328 38.9893C108.737 39.2387 108.133 39.4881 107.516 39.7375C106.913 39.9869 106.302 40.1115 105.685 40.1115C104.386 40.1115 103.165 39.8819 102.023 39.4224C100.881 38.9631 99.8772 38.3133 99.0109 37.4732C98.1577 36.62 97.4817 35.5897 96.9829 34.3821C96.4972 33.1613 96.2544 31.7964 96.2544 30.2869V18.6311H101.61V30.2869C101.61 31.0351 101.715 31.6913 101.925 32.2556C102.148 32.8071 102.443 33.273 102.811 33.6536C103.178 34.0212 103.605 34.2968 104.091 34.4804C104.589 34.6643 105.121 34.7562 105.685 34.7562C106.237 34.7562 106.755 34.6314 107.241 34.3821C107.74 34.1196 108.173 33.7782 108.54 33.3583C108.908 32.9383 109.197 32.4657 109.406 31.9407C109.617 31.4026 109.722 30.8512 109.722 30.2869V18.6311H115.136V37.0597C115.123 38.5429 114.834 39.9343 114.27 41.2339C113.705 42.5333 112.931 43.6685 111.946 44.6399C110.975 45.6113 109.84 46.379 108.54 46.9435C107.241 47.5079 105.849 47.7901 104.366 47.7901L101.61 47.7508ZM139.629 28.9873C139.629 30.5625 139.347 32.0327 138.782 33.3976C138.218 34.7496 137.45 35.9244 136.479 36.922C135.507 37.9064 134.365 38.6873 133.053 39.2649C131.753 39.8292 130.355 40.1115 128.859 40.1115C127.376 40.1115 125.978 39.8292 124.665 39.2649C123.366 38.6873 122.224 37.9064 121.24 36.922C120.268 35.9244 119.5 34.7496 118.936 33.3976C118.371 32.0327 118.089 30.5625 118.089 28.9873C118.089 27.3861 118.371 25.9028 118.936 24.5377C119.5 23.1726 120.268 21.9978 121.24 21.0135C122.224 20.0158 123.366 19.2349 124.665 18.6705C125.978 18.106 127.376 17.8238 128.859 17.8238C130.355 17.8238 131.753 18.0929 133.053 18.6311C134.365 19.1561 135.507 19.9108 136.479 20.8954C137.45 21.8665 138.218 23.0413 138.782 24.4196C139.347 25.7847 139.629 27.3073 139.629 28.9873ZM134.214 28.9873C134.214 28.121 134.07 27.3401 133.781 26.6444C133.506 25.9357 133.125 25.3319 132.639 24.8331C132.154 24.3212 131.583 23.9339 130.926 23.6714C130.283 23.3958 129.594 23.2579 128.859 23.2579C128.124 23.2579 127.428 23.3958 126.772 23.6714C126.129 23.9339 125.564 24.3212 125.079 24.8331C124.606 25.3319 124.232 25.9357 123.956 26.6444C123.681 27.3401 123.543 28.121 123.543 28.9873C123.543 29.8012 123.681 30.5558 123.956 31.2516C124.232 31.9472 124.606 32.551 125.079 33.0629C125.564 33.5748 126.129 33.9816 126.772 34.2837C127.428 34.5724 128.124 34.7167 128.859 34.7167C129.594 34.7167 130.283 34.579 130.926 34.3034C131.583 34.0276 132.154 33.6405 132.639 33.1417C133.125 32.6429 133.506 32.0391 133.781 31.3302C134.07 30.6216 134.214 29.8405 134.214 28.9873ZM123.897 16.1306V11.9763H133.86V16.1306H123.897Z" fill="white"/>
<path d="M26.1468 14.5913L33.7474 24.1407L14.7264 42.6939L3.68033 29.2L26.1468 14.5913Z" fill="#D58A9F"/>
<path d="M10.76 33.7696L11.9955 21.6274L38.5665 21.6462L37.0395 39.0177L10.76 33.7696Z" fill="#950C2A"/>
<path fill-rule="evenodd" clip-rule="evenodd" d="M26.8236 29.1728L11.4 25.82L11.5425 25.1645L26.9659 28.5175L26.8236 29.1728Z" fill="white"/>
<path d="M13.5299 16.3339L21.7097 7.27567L43.1204 23.0107L31.6119 36.1125L13.5299 16.3339Z" fill="#F0932C"/>
<path fill-rule="evenodd" clip-rule="evenodd" d="M32.8589 25.8198L22.8 17.1022L23.2391 16.5954L33.298 25.3131L32.8589 25.8198Z" fill="white"/>
<path d="M7.37649 28.8375L0 19.114L19.4471 1.00807L30.1766 14.7551L7.37649 28.8375Z" fill="#300729"/>
<path fill-rule="evenodd" clip-rule="evenodd" d="M19.4471 13.7493L3.35292 23.8081L2.99751 23.2395L19.0916 13.1806L19.4471 13.7493Z" fill="white"/>
</svg>
