<svg width="693" height="231" viewBox="0 0 693 231" fill="none" xmlns="http://www.w3.org/2000/svg">
<g clip-path="url(#clip0_10_128)">
<path d="M282.012 191H255.156V44.8086H282.012V136.996L321.758 86.6055H352.422L317.754 130.16L352.422 191H321.758L300.566 153.012L282.012 177.621V191ZM464.043 137.777C464.043 145.59 462.643 152.882 459.844 159.652C457.044 166.358 453.236 172.185 448.418 177.133C443.6 182.016 437.936 185.889 431.426 188.754C424.98 191.553 418.047 192.953 410.625 192.953C403.268 192.953 396.335 191.553 389.824 188.754C383.379 185.889 377.715 182.016 372.832 177.133C368.014 172.185 364.206 166.358 361.406 159.652C358.607 152.882 357.207 145.59 357.207 137.777C357.207 129.835 358.607 122.478 361.406 115.707C364.206 108.936 368.014 103.109 372.832 98.2266C377.715 93.2786 383.379 89.4049 389.824 86.6055C396.335 83.806 403.268 82.4062 410.625 82.4062C418.047 82.4062 424.98 83.7409 431.426 86.4102C437.936 89.0143 443.6 92.7578 448.418 97.6406C453.236 102.458 457.044 108.285 459.844 115.121C462.643 121.892 464.043 129.444 464.043 137.777ZM437.188 137.777C437.188 133.48 436.471 129.607 435.039 126.156C433.672 122.641 431.784 119.646 429.375 117.172C426.966 114.633 424.134 112.712 420.879 111.41C417.689 110.043 414.271 109.359 410.625 109.359C406.979 109.359 403.529 110.043 400.273 111.41C397.083 112.712 394.284 114.633 391.875 117.172C389.531 119.646 387.676 122.641 386.309 126.156C384.941 129.607 384.258 133.48 384.258 137.777C384.258 141.814 384.941 145.557 386.309 149.008C387.676 152.458 389.531 155.453 391.875 157.992C394.284 160.531 397.083 162.549 400.273 164.047C403.529 165.479 406.979 166.195 410.625 166.195C414.271 166.195 417.689 165.512 420.879 164.145C424.134 162.777 426.966 160.857 429.375 158.383C431.784 155.909 433.672 152.914 435.039 149.398C436.471 145.883 437.188 142.009 437.188 137.777ZM386.016 74.0078V53.4023H435.43V74.0078H386.016ZM503.984 230.844V203.988L518.828 204.184C521.432 204.184 523.939 203.76 526.348 202.914C528.757 202.068 530.97 200.896 532.988 199.398C535.072 197.901 536.895 196.111 538.457 194.027C540.02 192.009 541.289 189.796 542.266 187.387C539.336 188.624 536.341 189.861 533.281 191.098C530.286 192.335 527.259 192.953 524.199 192.953C517.754 192.953 511.699 191.814 506.035 189.535C500.371 187.257 495.391 184.034 491.094 179.867C486.862 175.635 483.509 170.525 481.035 164.535C478.626 158.48 477.422 151.71 477.422 144.223V86.4102H503.984V144.223C503.984 147.934 504.505 151.189 505.547 153.988C506.654 156.723 508.118 159.034 509.941 160.922C511.764 162.745 513.88 164.112 516.289 165.023C518.763 165.935 521.4 166.391 524.199 166.391C526.934 166.391 529.505 165.772 531.914 164.535C534.388 163.233 536.536 161.54 538.359 159.457C540.182 157.374 541.615 155.03 542.656 152.426C543.698 149.757 544.219 147.022 544.219 144.223V86.4102H571.074V177.816C571.009 185.173 569.577 192.074 566.777 198.52C563.978 204.965 560.137 210.596 555.254 215.414C550.436 220.232 544.805 224.04 538.359 226.84C531.914 229.639 525.013 231.039 517.656 231.039L503.984 230.844ZM692.559 137.777C692.559 145.59 691.159 152.882 688.359 159.652C685.56 166.358 681.751 172.185 676.934 177.133C672.116 182.016 666.452 185.889 659.941 188.754C653.496 191.553 646.562 192.953 639.141 192.953C631.784 192.953 624.85 191.553 618.34 188.754C611.895 185.889 606.23 182.016 601.348 177.133C596.53 172.185 592.721 166.358 589.922 159.652C587.122 152.882 585.723 145.59 585.723 137.777C585.723 129.835 587.122 122.478 589.922 115.707C592.721 108.936 596.53 103.109 601.348 98.2266C606.23 93.2786 611.895 89.4049 618.34 86.6055C624.85 83.806 631.784 82.4062 639.141 82.4062C646.562 82.4062 653.496 83.7409 659.941 86.4102C666.452 89.0143 672.116 92.7578 676.934 97.6406C681.751 102.458 685.56 108.285 688.359 115.121C691.159 121.892 692.559 129.444 692.559 137.777ZM665.703 137.777C665.703 133.48 664.987 129.607 663.555 126.156C662.188 122.641 660.299 119.646 657.891 117.172C655.482 114.633 652.65 112.712 649.395 111.41C646.204 110.043 642.786 109.359 639.141 109.359C635.495 109.359 632.044 110.043 628.789 111.41C625.599 112.712 622.799 114.633 620.391 117.172C618.047 119.646 616.191 122.641 614.824 126.156C613.457 129.607 612.773 133.48 612.773 137.777C612.773 141.814 613.457 145.557 614.824 149.008C616.191 152.458 618.047 155.453 620.391 157.992C622.799 160.531 625.599 162.549 628.789 164.047C632.044 165.479 635.495 166.195 639.141 166.195C642.786 166.195 646.204 165.512 649.395 164.145C652.65 162.777 655.482 160.857 657.891 158.383C660.299 155.909 662.188 152.914 663.555 149.398C664.987 145.883 665.703 142.009 665.703 137.777ZM614.531 74.0078V53.4023H663.945V74.0078H614.531Z" fill="black"/>
<path d="M129.688 67.373L167.387 114.738L73.043 206.762L18.2544 139.832L129.688 67.373Z" fill="#D58A9F"/>
<path d="M53.3694 162.497L59.4979 102.272L191.29 102.365L183.716 188.528L53.3694 162.497Z" fill="#950C2A"/>
<path fill-rule="evenodd" clip-rule="evenodd" d="M133.045 139.697L56.544 123.067L57.2506 119.816L133.751 136.447L133.045 139.697Z" fill="white"/>
<path d="M67.1084 76.0162L107.68 31.0873L213.877 109.133L156.795 174.118L67.1084 76.0162Z" fill="#F0932C"/>
<path fill-rule="evenodd" clip-rule="evenodd" d="M162.98 123.066L113.088 79.8268L115.266 77.3133L165.158 120.553L162.98 123.066Z" fill="white"/>
<path d="M36.5874 138.034L0 89.8053L96.4576 0L149.676 68.1855L36.5874 138.034Z" fill="#300729"/>
<path fill-rule="evenodd" clip-rule="evenodd" d="M96.4575 63.1963L16.6305 113.088L14.8677 110.268L94.6946 60.3757L96.4575 63.1963Z" fill="white"/>
</g>
<defs>
<clipPath id="clip0_10_128">
<rect width="693" height="231" fill="white"/>
</clipPath>
</defs>
</svg>
