<svg width="708" height="248" viewBox="0 0 708 248" fill="none" xmlns="http://www.w3.org/2000/svg">
<path d="M292.012 197H265.156V50.8086H292.012V142.996L331.758 92.6055H362.422L327.754 136.16L362.422 197H331.758L310.566 159.012L292.012 183.621V197ZM474.043 143.777C474.043 151.59 472.643 158.882 469.844 165.652C467.044 172.358 463.236 178.185 458.418 183.133C453.6 188.016 447.936 191.889 441.426 194.754C434.98 197.553 428.047 198.953 420.625 198.953C413.268 198.953 406.335 197.553 399.824 194.754C393.379 191.889 387.715 188.016 382.832 183.133C378.014 178.185 374.206 172.358 371.406 165.652C368.607 158.882 367.207 151.59 367.207 143.777C367.207 135.835 368.607 128.478 371.406 121.707C374.206 114.936 378.014 109.109 382.832 104.227C387.715 99.2786 393.379 95.4049 399.824 92.6055C406.335 89.806 413.268 88.4062 420.625 88.4062C428.047 88.4062 434.98 89.7409 441.426 92.4102C447.936 95.0143 453.6 98.7578 458.418 103.641C463.236 108.458 467.044 114.285 469.844 121.121C472.643 127.892 474.043 135.444 474.043 143.777ZM447.188 143.777C447.188 139.48 446.471 135.607 445.039 132.156C443.672 128.641 441.784 125.646 439.375 123.172C436.966 120.633 434.134 118.712 430.879 117.41C427.689 116.043 424.271 115.359 420.625 115.359C416.979 115.359 413.529 116.043 410.273 117.41C407.083 118.712 404.284 120.633 401.875 123.172C399.531 125.646 397.676 128.641 396.309 132.156C394.941 135.607 394.258 139.48 394.258 143.777C394.258 147.814 394.941 151.557 396.309 155.008C397.676 158.458 399.531 161.453 401.875 163.992C404.284 166.531 407.083 168.549 410.273 170.047C413.529 171.479 416.979 172.195 420.625 172.195C424.271 172.195 427.689 171.512 430.879 170.145C434.134 168.777 436.966 166.857 439.375 164.383C441.784 161.909 443.672 158.914 445.039 155.398C446.471 151.883 447.188 148.009 447.188 143.777ZM396.016 80.0078V59.4023H445.43V80.0078H396.016ZM513.984 236.844V209.988L528.828 210.184C531.432 210.184 533.939 209.76 536.348 208.914C538.757 208.068 540.97 206.896 542.988 205.398C545.072 203.901 546.895 202.111 548.457 200.027C550.02 198.009 551.289 195.796 552.266 193.387C549.336 194.624 546.341 195.861 543.281 197.098C540.286 198.335 537.259 198.953 534.199 198.953C527.754 198.953 521.699 197.814 516.035 195.535C510.371 193.257 505.391 190.034 501.094 185.867C496.862 181.635 493.509 176.525 491.035 170.535C488.626 164.48 487.422 157.71 487.422 150.223V92.4102H513.984V150.223C513.984 153.934 514.505 157.189 515.547 159.988C516.654 162.723 518.118 165.034 519.941 166.922C521.764 168.745 523.88 170.112 526.289 171.023C528.763 171.935 531.4 172.391 534.199 172.391C536.934 172.391 539.505 171.772 541.914 170.535C544.388 169.233 546.536 167.54 548.359 165.457C550.182 163.374 551.615 161.03 552.656 158.426C553.698 155.757 554.219 153.022 554.219 150.223V92.4102H581.074V183.816C581.009 191.173 579.577 198.074 576.777 204.52C573.978 210.965 570.137 216.596 565.254 221.414C560.436 226.232 554.805 230.04 548.359 232.84C541.914 235.639 535.013 237.039 527.656 237.039L513.984 236.844ZM702.559 143.777C702.559 151.59 701.159 158.882 698.359 165.652C695.56 172.358 691.751 178.185 686.934 183.133C682.116 188.016 676.452 191.889 669.941 194.754C663.496 197.553 656.562 198.953 649.141 198.953C641.784 198.953 634.85 197.553 628.34 194.754C621.895 191.889 616.23 188.016 611.348 183.133C606.53 178.185 602.721 172.358 599.922 165.652C597.122 158.882 595.723 151.59 595.723 143.777C595.723 135.835 597.122 128.478 599.922 121.707C602.721 114.936 606.53 109.109 611.348 104.227C616.23 99.2786 621.895 95.4049 628.34 92.6055C634.85 89.806 641.784 88.4062 649.141 88.4062C656.562 88.4062 663.496 89.7409 669.941 92.4102C676.452 95.0143 682.116 98.7578 686.934 103.641C691.751 108.458 695.56 114.285 698.359 121.121C701.159 127.892 702.559 135.444 702.559 143.777ZM675.703 143.777C675.703 139.48 674.987 135.607 673.555 132.156C672.188 128.641 670.299 125.646 667.891 123.172C665.482 120.633 662.65 118.712 659.395 117.41C656.204 116.043 652.786 115.359 649.141 115.359C645.495 115.359 642.044 116.043 638.789 117.41C635.599 118.712 632.799 120.633 630.391 123.172C628.047 125.646 626.191 128.641 624.824 132.156C623.457 135.607 622.773 139.48 622.773 143.777C622.773 147.814 623.457 151.557 624.824 155.008C626.191 158.458 628.047 161.453 630.391 163.992C632.799 166.531 635.599 168.549 638.789 170.047C642.044 171.479 645.495 172.195 649.141 172.195C652.786 172.195 656.204 171.512 659.395 170.145C662.65 168.777 665.482 166.857 667.891 164.383C670.299 161.909 672.188 158.914 673.555 155.398C674.987 151.883 675.703 148.009 675.703 143.777ZM624.531 80.0078V59.4023H673.945V80.0078H624.531Z" fill="white"/>
<path d="M138.828 86.4821L178.5 136.327L79.2174 233.168L21.5603 162.734L138.828 86.4821Z" fill="#D58A9F"/>
<path fill-rule="evenodd" clip-rule="evenodd" d="M79.0724 235.754L18.9688 162.332L139.207 84.148L180.855 136.475L79.0724 235.754ZM176.146 136.179L138.449 88.8161L24.1514 163.137L79.362 230.582L176.146 136.179Z" fill="white"/>
<path d="M58.5133 186.587L64.9627 123.208L203.654 123.306L195.684 213.98L58.5133 186.587Z" fill="#950C2A"/>
<path fill-rule="evenodd" clip-rule="evenodd" d="M205.566 121.558L197.257 216.079L56.6124 187.991L63.3829 121.457L205.566 121.558ZM66.5449 124.96L60.4166 185.182L194.113 211.882L201.745 125.055L66.5449 124.96Z" fill="white"/>
<path fill-rule="evenodd" clip-rule="evenodd" d="M142.36 162.593L61.8543 145.091L62.5979 141.671L143.104 159.172L142.36 162.593Z" fill="white"/>
<path d="M72.9725 95.5778L115.668 48.2968L227.425 130.429L167.355 198.816L72.9725 95.5778Z" fill="#F0932C"/>
<path fill-rule="evenodd" clip-rule="evenodd" d="M230 130.149L167.381 201.438L70.6075 95.5851L115.429 45.9495L230 130.149ZM115.906 50.6439L75.3368 95.5705L167.328 196.194L224.85 130.708L115.906 50.6439Z" fill="white"/>
<path fill-rule="evenodd" clip-rule="evenodd" d="M173.864 145.092L121.36 99.5882L123.652 96.9431L176.156 142.446L173.864 145.092Z" fill="white"/>
<path d="M40.8529 160.843L2.35003 110.089L103.858 15.5819L159.862 87.3372L40.8529 160.843Z" fill="#300729"/>
<path fill-rule="evenodd" clip-rule="evenodd" d="M104.063 13L162.443 87.8L40.4202 163.167L0 109.886L104.063 13ZM4.70114 110.292L41.2866 158.518L157.281 86.8745L103.653 18.164L4.70114 110.292Z" fill="white"/>
<path fill-rule="evenodd" clip-rule="evenodd" d="M103.858 82.0869L22.0541 133.166L19.8925 130.317L102.003 79.1186L103.858 82.0869Z" fill="white"/>
</svg>
